<svg width="90" height="102" viewBox="0 0 90 102" fill="none" xmlns="http://www.w3.org/2000/svg">
<path d="M18.1513 1.5H71.8487C80.8741 1.5 88.5 9.85663 88.5 20.5714V81.4286C88.5 92.1434 80.8741 100.5 71.8487 100.5H18.1513C9.12595 100.5 1.5 92.1434 1.5 81.4286V20.5714C1.5 9.85663 9.12595 1.5 18.1513 1.5Z" fill="white" stroke="#44A08D" stroke-width="3" stroke-miterlimit="10"/>
<path d="M10.4422 29.1794H9.11743V27.6738C9.11743 20.4109 15.0052 14.5232 22.268 14.5232H23.5928V15.8479C16.3299 15.8479 10.4422 21.7357 10.4422 28.9985V29.1794Z" fill="url(#paint0_linear_1412_17330)"/>
<path d="M81.1261 29.1792H79.8014V29.131C79.8014 21.7949 73.8542 15.8482 66.5186 15.8482V14.5234H67.8433C75.1794 14.5234 81.1261 20.4706 81.1261 27.8062V29.1796V29.1792Z" fill="url(#paint1_linear_1412_17330)"/>
<path d="M23.5928 89.4764H22.268C15.0052 89.4764 9.11743 83.5887 9.11743 76.3258V74.489H10.4422V75.0011C10.4422 82.2639 16.3299 88.1517 23.5928 88.1517V89.4764Z" fill="url(#paint2_linear_1412_17330)"/>
<path d="M67.8426 89.4765H66.5178V88.1517C73.8539 88.1517 79.8006 82.2046 79.8006 74.8689V74.4895H81.1254V76.1941C81.1254 83.5302 75.1782 89.4769 67.8426 89.4769V89.4765Z" fill="url(#paint3_linear_1412_17330)"/>
<path d="M19.1066 46.9973C19.1066 46.3065 18.5466 45.7466 17.8559 45.7466C17.1652 45.7466 16.6052 46.3065 16.6052 46.9973C16.6052 47.688 17.1652 48.2479 17.8559 48.2479C18.5466 48.2479 19.1066 47.688 19.1066 46.9973Z" fill="#DCDCDC"/>
<path d="M19.1066 49.4987C19.1066 48.808 18.5466 48.248 17.8559 48.248C17.1652 48.248 16.6052 48.808 16.6052 49.4987C16.6052 50.1894 17.1652 50.7494 17.8559 50.7494C18.5466 50.7494 19.1066 50.1894 19.1066 49.4987Z" fill="#DCDCDC"/>
<path d="M17.8559 53.2506C17.1651 53.2506 16.6052 52.6907 16.6052 51.9999C16.6052 51.3091 17.1651 50.7493 17.8559 50.7493C18.5467 50.7493 19.1066 51.3091 19.1066 51.9999C19.1066 52.6907 18.5467 53.2506 17.8559 53.2506Z" fill="#DCDCDC"/>
<path d="M19.1066 54.5014C19.1066 53.8107 18.5466 53.2507 17.8559 53.2507C17.1652 53.2507 16.6052 53.8107 16.6052 54.5014C16.6052 55.1921 17.1652 55.7521 17.8559 55.7521C18.5466 55.7521 19.1066 55.1921 19.1066 54.5014Z" fill="#DCDCDC"/>
<path d="M19.1066 57.0029C19.1066 56.3121 18.5466 55.7522 17.8559 55.7522C17.1652 55.7522 16.6052 56.3121 16.6052 57.0029C16.6052 57.6936 17.1652 58.2535 17.8559 58.2535C18.5466 58.2535 19.1066 57.6936 19.1066 57.0029Z" fill="#DCDCDC"/>
<path d="M21.608 46.9973C21.608 46.3065 21.0481 45.7466 20.3574 45.7466C19.6666 45.7466 19.1067 46.3065 19.1067 46.9973C19.1067 47.688 19.6666 48.2479 20.3574 48.2479C21.0481 48.2479 21.608 47.688 21.608 46.9973Z" fill="#DCDCDC"/>
<path d="M21.608 57.0029C21.608 56.3121 21.0481 55.7522 20.3574 55.7522C19.6666 55.7522 19.1067 56.3121 19.1067 57.0029C19.1067 57.6936 19.6666 58.2535 20.3574 58.2535C21.0481 58.2535 21.608 57.6936 21.608 57.0029Z" fill="#DCDCDC"/>
<path d="M21.608 59.5041C21.608 58.8134 21.0481 58.2534 20.3574 58.2534C19.6666 58.2534 19.1067 58.8134 19.1067 59.5041C19.1067 60.1948 19.6666 60.7548 20.3574 60.7548C21.0481 60.7548 21.608 60.1948 21.608 59.5041Z" fill="#DCDCDC"/>
<path d="M24.1093 41.9946C24.1093 41.3038 23.5493 40.7439 22.8586 40.7439C22.1679 40.7439 21.6079 41.3038 21.6079 41.9946C21.6079 42.6853 22.1679 43.2452 22.8586 43.2452C23.5493 43.2452 24.1093 42.6853 24.1093 41.9946Z" fill="#DCDCDC"/>
<path d="M24.1093 44.496C24.1093 43.8053 23.5493 43.2454 22.8586 43.2454C22.1679 43.2454 21.6079 43.8053 21.6079 44.496C21.6079 45.1868 22.1679 45.7467 22.8586 45.7467C23.5493 45.7467 24.1093 45.1868 24.1093 44.496Z" fill="#DCDCDC"/>
<path d="M24.1093 59.5041C24.1093 58.8134 23.5493 58.2534 22.8586 58.2534C22.1679 58.2534 21.6079 58.8134 21.6079 59.5041C21.6079 60.1948 22.1679 60.7548 22.8586 60.7548C23.5493 60.7548 24.1093 60.1948 24.1093 59.5041Z" fill="#DCDCDC"/>
<path d="M24.1093 62.0053C24.1093 61.3146 23.5493 60.7546 22.8586 60.7546C22.1679 60.7546 21.6079 61.3146 21.6079 62.0053C21.6079 62.696 22.1679 63.256 22.8586 63.256C23.5493 63.256 24.1093 62.696 24.1093 62.0053Z" fill="#DCDCDC"/>
<path d="M37.6173 21.9843C37.6173 21.2936 37.0574 20.7336 36.3666 20.7336C35.6759 20.7336 35.116 21.2936 35.116 21.9843C35.116 22.675 35.6759 23.235 36.3666 23.235C37.0574 23.235 37.6173 22.675 37.6173 21.9843Z" fill="#DCDCDC"/>
<path d="M36.3666 25.7365C35.6758 25.7365 35.116 25.1766 35.116 24.4858C35.116 23.795 35.6758 23.2351 36.3666 23.2351C37.0574 23.2351 37.6173 23.795 37.6173 24.4858C37.6173 25.1766 37.0574 25.7365 36.3666 25.7365Z" fill="#DCDCDC"/>
<path d="M37.6173 29.4877C37.6173 28.797 37.0574 28.2371 36.3666 28.2371C35.6759 28.2371 35.116 28.797 35.116 29.4877C35.116 30.1785 35.6759 30.7384 36.3666 30.7384C37.0574 30.7384 37.6173 30.1785 37.6173 29.4877Z" fill="#DCDCDC"/>
<path d="M37.6173 77.0134C37.6173 76.3226 37.0574 75.7627 36.3666 75.7627C35.6759 75.7627 35.116 76.3226 35.116 77.0134C35.116 77.7041 35.6759 78.264 36.3666 78.264C37.0574 78.264 37.6173 77.7041 37.6173 77.0134Z" fill="#DCDCDC"/>
<path d="M36.3666 80.765C35.6758 80.765 35.116 80.2051 35.116 79.5143C35.116 78.8235 35.6758 78.2637 36.3666 78.2637C37.0574 78.2637 37.6173 78.8235 37.6173 79.5143C37.6173 80.2051 37.0574 80.765 36.3666 80.765Z" fill="#DCDCDC"/>
<path d="M37.6173 82.0158C37.6173 81.3251 37.0574 80.7651 36.3666 80.7651C35.6759 80.7651 35.116 81.3251 35.116 82.0158C35.116 82.7065 35.6759 83.2665 36.3666 83.2665C37.0574 83.2665 37.6173 82.7065 37.6173 82.0158Z" fill="#DCDCDC"/>
<path d="M38.8679 25.7365C38.1771 25.7365 37.6172 25.1766 37.6172 24.4858C37.6172 23.795 38.1771 23.2351 38.8679 23.2351C39.5587 23.2351 40.1185 23.795 40.1185 24.4858C40.1185 25.1766 39.5587 25.7365 38.8679 25.7365Z" fill="#DCDCDC"/>
<path d="M38.8679 28.2374C38.1771 28.2374 37.6172 27.6776 37.6172 26.9868C37.6172 26.296 38.1771 25.7361 38.8679 25.7361C39.5587 25.7361 40.1185 26.296 40.1185 26.9868C40.1185 27.6776 39.5587 28.2374 38.8679 28.2374Z" fill="#DCDCDC"/>
<path d="M38.8679 30.7384C38.1771 30.7384 37.6172 30.1785 37.6172 29.4877C37.6172 28.7969 38.1771 28.2371 38.8679 28.2371C39.5587 28.2371 40.1185 28.7969 40.1185 29.4877C40.1185 30.1785 39.5587 30.7384 38.8679 30.7384Z" fill="#DCDCDC"/>
<path d="M38.8679 33.2399C38.1771 33.2399 37.6172 32.68 37.6172 31.9892C37.6172 31.2984 38.1771 30.7385 38.8679 30.7385C39.5587 30.7385 40.1185 31.2984 40.1185 31.9892C40.1185 32.68 39.5587 33.2399 38.8679 33.2399Z" fill="#DCDCDC"/>
<path d="M38.8679 38.2426C38.1771 38.2426 37.6172 37.6827 37.6172 36.9919C37.6172 36.3011 38.1771 35.7412 38.8679 35.7412C39.5587 35.7412 40.1185 36.3011 40.1185 36.9919C40.1185 37.6827 39.5587 38.2426 38.8679 38.2426Z" fill="#DCDCDC"/>
<path d="M38.8679 78.2638C38.1771 78.2638 37.6172 77.7039 37.6172 77.0131C37.6172 76.3223 38.1771 75.7625 38.8679 75.7625C39.5587 75.7625 40.1185 76.3223 40.1185 77.0131C40.1185 77.7039 39.5587 78.2638 38.8679 78.2638Z" fill="#DCDCDC"/>
<path d="M38.8679 80.765C38.1771 80.765 37.6172 80.2051 37.6172 79.5143C37.6172 78.8235 38.1771 78.2637 38.8679 78.2637C39.5587 78.2637 40.1185 78.8235 40.1185 79.5143C40.1185 80.2051 39.5587 80.765 38.8679 80.765Z" fill="#DCDCDC"/>
<path d="M42.62 21.9843C42.62 21.2936 42.0601 20.7336 41.3693 20.7336C40.6786 20.7336 40.1187 21.2936 40.1187 21.9843C40.1187 22.675 40.6786 23.235 41.3693 23.235C42.0601 23.235 42.62 22.675 42.62 21.9843Z" fill="#DCDCDC"/>
<path d="M41.3693 25.7365C40.6785 25.7365 40.1187 25.1766 40.1187 24.4858C40.1187 23.795 40.6785 23.2351 41.3693 23.2351C42.0601 23.2351 42.62 23.795 42.62 24.4858C42.62 25.1766 42.0601 25.7365 41.3693 25.7365Z" fill="#DCDCDC"/>
<path d="M42.62 31.9892C42.62 31.2985 42.0601 30.7385 41.3693 30.7385C40.6786 30.7385 40.1187 31.2985 40.1187 31.9892C40.1187 32.6799 40.6786 33.2399 41.3693 33.2399C42.0601 33.2399 42.62 32.6799 42.62 31.9892Z" fill="#DCDCDC"/>
<path d="M42.62 34.4907C42.62 33.7999 42.0601 33.24 41.3693 33.24C40.6786 33.24 40.1187 33.7999 40.1187 34.4907C40.1187 35.1814 40.6786 35.7413 41.3693 35.7413C42.0601 35.7413 42.62 35.1814 42.62 34.4907Z" fill="#DCDCDC"/>
<path d="M42.62 77.0134C42.62 76.3226 42.0601 75.7627 41.3693 75.7627C40.6786 75.7627 40.1187 76.3226 40.1187 77.0134C40.1187 77.7041 40.6786 78.264 41.3693 78.264C42.0601 78.264 42.62 77.7041 42.62 77.0134Z" fill="#DCDCDC"/>
<path d="M43.8708 25.7365C43.18 25.7365 42.6201 25.1766 42.6201 24.4858C42.6201 23.795 43.18 23.2351 43.8708 23.2351C44.5616 23.2351 45.1215 23.795 45.1215 24.4858C45.1215 25.1766 44.5616 25.7365 43.8708 25.7365Z" fill="#DCDCDC"/>
<path d="M45.1215 77.0134C45.1215 76.3226 44.5615 75.7627 43.8708 75.7627C43.1801 75.7627 42.6201 76.3226 42.6201 77.0134C42.6201 77.7041 43.1801 78.264 43.8708 78.264C44.5615 78.264 45.1215 77.7041 45.1215 77.0134Z" fill="#DCDCDC"/>
<path d="M43.8708 80.765C43.18 80.765 42.6201 80.2051 42.6201 79.5143C42.6201 78.8235 43.18 78.2637 43.8708 78.2637C44.5616 78.2637 45.1215 78.8235 45.1215 79.5143C45.1215 80.2051 44.5616 80.765 43.8708 80.765Z" fill="#DCDCDC"/>
<path d="M45.1215 82.0158C45.1215 81.3251 44.5615 80.7651 43.8708 80.7651C43.1801 80.7651 42.6201 81.3251 42.6201 82.0158C42.6201 82.7065 43.1801 83.2665 43.8708 83.2665C44.5615 83.2665 45.1215 82.7065 45.1215 82.0158Z" fill="#DCDCDC"/>
<path d="M47.6227 21.9843C47.6227 21.2936 47.0627 20.7336 46.372 20.7336C45.6813 20.7336 45.1213 21.2936 45.1213 21.9843C45.1213 22.675 45.6813 23.235 46.372 23.235C47.0627 23.235 47.6227 22.675 47.6227 21.9843Z" fill="#DCDCDC"/>
<path d="M46.372 25.7365C45.6812 25.7365 45.1213 25.1766 45.1213 24.4858C45.1213 23.795 45.6812 23.2351 46.372 23.2351C47.0628 23.2351 47.6227 23.795 47.6227 24.4858C47.6227 25.1766 47.0628 25.7365 46.372 25.7365Z" fill="#DCDCDC"/>
<path d="M47.6227 26.987C47.6227 26.2963 47.0627 25.7363 46.372 25.7363C45.6813 25.7363 45.1213 26.2963 45.1213 26.987C45.1213 27.6777 45.6813 28.2377 46.372 28.2377C47.0627 28.2377 47.6227 27.6777 47.6227 26.987Z" fill="#DCDCDC"/>
<path d="M47.6227 82.0158C47.6227 81.3251 47.0627 80.7651 46.372 80.7651C45.6813 80.7651 45.1213 81.3251 45.1213 82.0158C45.1213 82.7065 45.6813 83.2665 46.372 83.2665C47.0627 83.2665 47.6227 82.7065 47.6227 82.0158Z" fill="#DCDCDC"/>
<path d="M50.1239 21.9843C50.1239 21.2936 49.564 20.7336 48.8732 20.7336C48.1825 20.7336 47.6226 21.2936 47.6226 21.9843C47.6226 22.675 48.1825 23.235 48.8732 23.235C49.564 23.235 50.1239 22.675 50.1239 21.9843Z" fill="#DCDCDC"/>
<path d="M50.1239 31.9892C50.1239 31.2985 49.564 30.7385 48.8732 30.7385C48.1825 30.7385 47.6226 31.2985 47.6226 31.9892C47.6226 32.6799 48.1825 33.2399 48.8732 33.2399C49.564 33.2399 50.1239 32.6799 50.1239 31.9892Z" fill="#DCDCDC"/>
<path d="M50.1239 34.4907C50.1239 33.7999 49.564 33.24 48.8732 33.24C48.1825 33.24 47.6226 33.7999 47.6226 34.4907C47.6226 35.1814 48.1825 35.7413 48.8732 35.7413C49.564 35.7413 50.1239 35.1814 50.1239 34.4907Z" fill="#DCDCDC"/>
<path d="M48.8732 80.765C48.1824 80.765 47.6226 80.2051 47.6226 79.5143C47.6226 78.8235 48.1824 78.2637 48.8732 78.2637C49.564 78.2637 50.1239 78.8235 50.1239 79.5143C50.1239 80.2051 49.564 80.765 48.8732 80.765Z" fill="#DCDCDC"/>
<path d="M51.3749 30.7384C50.6841 30.7384 50.1243 30.1785 50.1243 29.4877C50.1243 28.7969 50.6841 28.2371 51.3749 28.2371C52.0657 28.2371 52.6256 28.7969 52.6256 29.4877C52.6256 30.1785 52.0657 30.7384 51.3749 30.7384Z" fill="#DCDCDC"/>
<path d="M51.3749 33.2399C50.6841 33.2399 50.1243 32.68 50.1243 31.9892C50.1243 31.2984 50.6841 30.7385 51.3749 30.7385C52.0657 30.7385 52.6256 31.2984 52.6256 31.9892C52.6256 32.68 52.0657 33.2399 51.3749 33.2399Z" fill="#DCDCDC"/>
<path d="M51.3749 75.7628C50.6841 75.7628 50.1243 75.2029 50.1243 74.5121C50.1243 73.8213 50.6841 73.2615 51.3749 73.2615C52.0657 73.2615 52.6256 73.8213 52.6256 74.5121C52.6256 75.2029 52.0657 75.7628 51.3749 75.7628Z" fill="#DCDCDC"/>
<path d="M51.3749 80.765C50.6841 80.765 50.1243 80.2051 50.1243 79.5143C50.1243 78.8235 50.6841 78.2637 51.3749 78.2637C52.0657 78.2637 52.6256 78.8235 52.6256 79.5143C52.6256 80.2051 52.0657 80.765 51.3749 80.765Z" fill="#DCDCDC"/>
<path d="M51.3749 83.2665C50.6841 83.2665 50.1243 82.7066 50.1243 82.0158C50.1243 81.325 50.6841 80.7651 51.3749 80.7651C52.0657 80.7651 52.6256 81.325 52.6256 82.0158C52.6256 82.7066 52.0657 83.2665 51.3749 83.2665Z" fill="#DCDCDC"/>
<path d="M55.1266 21.9843C55.1266 21.2936 54.5666 20.7336 53.8759 20.7336C53.1852 20.7336 52.6252 21.2936 52.6252 21.9843C52.6252 22.675 53.1852 23.235 53.8759 23.235C54.5666 23.235 55.1266 22.675 55.1266 21.9843Z" fill="#DCDCDC"/>
<path d="M55.1266 31.9892C55.1266 31.2985 54.5666 30.7385 53.8759 30.7385C53.1852 30.7385 52.6252 31.2985 52.6252 31.9892C52.6252 32.6799 53.1852 33.2399 53.8759 33.2399C54.5666 33.2399 55.1266 32.6799 55.1266 31.9892Z" fill="#DCDCDC"/>
<path d="M55.1266 74.5121C55.1266 73.8214 54.5666 73.2615 53.8759 73.2615C53.1852 73.2615 52.6252 73.8214 52.6252 74.5121C52.6252 75.2029 53.1852 75.7628 53.8759 75.7628C54.5666 75.7628 55.1266 75.2029 55.1266 74.5121Z" fill="#DCDCDC"/>
<path d="M57.6281 74.5121C57.6281 73.8214 57.0681 73.2615 56.3774 73.2615C55.6867 73.2615 55.1267 73.8214 55.1267 74.5121C55.1267 75.2029 55.6867 75.7628 56.3774 75.7628C57.0681 75.7628 57.6281 75.2029 57.6281 74.5121Z" fill="#DCDCDC"/>
<path d="M57.6281 77.0134C57.6281 76.3226 57.0681 75.7627 56.3774 75.7627C55.6867 75.7627 55.1267 76.3226 55.1267 77.0134C55.1267 77.7041 55.6867 78.264 56.3774 78.264C57.0681 78.264 57.6281 77.7041 57.6281 77.0134Z" fill="#DCDCDC"/>
<path d="M60.1295 77.0134C60.1295 76.3226 59.5696 75.7627 58.8788 75.7627C58.1881 75.7627 57.6282 76.3226 57.6282 77.0134C57.6282 77.7041 58.1881 78.264 58.8788 78.264C59.5696 78.264 60.1295 77.7041 60.1295 77.0134Z" fill="#DCDCDC"/>
<path d="M62.6307 82.0158C62.6307 81.3251 62.0708 80.7651 61.3801 80.7651C60.6893 80.7651 60.1294 81.3251 60.1294 82.0158C60.1294 82.7065 60.6893 83.2665 61.3801 83.2665C62.0708 83.2665 62.6307 82.7065 62.6307 82.0158Z" fill="#DCDCDC"/>
<path d="M63.881 68.2589C63.1902 68.2589 62.6304 67.699 62.6304 67.0082C62.6304 66.3174 63.1902 65.7576 63.881 65.7576C64.5718 65.7576 65.1317 66.3174 65.1317 67.0082C65.1317 67.699 64.5718 68.2589 63.881 68.2589Z" fill="#DCDCDC"/>
<path d="M65.1317 69.5095C65.1317 68.8187 64.5718 68.2588 63.881 68.2588C63.1903 68.2588 62.6304 68.8187 62.6304 69.5095C62.6304 70.2002 63.1903 70.7601 63.881 70.7601C64.5718 70.7601 65.1317 70.2002 65.1317 69.5095Z" fill="#DCDCDC"/>
<path d="M65.1317 72.0109C65.1317 71.3202 64.5718 70.7603 63.881 70.7603C63.1903 70.7603 62.6304 71.3202 62.6304 72.0109C62.6304 72.7017 63.1903 73.2616 63.881 73.2616C64.5718 73.2616 65.1317 72.7017 65.1317 72.0109Z" fill="#DCDCDC"/>
<path d="M65.1317 74.5121C65.1317 73.8214 64.5718 73.2615 63.881 73.2615C63.1903 73.2615 62.6304 73.8214 62.6304 74.5121C62.6304 75.2029 63.1903 75.7628 63.881 75.7628C64.5718 75.7628 65.1317 75.2029 65.1317 74.5121Z" fill="#DCDCDC"/>
<path d="M65.1317 77.0134C65.1317 76.3226 64.5718 75.7627 63.881 75.7627C63.1903 75.7627 62.6304 76.3226 62.6304 77.0134C62.6304 77.7041 63.1903 78.264 63.881 78.264C64.5718 78.264 65.1317 77.7041 65.1317 77.0134Z" fill="#DCDCDC"/>
<path d="M65.1317 82.0158C65.1317 81.3251 64.5718 80.7651 63.881 80.7651C63.1903 80.7651 62.6304 81.3251 62.6304 82.0158C62.6304 82.7065 63.1903 83.2665 63.881 83.2665C64.5718 83.2665 65.1317 82.7065 65.1317 82.0158Z" fill="#DCDCDC"/>
<path d="M66.3823 63.256C65.6915 63.256 65.1316 62.6961 65.1316 62.0053C65.1316 61.3145 65.6915 60.7546 66.3823 60.7546C67.0731 60.7546 67.6329 61.3145 67.6329 62.0053C67.6329 62.6961 67.0731 63.256 66.3823 63.256Z" fill="#DCDCDC"/>
<path d="M66.3823 65.7574C65.6915 65.7574 65.1316 65.1976 65.1316 64.5068C65.1316 63.816 65.6915 63.2561 66.3823 63.2561C67.0731 63.2561 67.6329 63.816 67.6329 64.5068C67.6329 65.1976 67.0731 65.7574 66.3823 65.7574Z" fill="#DCDCDC"/>
<path d="M66.3823 70.7601C65.6915 70.7601 65.1316 70.2003 65.1316 69.5095C65.1316 68.8187 65.6915 68.2588 66.3823 68.2588C67.0731 68.2588 67.6329 68.8187 67.6329 69.5095C67.6329 70.2003 67.0731 70.7601 66.3823 70.7601Z" fill="#DCDCDC"/>
<path d="M66.3823 83.2665C65.6915 83.2665 65.1316 82.7066 65.1316 82.0158C65.1316 81.325 65.6915 80.7651 66.3823 80.7651C67.0731 80.7651 67.6329 81.325 67.6329 82.0158C67.6329 82.7066 67.0731 83.2665 66.3823 83.2665Z" fill="#DCDCDC"/>
<path d="M70.1344 46.9973C70.1344 46.3065 69.5745 45.7466 68.8837 45.7466C68.193 45.7466 67.6331 46.3065 67.6331 46.9973C67.6331 47.688 68.193 48.2479 68.8837 48.2479C69.5745 48.2479 70.1344 47.688 70.1344 46.9973Z" fill="#DCDCDC"/>
<path d="M68.8837 53.2506C68.1929 53.2506 67.6331 52.6907 67.6331 51.9999C67.6331 51.3091 68.1929 50.7493 68.8837 50.7493C69.5745 50.7493 70.1344 51.3091 70.1344 51.9999C70.1344 52.6907 69.5745 53.2506 68.8837 53.2506Z" fill="#DCDCDC"/>
<path d="M70.1344 57.0029C70.1344 56.3121 69.5745 55.7522 68.8837 55.7522C68.193 55.7522 67.6331 56.3121 67.6331 57.0029C67.6331 57.6936 68.193 58.2535 68.8837 58.2535C69.5745 58.2535 70.1344 57.6936 70.1344 57.0029Z" fill="#DCDCDC"/>
<path d="M70.1344 59.5041C70.1344 58.8134 69.5745 58.2534 68.8837 58.2534C68.193 58.2534 67.6331 58.8134 67.6331 59.5041C67.6331 60.1948 68.193 60.7548 68.8837 60.7548C69.5745 60.7548 70.1344 60.1948 70.1344 59.5041Z" fill="#DCDCDC"/>
<path d="M70.1344 62.0053C70.1344 61.3146 69.5745 60.7546 68.8837 60.7546C68.193 60.7546 67.6331 61.3146 67.6331 62.0053C67.6331 62.696 68.193 63.256 68.8837 63.256C69.5745 63.256 70.1344 62.696 70.1344 62.0053Z" fill="#DCDCDC"/>
<path d="M70.1344 69.5095C70.1344 68.8187 69.5745 68.2588 68.8837 68.2588C68.193 68.2588 67.6331 68.8187 67.6331 69.5095C67.6331 70.2002 68.193 70.7601 68.8837 70.7601C69.5745 70.7601 70.1344 70.2002 70.1344 69.5095Z" fill="#DCDCDC"/>
<path d="M70.1344 74.5121C70.1344 73.8214 69.5745 73.2615 68.8837 73.2615C68.193 73.2615 67.6331 73.8214 67.6331 74.5121C67.6331 75.2029 68.193 75.7628 68.8837 75.7628C69.5745 75.7628 70.1344 75.2029 70.1344 74.5121Z" fill="#DCDCDC"/>
<path d="M68.8837 80.765C68.1929 80.765 67.6331 80.2051 67.6331 79.5143C67.6331 78.8235 68.1929 78.2637 68.8837 78.2637C69.5745 78.2637 70.1344 78.8235 70.1344 79.5143C70.1344 80.2051 69.5745 80.765 68.8837 80.765Z" fill="#DCDCDC"/>
<path d="M70.1344 82.0158C70.1344 81.3251 69.5745 80.7651 68.8837 80.7651C68.193 80.7651 67.6331 81.3251 67.6331 82.0158C67.6331 82.7065 68.193 83.2665 68.8837 83.2665C69.5745 83.2665 70.1344 82.7065 70.1344 82.0158Z" fill="#DCDCDC"/>
<path d="M72.6359 44.496C72.6359 43.8053 72.0759 43.2454 71.3852 43.2454C70.6945 43.2454 70.1345 43.8053 70.1345 44.496C70.1345 45.1868 70.6945 45.7467 71.3852 45.7467C72.0759 45.7467 72.6359 45.1868 72.6359 44.496Z" fill="#DCDCDC"/>
<path d="M72.6359 46.9973C72.6359 46.3065 72.0759 45.7466 71.3852 45.7466C70.6945 45.7466 70.1345 46.3065 70.1345 46.9973C70.1345 47.688 70.6945 48.2479 71.3852 48.2479C72.0759 48.2479 72.6359 47.688 72.6359 46.9973Z" fill="#DCDCDC"/>
<path d="M72.6359 49.4987C72.6359 48.808 72.0759 48.248 71.3852 48.248C70.6945 48.248 70.1345 48.808 70.1345 49.4987C70.1345 50.1894 70.6945 50.7494 71.3852 50.7494C72.0759 50.7494 72.6359 50.1894 72.6359 49.4987Z" fill="#DCDCDC"/>
<path d="M72.6359 57.0029C72.6359 56.3121 72.0759 55.7522 71.3852 55.7522C70.6945 55.7522 70.1345 56.3121 70.1345 57.0029C70.1345 57.6936 70.6945 58.2535 71.3852 58.2535C72.0759 58.2535 72.6359 57.6936 72.6359 57.0029Z" fill="#DCDCDC"/>
<path d="M72.6359 59.5041C72.6359 58.8134 72.0759 58.2534 71.3852 58.2534C70.6945 58.2534 70.1345 58.8134 70.1345 59.5041C70.1345 60.1948 70.6945 60.7548 71.3852 60.7548C72.0759 60.7548 72.6359 60.1948 72.6359 59.5041Z" fill="#DCDCDC"/>
<path d="M72.6359 64.5068C72.6359 63.8161 72.0759 63.2561 71.3852 63.2561C70.6945 63.2561 70.1345 63.8161 70.1345 64.5068C70.1345 65.1975 70.6945 65.7574 71.3852 65.7574C72.0759 65.7574 72.6359 65.1975 72.6359 64.5068Z" fill="#DCDCDC"/>
<path d="M71.3852 68.2589C70.6944 68.2589 70.1345 67.699 70.1345 67.0082C70.1345 66.3174 70.6944 65.7576 71.3852 65.7576C72.076 65.7576 72.6359 66.3174 72.6359 67.0082C72.6359 67.699 72.076 68.2589 71.3852 68.2589Z" fill="#DCDCDC"/>
<path d="M72.6359 72.0109C72.6359 71.3202 72.0759 70.7603 71.3852 70.7603C70.6945 70.7603 70.1345 71.3202 70.1345 72.0109C70.1345 72.7017 70.6945 73.2616 71.3852 73.2616C72.0759 73.2616 72.6359 72.7017 72.6359 72.0109Z" fill="#DCDCDC"/>
<path d="M72.6359 77.0134C72.6359 76.3226 72.0759 75.7627 71.3852 75.7627C70.6945 75.7627 70.1345 76.3226 70.1345 77.0134C70.1345 77.7041 70.6945 78.264 71.3852 78.264C72.0759 78.264 72.6359 77.7041 72.6359 77.0134Z" fill="#DCDCDC"/>
<path d="M72.6359 82.0158C72.6359 81.3251 72.0759 80.7651 71.3852 80.7651C70.6945 80.7651 70.1345 81.3251 70.1345 82.0158C70.1345 82.7065 70.6945 83.2665 71.3852 83.2665C72.0759 83.2665 72.6359 82.7065 72.6359 82.0158Z" fill="#DCDCDC"/>
<path d="M75.1368 49.4987C75.1368 48.808 74.5769 48.248 73.8862 48.248C73.1954 48.248 72.6355 48.808 72.6355 49.4987C72.6355 50.1894 73.1954 50.7494 73.8862 50.7494C74.5769 50.7494 75.1368 50.1894 75.1368 49.4987Z" fill="#DCDCDC"/>
<path d="M73.8862 53.2506C73.1954 53.2506 72.6355 52.6907 72.6355 51.9999C72.6355 51.3091 73.1954 50.7493 73.8862 50.7493C74.577 50.7493 75.1368 51.3091 75.1368 51.9999C75.1368 52.6907 74.577 53.2506 73.8862 53.2506Z" fill="#DCDCDC"/>
<path d="M75.1368 57.0029C75.1368 56.3121 74.5769 55.7522 73.8862 55.7522C73.1954 55.7522 72.6355 56.3121 72.6355 57.0029C72.6355 57.6936 73.1954 58.2535 73.8862 58.2535C74.5769 58.2535 75.1368 57.6936 75.1368 57.0029Z" fill="#DCDCDC"/>
<path d="M75.1368 59.5041C75.1368 58.8134 74.5769 58.2534 73.8862 58.2534C73.1954 58.2534 72.6355 58.8134 72.6355 59.5041C72.6355 60.1948 73.1954 60.7548 73.8862 60.7548C74.5769 60.7548 75.1368 60.1948 75.1368 59.5041Z" fill="#DCDCDC"/>
<path d="M75.1368 62.0053C75.1368 61.3146 74.5769 60.7546 73.8862 60.7546C73.1954 60.7546 72.6355 61.3146 72.6355 62.0053C72.6355 62.696 73.1954 63.256 73.8862 63.256C74.5769 63.256 75.1368 62.696 75.1368 62.0053Z" fill="#DCDCDC"/>
<path d="M73.8862 68.2589C73.1954 68.2589 72.6355 67.699 72.6355 67.0082C72.6355 66.3174 73.1954 65.7576 73.8862 65.7576C74.577 65.7576 75.1368 66.3174 75.1368 67.0082C75.1368 67.699 74.577 68.2589 73.8862 68.2589Z" fill="#DCDCDC"/>
<path d="M75.1368 74.5121C75.1368 73.8214 74.5769 73.2615 73.8862 73.2615C73.1954 73.2615 72.6355 73.8214 72.6355 74.5121C72.6355 75.2029 73.1954 75.7628 73.8862 75.7628C74.5769 75.7628 75.1368 75.2029 75.1368 74.5121Z" fill="#DCDCDC"/>
<path d="M73.8862 80.765C73.1954 80.765 72.6355 80.2051 72.6355 79.5143C72.6355 78.8235 73.1954 78.2637 73.8862 78.2637C74.577 78.2637 75.1368 78.8235 75.1368 79.5143C75.1368 80.2051 74.577 80.765 73.8862 80.765Z" fill="#DCDCDC"/>
<path d="M69.0356 32.1411C70.5009 30.6759 70.5009 28.3002 69.0356 26.835C67.5704 25.3697 65.1947 25.3697 63.7295 26.835C62.2642 28.3002 62.2642 30.6759 63.7295 32.1411C65.1947 33.6064 67.5704 33.6064 69.0356 32.1411Z" fill="url(#paint4_linear_1412_17330)"/>
<path d="M66.3824 20.7336C61.5472 20.7336 57.6277 24.6532 57.6277 29.4883C57.6277 34.3235 61.5472 38.2431 66.3824 38.2431C71.2176 38.2431 75.1371 34.3235 75.1371 29.4883C75.1371 24.6532 71.2176 20.7336 66.3824 20.7336ZM66.3824 35.7417C62.9288 35.7417 60.129 32.9419 60.129 29.4883C60.129 26.0348 62.9288 23.235 66.3824 23.235C69.836 23.235 72.6358 26.0348 72.6358 29.4883C72.6358 32.9419 69.836 35.7417 66.3824 35.7417Z" fill="#EDEDED"/>
<path d="M26.5129 32.1411C27.9782 30.6759 27.9782 28.3002 26.5129 26.835C25.0477 25.3697 22.672 25.3697 21.2068 26.835C19.7415 28.3002 19.7415 30.6759 21.2068 32.1411C22.672 33.6064 25.0477 33.6064 26.5129 32.1411Z" fill="url(#paint5_linear_1412_17330)"/>
<path d="M23.8599 20.7336C19.0248 20.7336 15.1052 24.6532 15.1052 29.4883C15.1052 34.3235 19.0248 38.2431 23.8599 38.2431C28.6951 38.2431 32.6146 34.3235 32.6146 29.4883C32.6146 24.6532 28.6951 20.7336 23.8599 20.7336ZM23.8599 35.7417C20.4064 35.7417 17.6066 32.9419 17.6066 29.4883C17.6066 26.0348 20.4064 23.235 23.8599 23.235C27.3135 23.235 30.1133 26.0348 30.1133 29.4883C30.1133 32.9419 27.3135 35.7417 23.8599 35.7417Z" fill="#EDEDED"/>
<path d="M26.5134 77.1653C27.9787 75.7 27.9787 73.3244 26.5134 71.8591C25.0482 70.3939 22.6725 70.3939 21.2073 71.8591C19.742 73.3244 19.742 75.7 21.2073 77.1653C22.6725 78.6305 25.0482 78.6305 26.5134 77.1653Z" fill="url(#paint6_linear_1412_17330)"/>
<path d="M23.8599 65.7576C19.0248 65.7576 15.1052 69.6771 15.1052 74.5123C15.1052 79.3474 19.0248 83.267 23.8599 83.267C28.6951 83.267 32.6146 79.3474 32.6146 74.5123C32.6146 69.6771 28.6951 65.7576 23.8599 65.7576ZM23.8599 80.7656C20.4064 80.7656 17.6066 77.9658 17.6066 74.5123C17.6066 71.0587 20.4064 68.2589 23.8599 68.2589C27.3135 68.2589 30.1133 71.0587 30.1133 74.5123C30.1133 77.9658 27.3135 80.7656 23.8599 80.7656Z" fill="#EDEDED"/>
<path d="M30.5676 60.7495H27.6016V43.25H32.2267L37.5306 54.2404L42.8346 43.25H47.4346V60.7495H44.4685V47.0805L38.335 59.2224H36.676L30.5676 47.0805V60.7495Z" fill="url(#paint7_linear_1412_17330)"/>
<path d="M49.1853 45.877V43.2615H64.6792V47.3401L54.9486 52.0169L64.6792 56.6937V60.7502H49.1853V58.1346H61.2878L50.5376 52.7263V51.2632L61.2878 45.877H49.1853Z" fill="url(#paint8_linear_1412_17330)"/>
<path d="M20 9.64208H20.3126V6.63872L21.6497 8.64595H21.9058L23.2445 6.63872V9.64208H23.5505V6.06665H23.2645L21.7777 8.30337L20.291 6.06665H20V9.64208Z" fill="url(#paint9_linear_1412_17330)"/>
<path d="M24.6294 9.64208H24.9603L25.3279 8.7424H27.1887L27.5612 9.64208H27.8889L26.4071 6.06665H26.1095L24.6294 9.64208ZM25.4509 8.45637L26.2591 6.49071L27.0707 8.45637H25.4509Z" fill="url(#paint10_linear_1412_17330)"/>
<path d="M28.9707 9.64208H29.2833V7.97078H29.8504C30.0234 7.97078 30.1714 7.95581 30.3044 7.92089L31.3006 9.64208H31.6581L30.5905 7.8078C30.8199 7.67975 30.968 7.4752 31.081 7.18418L31.5101 6.06665H31.1825L30.805 7.06278C30.642 7.48685 30.4059 7.67476 29.8504 7.67476H29.2833V6.06665H28.9707V9.64208Z" fill="url(#paint11_linear_1412_17330)"/>
<path d="M32.843 9.64208H35.0049V9.35106H33.1557V7.9608H34.8153V7.67476H33.1557V6.35767H34.9484V6.06665H32.843V9.64208Z" fill="url(#paint12_linear_1412_17330)"/>
<path d="M36.343 9.64208H36.6557V6.63872L37.9927 8.64595H38.2488L39.5875 6.63872V9.64208H39.8935V6.06665H39.6075L38.1208 8.30337L36.634 6.06665H36.343V9.64208Z" fill="url(#paint13_linear_1412_17330)"/>
<path d="M42.3258 9.64208H42.6318V8.31834L43.9855 6.06665H43.633L42.4838 7.99738L41.3297 6.06665H40.9722L42.3258 8.32832V9.64208Z" fill="url(#paint14_linear_1412_17330)"/>
<path d="M45.0632 9.64208H45.3759V6.63872L46.7129 8.64595H46.969L48.3077 6.63872V9.64208H48.6137V6.06665H48.3277L46.841 8.30337L45.3543 6.06665H45.0632V9.64208Z" fill="url(#paint15_linear_1412_17330)"/>
<path d="M50.1567 9.64208H52.3186V9.35106H50.4694V7.9608H52.129V7.67476H50.4694V6.35767H52.2621V6.06665H50.1567V9.64208Z" fill="url(#paint16_linear_1412_17330)"/>
<path d="M53.6562 9.64208H53.9622V6.59714L56.1391 9.64208H56.4301V6.06665H56.1241V9.10494L53.9473 6.06665H53.6562V9.64208Z" fill="url(#paint17_linear_1412_17330)"/>
<path d="M59.2752 9.70361C60.1133 9.70361 60.6255 9.1515 60.6255 8.23187V6.06665H60.3179V8.2169C60.3179 8.97855 59.9404 9.40261 59.2752 9.40261C58.6117 9.40261 58.2342 8.97855 58.2342 8.2169V6.06665H57.9265V8.23187C57.9265 9.1515 58.4387 9.70361 59.2752 9.70361Z" fill="url(#paint18_linear_1412_17330)"/>
<path d="M62.1632 9.6721C62.3261 9.6721 62.4342 9.56068 62.4342 9.40768C62.4342 9.25468 62.3261 9.1416 62.1632 9.1416C61.9985 9.1416 61.8921 9.25468 61.8921 9.40768C61.8921 9.56068 61.9985 9.6721 62.1632 9.6721Z" fill="url(#paint19_linear_1412_17330)"/>
<path d="M63.7461 9.64208H64.0587V6.06665H63.7461V9.64208Z" fill="url(#paint20_linear_1412_17330)"/>
<path d="M67.1951 9.70847C68.2877 9.70847 69.0393 8.94682 69.0393 7.85424C69.0393 6.75999 68.2877 6 67.1951 6C66.1058 6 65.3508 6.75999 65.3508 7.85424C65.3508 8.94682 66.1058 9.70847 67.1951 9.70847ZM65.6668 7.85424C65.6668 6.9346 66.2904 6.31098 67.1951 6.31098C68.1031 6.31098 68.7267 6.9346 68.7267 7.85424C68.7267 8.76888 68.1031 9.39749 67.1951 9.39749C66.2904 9.39749 65.6668 8.76888 65.6668 7.85424Z" fill="url(#paint21_linear_1412_17330)"/>
<path d="M19 96.6421H20.1292C21.2683 96.6421 21.9884 95.932 21.9884 94.8544C21.9884 93.7767 21.2683 93.0667 20.1292 93.0667H19V96.6421ZM19.3126 96.3461V93.3627H20.1192C21.0737 93.3627 21.6724 93.9447 21.6724 94.8544C21.6724 95.764 21.0787 96.3461 20.1292 96.3461H19.3126Z" fill="#707070"/>
<path d="M23.281 96.6421H23.5936V93.0667H23.281V96.6421Z" fill="#707070"/>
<path d="M26.6939 96.7085C27.7815 96.7085 28.5082 95.8953 28.4982 94.7628H26.5825V95.0588H28.1656C28.0991 95.8404 27.5321 96.3975 26.6989 96.3975C25.8158 96.3975 25.2022 95.7689 25.2022 94.8542C25.2022 93.9396 25.8109 93.311 26.6989 93.311C27.3375 93.311 27.8281 93.6386 28.0526 94.1691H28.3902C28.1607 93.474 27.5121 93 26.6839 93C25.6362 93 24.8862 93.7716 24.8862 94.8542C24.8862 95.9368 25.6362 96.7085 26.6939 96.7085Z" fill="#707070"/>
<path d="M29.7742 96.6421H30.0868V93.0667H29.7742V96.6421Z" fill="#707070"/>
<path d="M32.4767 96.6421H32.7827V93.3627H34.02V93.0667H31.2461V93.3627H32.4767V96.6421Z" fill="#707070"/>
<path d="M34.7153 96.6421H35.0463L35.4138 95.7424H37.2747L37.6472 96.6421H37.9748L36.4931 93.0667H36.1954L34.7153 96.6421ZM35.5368 95.4564L36.3451 93.4907L37.1566 95.4564H35.5368Z" fill="#707070"/>
<path d="M39.0564 96.6421H41.1817V96.3461H39.369V93.0667H39.0564V96.6421Z" fill="#707070"/>
<path d="M45.6734 96.7085C45.7548 96.7085 45.8363 96.7035 45.9128 96.6985L45.9793 96.8615C46.1739 97.3221 46.4799 97.51 47.0171 97.51H47.323V97.214H47.037C46.598 97.214 46.4184 97.1009 46.2704 96.75L46.2238 96.637C47.0104 96.4274 47.5176 95.7523 47.5176 94.8542C47.5176 93.76 46.7659 93 45.6734 93C44.5841 93 43.8291 93.76 43.8291 94.8542C43.8291 95.9468 44.5841 96.7085 45.6734 96.7085ZM44.1451 94.8542C44.1451 93.9346 44.7687 93.311 45.6734 93.311C46.5814 93.311 47.205 93.9346 47.205 94.8542C47.205 95.7689 46.5814 96.3975 45.6734 96.3975C44.7687 96.3975 44.1451 95.7689 44.1451 94.8542Z" fill="#707070"/>
<path d="M48.8091 96.6421H49.1217V95.2984H50.0463L51.0059 96.6421H51.3784L50.4089 95.2734C50.971 95.1753 51.3235 94.7729 51.3235 94.1792C51.3235 93.5007 50.8529 93.0667 50.1328 93.0667H48.8091V96.6421ZM49.1217 95.0024V93.3627H50.1012C50.6683 93.3627 51.0059 93.6736 51.0059 94.1792C51.0059 94.6897 50.6683 95.0024 50.1012 95.0024H49.1217Z" fill="#707070"/>
<path d="M54.4495 96.6421H54.7621V93.6387L56.0992 95.646H56.3553L57.694 93.6387V96.6421H57.9999V93.0667H57.7139L56.2272 95.3034L54.7405 93.0667H54.4495V96.6421Z" fill="#707070"/>
<path d="M59.5427 96.6421H61.7046V96.3511H59.8554V94.9608H61.515V94.6748H59.8554V93.3577H61.6481V93.0667H59.5427V96.6421Z" fill="#707070"/>
<path d="M63.042 96.6421H63.348V93.5971L65.5248 96.6421H65.8159V93.0667H65.5099V96.1049L63.333 93.0667H63.042V96.6421Z" fill="#707070"/>
<path d="M68.6612 96.7036C69.4993 96.7036 70.0115 96.1515 70.0115 95.2319V93.0667H69.7039V95.2169C69.7039 95.9785 69.3264 96.4026 68.6612 96.4026C67.9977 96.4026 67.6202 95.9785 67.6202 95.2169V93.0667H67.3125V95.2319C67.3125 96.1515 67.8247 96.7036 68.6612 96.7036Z" fill="#707070"/>
<defs>
<linearGradient id="paint0_linear_1412_17330" x1="1.17251" y1="29.1794" x2="31.4679" y2="28.4057" gradientUnits="userSpaceOnUse">
<stop stop-color="#093637"/>
<stop offset="1" stop-color="#44A08D"/>
</linearGradient>
<linearGradient id="paint1_linear_1412_17330" x1="58.5011" y1="29.1796" x2="89.0728" y2="28.3917" gradientUnits="userSpaceOnUse">
<stop stop-color="#093637"/>
<stop offset="1" stop-color="#44A08D"/>
</linearGradient>
<linearGradient id="paint2_linear_1412_17330" x1="1.17251" y1="89.4764" x2="31.4687" y2="88.7198" gradientUnits="userSpaceOnUse">
<stop stop-color="#093637"/>
<stop offset="1" stop-color="#44A08D"/>
</linearGradient>
<linearGradient id="paint3_linear_1412_17330" x1="58.5003" y1="89.4769" x2="89.0729" y2="88.7064" gradientUnits="userSpaceOnUse">
<stop stop-color="#093637"/>
<stop offset="1" stop-color="#44A08D"/>
</linearGradient>
<linearGradient id="paint4_linear_1412_17330" x1="63.4702" y1="37.7065" x2="74.2881" y2="26.3143" gradientUnits="userSpaceOnUse">
<stop stop-color="#093637"/>
<stop offset="1" stop-color="#44A08D"/>
</linearGradient>
<linearGradient id="paint5_linear_1412_17330" x1="20.9475" y1="37.7065" x2="31.7654" y2="26.3143" gradientUnits="userSpaceOnUse">
<stop stop-color="#093637"/>
<stop offset="1" stop-color="#44A08D"/>
</linearGradient>
<linearGradient id="paint6_linear_1412_17330" x1="20.948" y1="82.7307" x2="31.7659" y2="71.3385" gradientUnits="userSpaceOnUse">
<stop stop-color="#093637"/>
<stop offset="1" stop-color="#44A08D"/>
</linearGradient>
<linearGradient id="paint7_linear_1412_17330" x1="16.716" y1="60.7495" x2="58.2159" y2="59.5333" gradientUnits="userSpaceOnUse">
<stop stop-color="#093637"/>
<stop offset="1" stop-color="#44A08D"/>
</linearGradient>
<linearGradient id="paint8_linear_1412_17330" x1="40.6813" y1="60.7501" x2="73.1127" y2="60.0072" gradientUnits="userSpaceOnUse">
<stop stop-color="#093637"/>
<stop offset="1" stop-color="#44A08D"/>
</linearGradient>
<linearGradient id="paint9_linear_1412_17330" x1="21.7752" y1="6.06665" x2="21.7752" y2="10.1058" gradientUnits="userSpaceOnUse">
<stop stop-color="#44A08D"/>
<stop offset="1" stop-color="#093637"/>
</linearGradient>
<linearGradient id="paint10_linear_1412_17330" x1="26.2591" y1="6.06665" x2="26.2591" y2="10.1058" gradientUnits="userSpaceOnUse">
<stop stop-color="#44A08D"/>
<stop offset="1" stop-color="#093637"/>
</linearGradient>
<linearGradient id="paint11_linear_1412_17330" x1="30.3144" y1="6.06665" x2="30.3144" y2="10.1058" gradientUnits="userSpaceOnUse">
<stop stop-color="#44A08D"/>
<stop offset="1" stop-color="#093637"/>
</linearGradient>
<linearGradient id="paint12_linear_1412_17330" x1="33.924" y1="6.06665" x2="33.924" y2="10.1058" gradientUnits="userSpaceOnUse">
<stop stop-color="#44A08D"/>
<stop offset="1" stop-color="#093637"/>
</linearGradient>
<linearGradient id="paint13_linear_1412_17330" x1="38.1183" y1="6.06665" x2="38.1183" y2="10.1058" gradientUnits="userSpaceOnUse">
<stop stop-color="#44A08D"/>
<stop offset="1" stop-color="#093637"/>
</linearGradient>
<linearGradient id="paint14_linear_1412_17330" x1="42.4788" y1="6.06665" x2="42.4788" y2="10.1058" gradientUnits="userSpaceOnUse">
<stop stop-color="#44A08D"/>
<stop offset="1" stop-color="#093637"/>
</linearGradient>
<linearGradient id="paint15_linear_1412_17330" x1="46.8385" y1="6.06665" x2="46.8385" y2="10.1058" gradientUnits="userSpaceOnUse">
<stop stop-color="#44A08D"/>
<stop offset="1" stop-color="#093637"/>
</linearGradient>
<linearGradient id="paint16_linear_1412_17330" x1="51.2377" y1="6.06665" x2="51.2377" y2="10.1058" gradientUnits="userSpaceOnUse">
<stop stop-color="#44A08D"/>
<stop offset="1" stop-color="#093637"/>
</linearGradient>
<linearGradient id="paint17_linear_1412_17330" x1="55.0432" y1="6.06665" x2="55.0432" y2="10.1058" gradientUnits="userSpaceOnUse">
<stop stop-color="#44A08D"/>
<stop offset="1" stop-color="#093637"/>
</linearGradient>
<linearGradient id="paint18_linear_1412_17330" x1="59.276" y1="6.06665" x2="59.276" y2="10.1753" gradientUnits="userSpaceOnUse">
<stop stop-color="#44A08D"/>
<stop offset="1" stop-color="#093637"/>
</linearGradient>
<linearGradient id="paint19_linear_1412_17330" x1="62.1632" y1="9.1416" x2="62.1632" y2="9.74089" gradientUnits="userSpaceOnUse">
<stop stop-color="#44A08D"/>
<stop offset="1" stop-color="#093637"/>
</linearGradient>
<linearGradient id="paint20_linear_1412_17330" x1="63.9024" y1="6.06665" x2="63.9024" y2="10.1058" gradientUnits="userSpaceOnUse">
<stop stop-color="#44A08D"/>
<stop offset="1" stop-color="#093637"/>
</linearGradient>
<linearGradient id="paint21_linear_1412_17330" x1="67.1951" y1="6" x2="67.1951" y2="10.1894" gradientUnits="userSpaceOnUse">
<stop stop-color="#44A08D"/>
<stop offset="1" stop-color="#093637"/>
</linearGradient>
</defs>
</svg>
