<svg width="118" height="117" viewBox="0 0 118 117" fill="none" xmlns="http://www.w3.org/2000/svg">
<mask id="mask0_968_4174" style="mask-type:alpha" maskUnits="userSpaceOnUse" x="0" y="0" width="118" height="117">
<rect x="0.25" width="117" height="117" fill="#D9D9D9"/>
</mask>
<g mask="url(#mask0_968_4174)">
<path d="M58.7483 91.406C57.7119 91.406 56.8437 91.0557 56.1437 90.355C55.4437 89.6542 55.0938 88.7858 55.0938 87.7499V62.156H29.4999C28.4639 62.156 27.5956 61.8055 26.8949 61.1045C26.1941 60.4034 25.8438 59.5346 25.8438 58.4983C25.8438 57.4619 26.1941 56.5937 26.8949 55.8937C27.5956 55.1937 28.4639 54.8437 29.4999 54.8437H55.0938V29.2499C55.0938 28.2139 55.4443 27.3456 56.1453 26.6448C56.8464 25.9441 57.7151 25.5938 58.7515 25.5938C59.7879 25.5938 60.6561 25.9441 61.3561 26.6448C62.056 27.3456 62.406 28.2139 62.406 29.2499V54.8437H87.9999C89.0358 54.8437 89.9042 55.1943 90.605 55.8953C91.3057 56.5964 91.656 57.4651 91.656 58.5015C91.656 59.5379 91.3057 60.4061 90.605 61.106C89.9042 61.806 89.0358 62.156 87.9999 62.156H62.406V87.7499C62.406 88.7858 62.0555 89.6542 61.3545 90.355C60.6534 91.0557 59.7846 91.406 58.7483 91.406Z" fill="#1C1B1F"/>
</g>
</svg>
