<svg width="14" height="14" viewBox="0 0 14 14" fill="none" xmlns="http://www.w3.org/2000/svg">
<path d="M6.99932 13.5C6.85746 13.5 6.73877 13.4521 6.64327 13.3562C6.54776 13.2604 6.5 13.1417 6.5 13V7.5H1C0.858333 7.5 0.739583 7.45202 0.64375 7.35605C0.547917 7.26008 0.5 7.14118 0.5 6.99933C0.5 6.85746 0.547917 6.73878 0.64375 6.64328C0.739583 6.54776 0.858333 6.5 1 6.5H6.5V1C6.5 0.858333 6.54798 0.739583 6.64395 0.64375C6.7399 0.547917 6.85881 0.5 7.00068 0.5C7.14254 0.5 7.26123 0.547917 7.35673 0.64375C7.45224 0.739583 7.5 0.858333 7.5 1V6.5H13C13.1417 6.5 13.2604 6.54798 13.3562 6.64395C13.4521 6.73992 13.5 6.85882 13.5 7.00067C13.5 7.14254 13.4521 7.26122 13.3562 7.35672C13.2604 7.45224 13.1417 7.5 13 7.5H7.5V13C7.5 13.1417 7.45202 13.2604 7.35605 13.3562C7.2601 13.4521 7.14119 13.5 6.99932 13.5Z" fill="#49454F"/>
</svg>
