<svg width="26" height="26" viewBox="0 0 26 26" fill="none" xmlns="http://www.w3.org/2000/svg">
<path d="M11.7423 24.9552L0.69001 13.9136C0.552538 13.7761 0.454594 13.634 0.396177 13.4873C0.337788 13.3406 0.308594 13.1782 0.308594 13.0001C0.308594 12.8221 0.337788 12.6597 0.396177 12.5129C0.454594 12.3662 0.552538 12.2241 0.69001 12.0867L11.7754 1.0119C11.9649 0.822431 12.1982 0.726278 12.4752 0.723444C12.7523 0.720583 12.9959 0.827779 13.206 1.04503C13.4232 1.25656 13.5332 1.50085 13.5361 1.7779C13.5389 2.05496 13.4317 2.3021 13.2145 2.51932L3.78068 11.9532H24.1248C24.4196 11.9532 24.6678 12.0522 24.8694 12.2502C25.071 12.4482 25.1718 12.6981 25.1718 13.0001C25.1718 13.3021 25.071 13.5521 24.8694 13.7501C24.6678 13.9481 24.4196 14.0471 24.1248 14.0471H3.78068L13.2476 23.5247C13.4371 23.7142 13.5332 23.9471 13.5361 24.2234C13.5389 24.4997 13.4317 24.7437 13.2145 24.9552C13.003 25.1724 12.7573 25.2811 12.4773 25.2811C12.1974 25.2811 11.9524 25.1724 11.7423 24.9552Z" fill="#1C1B1F"/>
</svg>
