<svg width="40" height="40" viewBox="0 0 40 40" fill="none" xmlns="http://www.w3.org/2000/svg">
<mask id="mask0_1346_23078" style="mask-type:alpha" maskUnits="userSpaceOnUse" x="0" y="0" width="40" height="40">
<rect width="40" height="40" fill="#D9D9D9"/>
</mask>
<g mask="url(#mask0_1346_23078)">
<path d="M18.7414 31.9554L7.68903 20.9138C7.55156 20.7763 7.45362 20.6342 7.3952 20.4875C7.33681 20.3408 7.30762 20.1784 7.30762 20.0004C7.30762 19.8223 7.33681 19.6599 7.3952 19.5132C7.45362 19.3665 7.55156 19.2244 7.68903 19.0869L18.7745 8.01215C18.9639 7.82267 19.1972 7.72652 19.4742 7.72369C19.7513 7.72083 19.9949 7.82802 20.205 8.04527C20.4222 8.2568 20.5323 8.50109 20.5351 8.77815C20.538 9.0552 20.4308 9.30234 20.2135 9.51956L10.7797 18.9534H31.1238C31.4186 18.9534 31.6669 19.0524 31.8684 19.2504C32.07 19.4484 32.1708 19.6984 32.1708 20.0004C32.1708 20.3023 32.07 20.5523 31.8684 20.7503C31.6669 20.9483 31.4186 21.0473 31.1238 21.0473H10.7797L20.2467 30.5249C20.4361 30.7144 20.5323 30.9473 20.5351 31.2236C20.538 31.5 20.4308 31.7439 20.2135 31.9554C20.002 32.1727 19.7563 32.2813 19.4764 32.2813C19.1965 32.2813 18.9514 32.1727 18.7414 31.9554Z" fill="#44A08D"/>
</g>
</svg>
