<svg width="19" height="19" viewBox="0 0 19 19" fill="none" xmlns="http://www.w3.org/2000/svg">
<path d="M2.60223 18.7501C2.02691 18.7501 1.54655 18.5574 1.16113 18.1719C0.775716 17.7865 0.583008 17.3062 0.583008 16.7309V13.7501H1.83301V16.7309C1.83301 16.9231 1.91313 17.0994 2.07338 17.2597C2.23365 17.4199 2.40993 17.5001 2.60223 17.5001H16.0638C16.2561 17.5001 16.4324 17.4199 16.5926 17.2597C16.7529 17.0994 16.833 16.9231 16.833 16.7309V13.7501H18.083V16.7309C18.083 17.3062 17.8903 17.7865 17.5049 18.1719C17.1195 18.5574 16.6391 18.7501 16.0638 18.7501H2.60223ZM9.33301 14.0385L4.90991 9.61545L5.79454 8.71641L8.70801 11.6299V0.817383H9.95801V11.6299L12.8715 8.71641L13.7561 9.61545L9.33301 14.0385Z" fill="#1C1B1F"/>
</svg>
