<svg width="24" height="24" viewBox="0 0 24 24" fill="none" xmlns="http://www.w3.org/2000/svg">
<mask id="mask0_1624_1580" style="mask-type:alpha" maskUnits="userSpaceOnUse" x="0" y="0" width="24" height="24">
<rect width="24" height="24" fill="#D9D9D9"/>
</mask>
<g mask="url(#mask0_1624_1580)">
<path d="M8.8 10.6248C8.45 10.6248 8.18733 10.4665 8.012 10.1498C7.83733 9.83314 7.84167 9.52481 8.025 9.2248L11.225 3.9998C11.4083 3.6998 11.6667 3.5498 12 3.5498C12.3333 3.5498 12.5917 3.6998 12.775 3.9998L15.975 9.2248C16.1583 9.52481 16.1627 9.83314 15.988 10.1498C15.8127 10.4665 15.55 10.6248 15.2 10.6248H8.8ZM17.5 21.6248C16.35 21.6248 15.375 21.2248 14.575 20.4248C13.775 19.6248 13.375 18.6498 13.375 17.4998C13.375 16.3498 13.775 15.3748 14.575 14.5748C15.375 13.7748 16.35 13.3748 17.5 13.3748C18.65 13.3748 19.625 13.7748 20.425 14.5748C21.225 15.3748 21.625 16.3498 21.625 17.4998C21.625 18.6498 21.225 19.6248 20.425 20.4248C19.625 21.2248 18.65 21.6248 17.5 21.6248ZM4.275 21.1248C4.025 21.1248 3.81267 21.0375 3.638 20.8628C3.46267 20.6875 3.375 20.4665 3.375 20.1998V14.7748C3.375 14.5248 3.46267 14.3121 3.638 14.1368C3.81267 13.9621 4.03333 13.8748 4.3 13.8748H9.725C9.975 13.8748 10.1877 13.9621 10.363 14.1368C10.5377 14.3121 10.625 14.5331 10.625 14.7998V20.2248C10.625 20.4748 10.5377 20.6875 10.363 20.8628C10.1877 21.0375 9.96667 21.1248 9.7 21.1248H4.275ZM17.5 20.1248C18.2333 20.1248 18.8543 19.8708 19.363 19.3628C19.871 18.8541 20.125 18.2331 20.125 17.4998C20.125 16.7665 19.871 16.1455 19.363 15.6368C18.8543 15.1288 18.2333 14.8748 17.5 14.8748C16.7667 14.8748 16.146 15.1288 15.638 15.6368C15.1293 16.1455 14.875 16.7665 14.875 17.4998C14.875 18.2331 15.1293 18.8541 15.638 19.3628C16.146 19.8708 16.7667 20.1248 17.5 20.1248ZM4.875 19.6248H9.125V15.3748H4.875V19.6248ZM9.85 9.1248H14.15L12 5.6498L9.85 9.1248Z" fill="#337363"/>
</g>
</svg>
