<svg width="40" height="40" viewBox="0 0 40 40" fill="none" xmlns="http://www.w3.org/2000/svg">
<rect x="0.5" y="0.5" width="39" height="39" fill="black"/>
<mask id="mask0_105_850" style="mask-type:alpha" maskUnits="userSpaceOnUse" x="8" y="8" width="24" height="24">
<rect x="8" y="8" width="24" height="24" fill="#D9D9D9"/>
</mask>
<g mask="url(#mask0_105_850)">
<path d="M11.2655 23.3845C11.0394 23.3845 10.855 23.3041 10.7123 23.1432C10.5695 22.9823 10.5232 22.7986 10.5732 22.5922C10.8385 21.5961 11.5456 20.774 12.6943 20.1259C13.843 19.4778 15.3078 19.1537 17.0885 19.1537C18.8693 19.1537 20.334 19.4778 21.4828 20.1259C22.6315 20.774 23.3385 21.5961 23.6039 22.5922C23.6539 22.7963 23.6078 22.9794 23.4655 23.1414C23.3232 23.3035 23.1385 23.3845 22.9116 23.3845H11.2655ZM25.7039 29.9999V28.9999H27.1039L28.5039 15.3845H19.4924L19.4693 15.1826C19.4616 14.9339 19.5356 14.7387 19.6913 14.597C19.847 14.4554 20.0467 14.3845 20.2905 14.3845H23.9732V10.8845C23.9732 10.7429 24.0211 10.6241 24.1171 10.5283C24.2131 10.4324 24.332 10.3845 24.4738 10.3845C24.6157 10.3845 24.7344 10.4324 24.8299 10.5283C24.9254 10.6241 24.9732 10.7429 24.9732 10.8845V14.3845H28.7001C28.9424 14.3845 29.1459 14.472 29.3107 14.647C29.4754 14.822 29.5411 15.0307 29.5078 15.273L28.0924 29.0884C28.0552 29.3986 27.937 29.6281 27.7379 29.7768C27.5387 29.9256 27.2992 29.9999 27.0193 29.9999H25.7039ZM22.3828 22.3845C22.0789 21.7563 21.4703 21.2275 20.5568 20.798C19.6433 20.3685 18.477 20.1538 17.0578 20.1538C15.6386 20.1538 14.4722 20.3685 13.5587 20.798C12.6453 21.2275 12.0366 21.7563 11.7328 22.3845H22.3828ZM10.9424 26.6922C10.8007 26.6922 10.682 26.6442 10.5861 26.5483C10.4903 26.4523 10.4424 26.3334 10.4424 26.1915C10.4424 26.0497 10.4903 25.931 10.5861 25.8355C10.682 25.74 10.8007 25.6922 10.9424 25.6922H23.1732C23.3148 25.6922 23.4336 25.7402 23.5294 25.8362C23.6252 25.9321 23.6732 26.051 23.6732 26.1929C23.6732 26.3348 23.6252 26.4535 23.5294 26.549C23.4336 26.6445 23.3148 26.6922 23.1732 26.6922H10.9424ZM10.9424 29.9999C10.8007 29.9999 10.682 29.9519 10.5861 29.856C10.4903 29.76 10.4424 29.6411 10.4424 29.4992C10.4424 29.3574 10.4903 29.2387 10.5861 29.1432C10.682 29.0477 10.8007 28.9999 10.9424 28.9999H23.1732C23.3148 28.9999 23.4336 29.0479 23.5294 29.1439C23.6252 29.2398 23.6732 29.3587 23.6732 29.5006C23.6732 29.6425 23.6252 29.7611 23.5294 29.8566C23.4336 29.9522 23.3148 29.9999 23.1732 29.9999H10.9424Z" fill="white"/>
</g>
<rect x="0.5" y="0.5" width="39" height="39" stroke="black"/>
</svg>
