<svg width="24" height="24" viewBox="0 0 24 24" fill="none" xmlns="http://www.w3.org/2000/svg">
<mask id="mask0_1624_1047" style="mask-type:alpha" maskUnits="userSpaceOnUse" x="0" y="0" width="24" height="24">
<rect width="24" height="24" fill="#D9D9D9"/>
</mask>
<g mask="url(#mask0_1624_1047)">
<path d="M3.86518 20.5769C3.45622 20.5769 3.10398 20.4291 2.80848 20.1336C2.51298 19.8381 2.36523 19.4859 2.36523 19.0769V4.57688C2.36523 4.16791 2.51298 3.81567 2.80848 3.52015C3.10398 3.22465 3.45622 3.0769 3.86518 3.0769H10.3652C10.7742 3.0769 11.1264 3.22465 11.4219 3.52015C11.7174 3.81567 11.8652 4.16791 11.8652 4.57688V7.0769H20.1344C20.5434 7.0769 20.8956 7.22465 21.1911 7.52015C21.4867 7.81567 21.6344 8.16791 21.6344 8.57688V19.0769C21.6344 19.4859 21.4867 19.8381 21.1911 20.1336C20.8956 20.4291 20.5434 20.5769 20.1344 20.5769H3.86518ZM3.86518 19.0769H10.3652V16.5769H3.86518V19.0769ZM3.86518 15.0769H10.3652V12.5769H3.86518V15.0769ZM3.86518 11.0769H10.3652V8.57688H3.86518V11.0769ZM3.86518 7.0769H10.3652V4.57688H3.86518V7.0769ZM11.8652 19.0769H20.1344V8.57688H11.8652V19.0769ZM14.0575 12.5769V11.0769H17.7498V12.5769H14.0575ZM14.0575 16.5769V15.0769H17.7498V16.5769H14.0575Z" fill="#337363"/>
</g>
</svg>
