<svg width="26" height="23" viewBox="0 0 26 23" fill="none" xmlns="http://www.w3.org/2000/svg">
<path d="M2.83197 22.7211C2.32076 22.7211 1.88047 22.5364 1.51109 22.167C1.14172 21.7976 0.957031 21.3573 0.957031 20.8461V2.7211C0.957031 2.20989 1.14172 1.76959 1.51109 1.40019C1.88047 1.03082 2.32076 0.84613 2.83197 0.84613H10.957C11.4682 0.84613 11.9085 1.03082 12.2779 1.40019C12.6473 1.76959 12.832 2.20989 12.832 2.7211V5.84613H23.1685C23.6797 5.84613 24.12 6.03082 24.4894 6.40019C24.8588 6.76959 25.0435 7.20989 25.0435 7.7211V20.8461C25.0435 21.3573 24.8588 21.7976 24.4894 22.167C24.12 22.5364 23.6797 22.7211 23.1685 22.7211H2.83197ZM2.83197 20.8461H10.957V17.7211H2.83197V20.8461ZM2.83197 15.8461H10.957V12.7211H2.83197V15.8461ZM2.83197 10.8461H10.957V7.7211H2.83197V10.8461ZM2.83197 5.84613H10.957V2.7211H2.83197V5.84613ZM12.832 20.8461H23.1685V7.7211H12.832V20.8461ZM15.5724 12.7211V10.8461H20.1877V12.7211H15.5724ZM15.5724 17.7211V15.8461H20.1877V17.7211H15.5724Z" fill="#49454F"/>
</svg>
