<svg width="67" height="67" viewBox="0 0 67 67" fill="none" xmlns="http://www.w3.org/2000/svg">
<path d="M33.7483 66.406C32.7119 66.406 31.8437 66.0557 31.1437 65.355C30.4437 64.6542 30.0938 63.7858 30.0938 62.7499V37.156H4.49988C3.46394 37.156 2.59562 36.8055 1.89492 36.1045C1.19414 35.4034 0.84375 34.5346 0.84375 33.4983C0.84375 32.4619 1.19414 31.5937 1.89492 30.8937C2.59562 30.1937 3.46394 29.8437 4.49988 29.8437H30.0938V4.24988C30.0938 3.21394 30.4443 2.34558 31.1453 1.6448C31.8464 0.944099 32.7151 0.59375 33.7515 0.59375C34.7879 0.59375 35.6561 0.944099 36.3561 1.6448C37.056 2.34558 37.406 3.21394 37.406 4.24988V29.8437H62.9999C64.0358 29.8437 64.9042 30.1943 65.605 30.8953C66.3057 31.5964 66.656 32.4651 66.656 33.5015C66.656 34.5379 66.3057 35.4061 65.605 36.106C64.9042 36.806 64.0358 37.156 62.9999 37.156H37.406V62.7499C37.406 63.7858 37.0555 64.6542 36.3545 65.355C35.6534 66.0557 34.7846 66.406 33.7483 66.406Z" fill="#44A08D"/>
</svg>
