<svg width="40" height="40" viewBox="0 0 40 40" fill="none" xmlns="http://www.w3.org/2000/svg">
<rect x="0.5" y="0.5" width="39" height="39" fill="white"/>
<mask id="mask0_120_1733" style="mask-type:alpha" maskUnits="userSpaceOnUse" x="8" y="8" width="24" height="24">
<rect x="8" y="8" width="24" height="24" fill="#D9D9D9"/>
</mask>
<g mask="url(#mask0_120_1733)">
<path d="M19.9998 27.6442C19.8575 27.6442 19.7203 27.6138 19.5883 27.5529C19.4562 27.492 19.3351 27.4026 19.2248 27.2846L11.0171 17.4231C10.8953 17.2641 10.8191 17.0904 10.7883 16.9019C10.7575 16.7135 10.7889 16.5276 10.8825 16.3442L13.0267 12.0423C13.1203 11.8756 13.2444 11.7436 13.3988 11.6461C13.5533 11.5487 13.7261 11.5 13.9171 11.5H26.0825C26.2735 11.5 26.4463 11.5487 26.6008 11.6461C26.7553 11.7436 26.8793 11.8756 26.9729 12.0423L29.1171 16.3442C29.2107 16.5276 29.2421 16.7135 29.2114 16.9019C29.1806 17.0904 29.1043 17.2641 28.9825 17.4231L20.7748 27.2846C20.6646 27.4026 20.5434 27.492 20.4114 27.5529C20.2793 27.6138 20.1421 27.6442 19.9998 27.6442ZM16.8171 16.5H23.1825L21.1825 12.5H18.8171L16.8171 16.5ZM19.4998 26.0596V17.5H12.3921L19.4998 26.0596ZM20.4998 26.0596L27.6075 17.5H20.4998V26.0596ZM24.2921 16.5H28.0575L26.0767 12.5H22.2921L24.2921 16.5ZM11.9421 16.5H15.7075L17.7075 12.5H13.9229L11.9421 16.5Z" fill="#1C1B1F"/>
</g>
<rect x="0.5" y="0.5" width="39" height="39" stroke="black"/>
</svg>
