<svg width="40" height="40" viewBox="0 0 40 40" fill="none" xmlns="http://www.w3.org/2000/svg">
<rect x="0.5" y="0.5" width="39" height="39" fill="black"/>
<mask id="mask0_105_858" style="mask-type:alpha" maskUnits="userSpaceOnUse" x="8" y="8" width="24" height="24">
<rect x="8" y="8" width="24" height="24" fill="#D9D9D9"/>
</mask>
<g mask="url(#mask0_105_858)">
<path d="M15.6154 28C15.1551 28 14.7708 27.8458 14.4625 27.5375C14.1542 27.2291 14 26.8448 14 26.3846V14H13.5C13.3577 14 13.2388 13.9522 13.1433 13.8567C13.0478 13.7612 13 13.6423 13 13.5C13 13.3576 13.0478 13.2387 13.1433 13.1432C13.2388 13.0477 13.3577 13 13.5 13H17C17 12.7807 17.0798 12.5977 17.2394 12.4509C17.399 12.3041 17.5885 12.2307 17.8077 12.2307H22.1923C22.4115 12.2307 22.601 12.3041 22.7606 12.4509C22.9202 12.5977 23 12.7807 23 13H26.5C26.6423 13 26.7612 13.0477 26.8567 13.1432C26.9522 13.2387 27 13.3576 27 13.5C27 13.6423 26.9522 13.7612 26.8567 13.8567C26.7612 13.9522 26.6423 14 26.5 14H26V26.3846C26 26.8448 25.8458 27.2291 25.5375 27.5375C25.2292 27.8458 24.8449 28 24.3846 28H15.6154ZM15 14V26.3846C15 26.5641 15.0577 26.7115 15.1731 26.8269C15.2885 26.9423 15.4359 27 15.6154 27H24.3846C24.5641 27 24.7115 26.9423 24.8269 26.8269C24.9423 26.7115 25 26.5641 25 26.3846V14H15ZM17.8077 24.5C17.8077 24.6423 17.8554 24.7612 17.951 24.8567C18.0465 24.9522 18.1654 25 18.3077 25C18.45 25 18.5689 24.9522 18.6644 24.8567C18.7599 24.7612 18.8077 24.6423 18.8077 24.5V16.5C18.8077 16.3577 18.7599 16.2388 18.6644 16.1432C18.5689 16.0477 18.45 16 18.3077 16C18.1654 16 18.0465 16.0477 17.951 16.1432C17.8554 16.2388 17.8077 16.3577 17.8077 16.5V24.5ZM21.1923 24.5C21.1923 24.6423 21.2401 24.7612 21.3356 24.8567C21.4311 24.9522 21.55 25 21.6923 25C21.8346 25 21.9535 24.9522 22.049 24.8567C22.1446 24.7612 22.1923 24.6423 22.1923 24.5V16.5C22.1923 16.3577 22.1446 16.2388 22.049 16.1432C21.9535 16.0477 21.8346 16 21.6923 16C21.55 16 21.4311 16.0477 21.3356 16.1432C21.2401 16.2388 21.1923 16.3577 21.1923 16.5V24.5ZM15 14V26.3846C15 26.5641 15.0577 26.7115 15.1731 26.8269C15.2885 26.9423 15.4359 27 15.6154 27H15V14Z" fill="white"/>
</g>
<rect x="0.5" y="0.5" width="39" height="39" stroke="black"/>
</svg>
