<svg width="40" height="40" viewBox="0 0 40 40" fill="none" xmlns="http://www.w3.org/2000/svg">
<rect width="40" height="40" fill="black"/>
<mask id="mask0_120_1732" style="mask-type:alpha" maskUnits="userSpaceOnUse" x="8" y="8" width="24" height="24">
<rect x="8" y="8" width="24" height="24" fill="#D9D9D9"/>
</mask>
<g mask="url(#mask0_120_1732)">
<path d="M20 22.9019C19.8923 22.9019 19.7929 22.8843 19.7019 22.849C19.6109 22.8138 19.5218 22.7526 19.4346 22.6654L16.8154 20.0461C16.7218 19.9526 16.6718 19.8378 16.6654 19.7019C16.659 19.566 16.709 19.4449 16.8154 19.3384C16.9218 19.232 17.0407 19.1779 17.1721 19.1759C17.3035 19.174 17.4224 19.2263 17.5289 19.3327L19.5 21.3038V13.1538C19.5 13.0115 19.5478 12.8926 19.6433 12.7971C19.7388 12.7016 19.8577 12.6538 20 12.6538C20.1423 12.6538 20.2612 12.7016 20.3567 12.7971C20.4522 12.8926 20.5 13.0115 20.5 13.1538V21.3038L22.4712 19.3327C22.5648 19.2391 22.6805 19.19 22.8183 19.1856C22.9561 19.1811 23.0782 19.232 23.1846 19.3384C23.291 19.4449 23.3443 19.5628 23.3443 19.6923C23.3443 19.8218 23.291 19.9397 23.1846 20.0461L20.5654 22.6654C20.4782 22.7526 20.3891 22.8138 20.2981 22.849C20.2071 22.8843 20.1077 22.9019 20 22.9019ZM14.6154 27C14.1551 27 13.7708 26.8458 13.4625 26.5375C13.1542 26.2292 13 25.8449 13 25.3846V23.5C13 23.3577 13.0478 23.2388 13.1433 23.1433C13.2388 23.0477 13.3577 23 13.5 23C13.6423 23 13.7612 23.0477 13.8567 23.1433C13.9522 23.2388 14 23.3577 14 23.5V25.3846C14 25.5384 14.0641 25.6795 14.1923 25.8077C14.3205 25.9359 14.4615 26 14.6154 26H25.3846C25.5385 26 25.6795 25.9359 25.8077 25.8077C25.9359 25.6795 26 25.5384 26 25.3846V23.5C26 23.3577 26.0478 23.2388 26.1433 23.1433C26.2388 23.0477 26.3577 23 26.5 23C26.6423 23 26.7612 23.0477 26.8567 23.1433C26.9522 23.2388 27 23.3577 27 23.5V25.3846C27 25.8449 26.8458 26.2292 26.5375 26.5375C26.2292 26.8458 25.8449 27 25.3846 27H14.6154Z" fill="white"/>
</g>
</svg>
