<svg width="19" height="17" viewBox="0 0 19 17" fill="none" xmlns="http://www.w3.org/2000/svg">
<path d="M15 16.65L13.95 15.6L15.775 13.75H11.25V12.25H15.775L13.95 10.4L15 9.35L18.65 13L15 16.65ZM0.25 16.4V2.05C0.25 1.55 0.425 1.125 0.775 0.775C1.125 0.425 1.55 0.25 2.05 0.25H13.95C14.45 0.25 14.875 0.425 15.225 0.775C15.575 1.125 15.75 1.55 15.75 2.05V7.05C15.6167 7.03333 15.4917 7.02067 15.375 7.012C15.2583 7.004 15.1333 7 15 7C14.8667 7 14.7417 7.004 14.625 7.012C14.5083 7.02067 14.3833 7.03333 14.25 7.05V2.05C14.25 1.96667 14.221 1.896 14.163 1.838C14.1043 1.77933 14.0333 1.75 13.95 1.75H2.05C1.96667 1.75 1.896 1.77933 1.838 1.838C1.77933 1.896 1.75 1.96667 1.75 2.05V12.25H9.05C9.03333 12.3833 9.02067 12.5083 9.012 12.625C9.004 12.7417 9 12.8667 9 13C9 13.1333 9.004 13.2583 9.012 13.375C9.02067 13.4917 9.03333 13.6167 9.05 13.75H2.9L0.25 16.4ZM4.05 5.75H11.95V4.25H4.05V5.75ZM4.05 9.75H8.95V8.25H4.05V9.75Z" fill="#44A08D"/>
</svg>
