<svg width="18" height="18" viewBox="0 0 18 18" fill="none" xmlns="http://www.w3.org/2000/svg">
<path fill-rule="evenodd" clip-rule="evenodd" d="M17.3333 17.3333H13.7719V11.2674C13.7719 9.60425 13.1399 8.67484 11.8236 8.67484C10.3915 8.67484 9.64336 9.64204 9.64336 11.2674V17.3333H6.21111V5.77778H9.64336V7.33431C9.64336 7.33431 10.6753 5.42474 13.1275 5.42474C15.5786 5.42474 17.3333 6.92149 17.3333 10.0171V17.3333ZM2.11645 4.26467C0.947352 4.26467 0 3.30989 0 2.13234C0 0.954786 0.947352 0 2.11645 0C3.28555 0 4.23233 0.954786 4.23233 2.13234C4.23233 3.30989 3.28555 4.26467 2.11645 4.26467ZM0.344184 17.3333H3.92313V5.77778H0.344184V17.3333Z" fill="white"/>
</svg>
