<svg width="18" height="19" viewBox="0 0 18 19" fill="none" xmlns="http://www.w3.org/2000/svg">
<g clip-path="url(#clip0_2_31)">
<path d="M17.9877 9.37941C17.9877 8.62499 17.9265 8.07446 17.794 7.50354H9.1792V10.9086H14.2359C14.134 11.7549 13.5835 13.0293 12.36 13.8856L12.3429 13.9996L15.0667 16.1097L15.2554 16.1286C16.9886 14.5279 17.9877 12.1728 17.9877 9.37941Z" fill="#4285F4"/>
<path d="M9.17926 18.3511C11.6566 18.3511 13.7364 17.5354 15.2555 16.1285L12.3601 13.8856C11.5853 14.4259 10.5454 14.8031 9.17926 14.8031C6.75285 14.8031 4.69347 13.2026 3.95936 10.9902L3.85175 10.9994L1.01946 13.1913L0.982422 13.2943C2.49127 16.2916 5.59057 18.3511 9.17926 18.3511Z" fill="#34A853"/>
<path d="M3.9593 10.9903C3.7656 10.4194 3.65349 9.80762 3.65349 9.17556C3.65349 8.54342 3.7656 7.93174 3.94911 7.36083L3.94398 7.23924L1.07619 5.01208L0.982362 5.05672C0.360492 6.30053 0.00366211 7.69728 0.00366211 9.17556C0.00366211 10.6538 0.360492 12.0505 0.982362 13.2943L3.9593 10.9903Z" fill="#FBBC05"/>
<path d="M9.17926 3.54786C10.9022 3.54786 12.0644 4.29209 12.7271 4.91403L15.3166 2.38564C13.7263 0.907364 11.6566 0 9.17926 0C5.59057 0 2.49127 2.05939 0.982422 5.05671L3.94917 7.36082C4.69347 5.1485 6.75285 3.54786 9.17926 3.54786Z" fill="#EB4335"/>
</g>
<defs>
<clipPath id="clip0_2_31">
<rect width="18" height="18.4144" fill="white"/>
</clipPath>
</defs>
</svg>
