<svg width="310" height="105" viewBox="0 0 310 105" fill="none" xmlns="http://www.w3.org/2000/svg">
<mask id="mask0_519_3639" style="mask-type:luminance" maskUnits="userSpaceOnUse" x="0" y="0" width="310" height="86">
<path d="M0 0H309.548V85.1478H0V0Z" fill="white"/>
</mask>
<g mask="url(#mask0_519_3639)">
<path d="M0 0H309.548V85.1478H0V0Z" stroke="#FF871C" stroke-width="11.083"/>
</g>
<mask id="mask1_519_3639" style="mask-type:luminance" maskUnits="userSpaceOnUse" x="154" y="8" width="147" height="70">
<path d="M154.164 8.01025H300.54V77.2206H154.164V8.01025Z" fill="white"/>
</mask>
<g mask="url(#mask1_519_3639)">
<path d="M154.164 8.01025H301.371V77.932H154.164V8.01025Z" fill="#FF871C"/>
</g>
<path d="M185.253 47.9369H186.815V38.4299L190.926 44.6385H192.206L196.322 38.4483V47.9369H197.883V35.5195H196.428L191.587 42.8831L186.709 35.5195H185.253V47.9369Z" fill="white"/>
<path d="M206.007 47.9369H207.531V43.4652L212.197 35.5195H210.441L206.787 41.7975L205.175 38.9981L203.152 35.5195H201.341L206.007 43.4652V47.9369Z" fill="white"/>
<path d="M215.659 47.9369H217.22V38.4299L221.332 44.6385H222.611L226.727 38.4483V47.9369H228.289V35.5195H226.833L221.992 42.8831L217.114 35.5195H215.659V47.9369Z" fill="white"/>
<path d="M233.256 47.9369H240.989V46.4818H234.818V42.3334H240.352V40.8967H234.818V36.9747H240.795V35.5195H233.256V47.9369Z" fill="white"/>
<path d="M245.301 47.9369H246.843V38.2174L253.708 47.9369H255.163V35.5195H253.634V45.2391L246.77 35.5195H245.301V47.9369Z" fill="white"/>
<path d="M264.778 48.1494C267.776 48.1494 269.582 46.1815 269.582 42.8831V35.5195H268.021V42.7769C268.021 45.313 266.908 46.625 264.778 46.625C262.667 46.625 261.53 45.313 261.53 42.7769V35.5195H259.988V42.8831C259.988 46.1815 261.78 48.1494 264.778 48.1494Z" fill="white"/>
<path d="M6.54419 102.589H7.41267V94.2459L11.1268 99.8217H11.8382L15.557 94.2459V102.589H16.407V92.6567H15.6124L11.4825 98.8701L7.35261 92.6567H6.54419V102.589Z" fill="#FF871C"/>
<path d="M19.4041 102.589H20.3233L21.3443 100.09H26.5136L27.5483 102.589H28.4584L24.3424 92.6567H23.5155L19.4041 102.589ZM21.6861 99.2951L23.9312 93.8347L26.1856 99.2951H21.6861Z" fill="#FF871C"/>
<path d="M31.4636 102.589H32.3321V97.9461H33.9074C34.3878 97.9461 34.7989 97.9046 35.1685 97.8076L37.9356 102.589H38.9288L35.9631 97.4934C36.6006 97.1377 37.0117 96.5695 37.3258 95.7611L38.5177 92.6567H37.6076L36.559 95.4239C36.1063 96.6018 35.4503 97.1239 33.9074 97.1239H32.3321V92.6567H31.4636V102.589Z" fill="#FF871C"/>
<path d="M42.2202 102.589H48.2256V101.78H43.0887V97.9184H47.699V97.1239H43.0887V93.4652H48.0686V92.6567H42.2202V102.589Z" fill="#FF871C"/>
<path d="M51.9421 102.589H52.8106V94.2459L56.5247 99.8217H57.2362L60.9549 94.2459V102.589H61.8049V92.6567H61.0103L56.8805 98.8701L52.7506 92.6567H51.9421V102.589Z" fill="#FF871C"/>
<path d="M68.5623 102.589H69.4123V98.9116L73.1727 92.6567H72.1933L69.0012 98.0201L65.7952 92.6567H64.802L68.5623 98.9393V102.589Z" fill="#FF871C"/>
<path d="M76.166 102.589H77.0345V94.2459L80.7486 99.8217H81.46L85.1788 94.2459V102.589H86.0288V92.6567H85.2342L81.1043 98.8701L76.9744 92.6567H76.166V102.589Z" fill="#FF871C"/>
<path d="M90.3152 102.589H96.3206V101.78H91.1837V97.9184H95.794V97.1239H91.1837V93.4652H96.1636V92.6567H90.3152V102.589Z" fill="#FF871C"/>
<path d="M100.036 102.589H100.886V94.1304L106.933 102.589H107.742V92.6567H106.892V101.097L100.845 92.6567H100.036V102.589Z" fill="#FF871C"/>
<path d="M115.645 102.76C117.973 102.76 119.396 101.226 119.396 98.6714V92.6567H118.541V98.6298C118.541 100.746 117.492 101.924 115.645 101.924C113.801 101.924 112.753 100.746 112.753 98.6298V92.6567H111.898V98.6714C111.898 101.226 113.321 102.76 115.645 102.76Z" fill="#FF871C"/>
<path d="M123.667 102.672C124.12 102.672 124.42 102.362 124.42 101.937C124.42 101.512 124.12 101.198 123.667 101.198C123.209 101.198 122.914 101.512 122.914 101.937C122.914 102.362 123.209 102.672 123.667 102.672Z" fill="#FF871C"/>
<path d="M128.064 102.589H128.932V92.6567H128.064V102.589Z" fill="#FF871C"/>
<path d="M137.646 102.773C140.681 102.773 142.769 100.658 142.769 97.6225C142.769 94.5828 140.681 92.4717 137.646 92.4717C134.62 92.4717 132.523 94.5828 132.523 97.6225C132.523 100.658 134.62 102.773 137.646 102.773ZM133.401 97.6225C133.401 95.0679 135.133 93.3355 137.646 93.3355C140.168 93.3355 141.901 95.0679 141.901 97.6225C141.901 100.163 140.168 101.909 137.646 101.909C135.133 101.909 133.401 100.163 133.401 97.6225Z" fill="#FF871C"/>
<path d="M151.567 104.52H152.348V91.2339H151.567V104.52Z" fill="#FF871C"/>
<path d="M161.839 102.589H164.976C168.14 102.589 170.14 100.616 170.14 97.6228C170.14 94.6293 168.14 92.6567 164.976 92.6567H161.839V102.589ZM162.708 101.767V93.479H164.948C167.6 93.479 169.263 95.0959 169.263 97.6228C169.263 100.15 167.614 101.767 164.976 101.767H162.708Z" fill="#FF871C"/>
<path d="M173.732 102.589H174.6V92.6567H173.732V102.589Z" fill="#FF871C"/>
<path d="M183.212 102.773C186.233 102.773 188.252 100.514 188.224 97.3684H182.903V98.1907H187.3C187.116 100.362 185.54 101.909 183.226 101.909C180.773 101.909 179.068 100.163 179.068 97.6225C179.068 95.0817 180.759 93.3355 183.226 93.3355C185 93.3355 186.363 94.2456 186.986 95.7192H187.924C187.287 93.7883 185.485 92.4717 183.184 92.4717C180.274 92.4717 178.191 94.6152 178.191 97.6225C178.191 100.63 180.274 102.773 183.212 102.773Z" fill="#FF871C"/>
<path d="M191.769 102.589H192.637V92.6567H191.769V102.589Z" fill="#FF871C"/>
<path d="M199.276 102.589H200.126V93.479H203.563V92.6567H195.858V93.479H199.276V102.589Z" fill="#FF871C"/>
<path d="M205.495 102.589H206.414L207.435 100.09H212.604L213.639 102.589H214.549L210.433 92.6567H209.606L205.495 102.589ZM207.777 99.2951L210.022 93.8347L212.276 99.2951H207.777Z" fill="#FF871C"/>
<path d="M217.554 102.589H223.458V101.767H218.423V92.6567H217.554V102.589Z" fill="#FF871C"/>
<path d="M235.935 102.773C236.162 102.773 236.388 102.759 236.601 102.746L236.785 103.198C237.326 104.478 238.176 105 239.668 105H240.518V104.178H239.723C238.504 104.178 238.005 103.864 237.594 102.889L237.464 102.575C239.649 101.993 241.058 100.117 241.058 97.6225C241.058 94.5828 238.97 92.4717 235.935 92.4717C232.91 92.4717 230.812 94.5828 230.812 97.6225C230.812 100.658 232.91 102.773 235.935 102.773ZM231.69 97.6225C231.69 95.0679 233.422 93.3355 235.935 93.3355C238.458 93.3355 240.19 95.0679 240.19 97.6225C240.19 100.163 238.458 101.909 235.935 101.909C233.422 101.909 231.69 100.163 231.69 97.6225Z" fill="#FF871C"/>
<path d="M244.646 102.589H245.514V98.8562H248.082L250.748 102.589H251.783L249.09 98.7869C250.651 98.5143 251.63 97.3964 251.63 95.7472C251.63 93.8624 250.323 92.6567 248.323 92.6567H244.646V102.589ZM245.514 98.0339V93.479H248.235C249.81 93.479 250.748 94.3429 250.748 95.7472C250.748 97.1654 249.81 98.0339 248.235 98.0339H245.514Z" fill="#FF871C"/>
<path d="M260.313 102.589H261.182V94.2459L264.896 99.8217H265.607L269.326 94.2459V102.589H270.176V92.6567H269.381L265.252 98.8701L261.122 92.6567H260.313V102.589Z" fill="#FF871C"/>
<path d="M274.462 102.589H280.467V101.78H275.33V97.9184H279.94V97.1239H275.33V93.4652H280.31V92.6567H274.462V102.589Z" fill="#FF871C"/>
<path d="M284.183 102.589H285.033V94.1304L291.08 102.589H291.888V92.6567H291.038V101.097L284.991 92.6567H284.183V102.589Z" fill="#FF871C"/>
<path d="M299.792 102.76C302.12 102.76 303.543 101.226 303.543 98.6714V92.6567H302.688V98.6298C302.688 100.746 301.64 101.924 299.792 101.924C297.949 101.924 296.9 100.746 296.9 98.6298V92.6567H296.045V98.6714C296.045 101.226 297.468 102.76 299.792 102.76Z" fill="#FF871C"/>
<path d="M29.5625 53.5779H36.2054V41.7842L40.691 48.0621H45.0427L49.4913 41.8211V53.5779H56.1342V30.3276H50.6878L42.8484 41.3869L35.0413 30.3276H29.5625V53.5779Z" fill="#FF871C"/>
<path d="M58.7578 53.5779H65.8673L67.1285 50.2888H75.0649L76.3306 53.5779H83.4679L74.4366 30.3276H67.7937L58.7578 53.5779ZM68.5236 45.3736L71.1151 38.167L73.7067 45.3736H68.5236Z" fill="#FF871C"/>
<path d="M86.0918 53.5779H92.7994V44.7776H95.7236L100.177 53.5779H107.947L101.835 42.2831C102.533 41.4562 103.166 40.3567 103.697 38.9986L107.152 30.3276H99.8766L97.7839 36.139C97.0864 38.167 96.3241 38.6659 93.9312 38.6659H92.7994V30.3276H86.0918V53.5779Z" fill="#FF871C"/>
<path d="M111.202 53.5779H127.509V48.0991H117.845V44.5097H126.248V39.1279H117.845V35.7418H127.144V30.3276H111.202V53.5779Z" fill="#FF871C"/>
</svg>
