<svg width="24" height="24" viewBox="0 0 24 24" fill="none" xmlns="http://www.w3.org/2000/svg">
<mask id="mask0_1624_1096" style="mask-type:alpha" maskUnits="userSpaceOnUse" x="0" y="-1" width="24" height="25">
<rect y="-0.000244141" width="24" height="24" fill="#D9D9D9"/>
</mask>
<g mask="url(#mask0_1624_1096)">
<path d="M11.9996 12.9997C11.787 12.9997 11.6089 12.9279 11.4654 12.7841C11.3218 12.6404 11.25 12.4622 11.25 12.2498V4.17285C11.25 3.96035 11.3219 3.78223 11.4657 3.63848C11.6095 3.49473 11.7877 3.42285 12.0003 3.42285C12.2129 3.42285 12.391 3.49473 12.5346 3.63848C12.6781 3.78223 12.7499 3.96035 12.7499 4.17285V12.2498C12.7499 12.4622 12.678 12.6404 12.5342 12.7841C12.3904 12.9279 12.2122 12.9997 11.9996 12.9997ZM12.0005 20.4997C10.8207 20.4997 9.71535 20.2766 8.68459 19.8304C7.65383 19.3843 6.75511 18.7779 5.98845 18.0112C5.2218 17.2446 4.6154 16.346 4.16925 15.3155C3.72308 14.285 3.5 13.1797 3.5 11.9997C3.5 10.8754 3.71314 9.80263 4.13942 8.78147C4.56571 7.76032 5.17693 6.84398 5.9731 6.03245C6.11796 5.88373 6.29519 5.81098 6.50479 5.8142C6.71441 5.8174 6.89414 5.89391 7.04397 6.04375C7.1813 6.18108 7.24336 6.3516 7.23014 6.55532C7.21694 6.75904 7.13766 6.94114 6.99229 7.10164C6.34484 7.76448 5.85093 8.51664 5.51055 9.35814C5.17016 10.1996 4.99997 11.0802 4.99997 11.9997C4.99997 13.9497 5.67914 15.6039 7.03747 16.9622C8.3958 18.3206 10.05 18.9997 12 18.9997C13.95 18.9997 15.6041 18.3206 16.9624 16.9622C18.3208 15.6039 18.9999 13.9497 18.9999 11.9997C18.9999 11.0779 18.8272 10.1917 18.4817 9.34109C18.1362 8.49044 17.6397 7.73371 16.9922 7.07089C16.8474 6.92218 16.7708 6.74712 16.7625 6.54572C16.7541 6.34434 16.8199 6.17441 16.9597 6.03595C17.1075 5.8849 17.2861 5.80937 17.4954 5.80937C17.7048 5.80937 17.882 5.88373 18.0268 6.03245C18.823 6.84398 19.4342 7.76032 19.8605 8.78147C20.2868 9.80263 20.4999 10.8754 20.4999 11.9997C20.4999 13.1797 20.2768 14.285 19.8307 15.3155C19.3845 16.346 18.7781 17.2446 18.0115 18.0112C17.2448 18.7779 16.3463 19.3843 15.3159 19.8304C14.2855 20.2766 13.1804 20.4997 12.0005 20.4997Z" fill="#337363"/>
</g>
</svg>
