<svg width="30" height="30" viewBox="0 0 30 30" fill="none" xmlns="http://www.w3.org/2000/svg">
<mask id="mask0_929_3220" style="mask-type:alpha" maskUnits="userSpaceOnUse" x="0" y="0" width="30" height="30">
<rect width="30" height="30" fill="#D9D9D9"/>
</mask>
<g mask="url(#mask0_929_3220)">
<path d="M14.9996 16.2499C14.7338 16.2499 14.5112 16.1601 14.3317 15.9804C14.1522 15.8007 14.0625 15.5781 14.0625 15.3125V5.21631C14.0625 4.95068 14.1524 4.72803 14.3321 4.54834C14.5119 4.36865 14.7346 4.27881 15.0004 4.27881C15.2661 4.27881 15.4887 4.36865 15.6682 4.54834C15.8477 4.72803 15.9374 4.95068 15.9374 5.21631V15.3125C15.9374 15.5781 15.8476 15.8007 15.6678 15.9804C15.488 16.1601 15.2653 16.2499 14.9996 16.2499ZM15.0007 25.6249C13.5258 25.6249 12.1442 25.346 10.8558 24.7883C9.56729 24.2307 8.4439 23.4727 7.48556 22.5143C6.52725 21.556 5.76925 20.4328 5.21156 19.1446C4.65385 17.8565 4.375 16.4749 4.375 14.9999C4.375 13.5945 4.64143 12.2535 5.17428 10.9771C5.70714 9.70065 6.47117 8.55523 7.46638 7.54081C7.64746 7.35491 7.869 7.26398 8.131 7.268C8.39302 7.272 8.61768 7.36764 8.80497 7.55493C8.97664 7.7266 9.05421 7.93976 9.03769 8.1944C9.02119 8.44905 8.92208 8.67668 8.74038 8.87731C7.93106 9.70585 7.31367 10.6461 6.88819 11.6979C6.46271 12.7498 6.24997 13.8505 6.24997 14.9999C6.24997 17.4374 7.09893 19.5051 8.79684 21.2031C10.4948 22.901 12.5625 23.7499 15 23.7499C17.4375 23.7499 19.5052 22.901 21.2031 21.2031C22.901 19.5051 23.75 17.4374 23.75 14.9999C23.75 13.8477 23.534 12.7399 23.1021 11.6766C22.6702 10.6133 22.0496 9.66739 21.2403 8.83887C21.0593 8.65298 20.9635 8.43415 20.9531 8.1824C20.9427 7.93067 21.0249 7.71827 21.1997 7.54518C21.3844 7.35637 21.6076 7.26197 21.8693 7.26197C22.1311 7.26197 22.3525 7.35491 22.5336 7.54081C23.5288 8.55523 24.2928 9.70065 24.8257 10.9771C25.3585 12.2535 25.6249 13.5945 25.6249 14.9999C25.6249 16.4749 25.3461 17.8565 24.7884 19.1446C24.2307 20.4328 23.4727 21.556 22.5144 22.5143C21.556 23.4727 20.4329 24.2307 19.1449 24.7883C17.8569 25.346 16.4755 25.6249 15.0007 25.6249Z" fill="#49454F"/>
</g>
</svg>
