<svg width="18" height="18" viewBox="0 0 18 18" fill="none" xmlns="http://www.w3.org/2000/svg">
<path d="M8.99963 9.99973C8.78703 9.99973 8.60894 9.92786 8.46536 9.78411C8.32178 9.64036 8.24998 9.46224 8.24998 9.24976V1.17285C8.24998 0.960351 8.32188 0.782226 8.46568 0.638476C8.6095 0.494726 8.7877 0.422852 9.00028 0.422852C9.21288 0.422852 9.39097 0.494726 9.53456 0.638476C9.67814 0.782226 9.74993 0.960351 9.74993 1.17285V9.24976C9.74993 9.46224 9.67803 9.64036 9.53423 9.78411C9.39042 9.92786 9.21222 9.99973 8.99963 9.99973ZM9.00051 17.4997C7.82066 17.4997 6.71535 17.2766 5.68459 16.8304C4.65383 16.3843 3.75511 15.7779 2.98845 15.0112C2.2218 14.2446 1.6154 13.346 1.16925 12.3155C0.723083 11.285 0.5 10.1797 0.5 8.99973C0.5 7.87539 0.713141 6.80263 1.13942 5.78147C1.56571 4.76032 2.17693 3.84398 2.9731 3.03245C3.11796 2.88373 3.29519 2.81098 3.50479 2.8142C3.71441 2.8174 3.89414 2.89391 4.04397 3.04375C4.1813 3.18108 4.24336 3.3516 4.23014 3.55532C4.21694 3.75904 4.13766 3.94114 3.99229 4.10164C3.34484 4.76448 2.85093 5.51664 2.51055 6.35814C2.17016 7.19964 1.99997 8.08017 1.99997 8.99973C1.99997 10.9497 2.67914 12.6039 4.03747 13.9622C5.3958 15.3206 7.04996 15.9997 8.99996 15.9997C10.95 15.9997 12.6041 15.3206 13.9624 13.9622C15.3208 12.6039 15.9999 10.9497 15.9999 8.99973C15.9999 8.07794 15.8272 7.19172 15.4817 6.34109C15.1362 5.49044 14.6397 4.73371 13.9922 4.07089C13.8474 3.92218 13.7708 3.74712 13.7625 3.54572C13.7541 3.34434 13.8199 3.17441 13.9597 3.03595C14.1075 2.8849 14.2861 2.80937 14.4954 2.80937C14.7048 2.80937 14.882 2.88373 15.0268 3.03245C15.823 3.84398 16.4342 4.76032 16.8605 5.78147C17.2868 6.80263 17.4999 7.87539 17.4999 8.99973C17.4999 10.1797 17.2768 11.285 16.8307 12.3155C16.3845 13.346 15.7781 14.2446 15.0115 15.0112C14.2448 15.7779 13.3463 16.3843 12.3159 16.8304C11.2855 17.2766 10.1804 17.4997 9.00051 17.4997Z" fill="#337363"/>
</svg>
