<svg width="28" height="19" viewBox="0 0 28 19" fill="none" xmlns="http://www.w3.org/2000/svg">
<path d="M16.4278 6.07695C16.4278 5.93753 16.4775 5.79491 16.5768 5.64908C16.6762 5.50324 16.7892 5.40309 16.9158 5.34861C17.536 5.10019 18.1742 4.91189 18.8305 4.7837C19.4867 4.65549 20.1682 4.59139 20.8749 4.59139C21.2836 4.59139 21.679 4.61542 22.0612 4.66348C22.4434 4.71157 22.8284 4.77727 23.2163 4.86061C23.3637 4.89425 23.4911 4.97438 23.5985 5.10098C23.7058 5.22759 23.7595 5.37502 23.7595 5.54329C23.7595 5.82534 23.671 6.03166 23.4939 6.16226C23.3168 6.29287 23.0873 6.32451 22.8052 6.2572C22.5056 6.1947 22.1943 6.14984 21.8713 6.12261C21.5484 6.09536 21.2163 6.08173 20.8749 6.08173C20.2692 6.08173 19.6758 6.13983 19.0949 6.25601C18.5139 6.3722 17.9598 6.52965 17.4326 6.72836C17.1377 6.84215 16.8966 6.83574 16.7091 6.70914C16.5216 6.58253 16.4278 6.37181 16.4278 6.07695ZM16.4278 12.9039C16.4278 12.7644 16.4775 12.6198 16.5768 12.47C16.6762 12.3201 16.7892 12.218 16.9158 12.1635C17.5199 11.9151 18.1582 11.7288 18.8305 11.6046C19.5027 11.4804 20.1842 11.4183 20.8749 11.4183C21.2836 11.4183 21.679 11.4423 22.0612 11.4904C22.4434 11.5385 22.8284 11.6042 23.2163 11.6875C23.3637 11.7212 23.4911 11.8013 23.5985 11.9279C23.7058 12.0545 23.7595 12.2019 23.7595 12.3702C23.7595 12.6522 23.671 12.8586 23.4939 12.9892C23.3168 13.1198 23.0873 13.1514 22.8052 13.0841C22.5056 13.0216 22.1943 12.9768 21.8713 12.9495C21.5484 12.9223 21.2163 12.9086 20.8749 12.9086C20.2772 12.9086 19.6898 12.9655 19.1129 13.0793C18.536 13.1931 17.9839 13.3534 17.4567 13.5601C17.1618 13.6819 16.9166 13.6787 16.7211 13.5505C16.5256 13.4223 16.4278 13.2067 16.4278 12.9039ZM16.4278 9.49042C16.4278 9.35098 16.4775 9.20635 16.5768 9.05651C16.6762 8.90668 16.7892 8.80452 16.9158 8.75004C17.536 8.50165 18.1742 8.31535 18.8305 8.19114C19.4867 8.06693 20.1682 8.00483 20.8749 8.00483C21.2836 8.00483 21.679 8.02887 22.0612 8.07695C22.4434 8.12503 22.8284 8.19074 23.2163 8.27408C23.3637 8.30772 23.4911 8.38785 23.5985 8.51445C23.7058 8.64105 23.7595 8.78848 23.7595 8.95673C23.7595 9.23879 23.671 9.44513 23.4939 9.57573C23.3168 9.70634 23.0873 9.73798 22.8052 9.67067C22.5056 9.60817 22.1943 9.5633 21.8713 9.53605C21.5484 9.50882 21.2163 9.4952 20.8749 9.4952C20.2772 9.4952 19.6898 9.55529 19.1129 9.67548C18.536 9.79567 17.9839 9.95913 17.4567 10.1659C17.1618 10.2877 16.9166 10.2813 16.7211 10.1466C16.5256 10.012 16.4278 9.79329 16.4278 9.49042ZM7.12494 15.024C8.16021 15.024 9.16743 15.1414 10.1466 15.3762C11.1258 15.611 12.0977 15.9792 13.0625 16.4808V4.19233C12.1843 3.62022 11.2339 3.19114 10.2115 2.90508C9.18906 2.61901 8.16021 2.47598 7.12494 2.47598C6.37494 2.47598 5.67422 2.53487 5.02278 2.65264C4.37134 2.77043 3.70188 2.96314 3.01438 3.23076C2.91821 3.26283 2.85009 3.30891 2.81003 3.36901C2.76997 3.42912 2.74994 3.49522 2.74994 3.56733V15.3894C2.74994 15.5016 2.79 15.5837 2.87013 15.6358C2.95027 15.6879 3.03843 15.6939 3.13459 15.6539C3.72753 15.4519 4.35332 15.2965 5.01197 15.1875C5.67061 15.0785 6.37494 15.024 7.12494 15.024ZM14.9374 16.4808C15.9022 15.9792 16.8741 15.611 17.8533 15.3762C18.8324 15.1414 19.8397 15.024 20.8749 15.024C21.6249 15.024 22.3293 15.0785 22.9879 15.1875C23.6466 15.2965 24.2723 15.4519 24.8653 15.6539C24.9614 15.6939 25.0496 15.6879 25.1297 15.6358C25.2099 15.5837 25.2499 15.5016 25.2499 15.3894V3.56733C25.2499 3.49522 25.2299 3.43112 25.1898 3.37501C25.1498 3.31891 25.0817 3.27083 24.9855 3.23076C24.298 2.96314 23.6285 2.77043 22.9771 2.65264C22.3257 2.53487 21.6249 2.47598 20.8749 2.47598C19.8397 2.47598 18.8108 2.61901 17.7884 2.90508C16.7659 3.19114 15.8156 3.62022 14.9374 4.19233V16.4808ZM13.9999 18.7067C13.7564 18.7067 13.5284 18.6763 13.3161 18.6154C13.1037 18.5545 12.903 18.4735 12.7139 18.3726C11.8533 17.8854 10.9531 17.518 10.0132 17.2704C9.07326 17.0228 8.11052 16.899 7.12494 16.899C6.36212 16.899 5.61294 16.9835 4.87738 17.1526C4.14179 17.3217 3.43266 17.5705 2.74997 17.899C2.30447 18.1041 1.88059 18.0717 1.47834 17.8016C1.07611 17.5316 0.875 17.149 0.875 16.6538V3.08176C0.875 2.81253 0.944302 2.55973 1.08291 2.32336C1.22153 2.08698 1.42146 1.91671 1.68269 1.81254C2.52883 1.40069 3.41064 1.0958 4.32809 0.897888C5.24555 0.699971 6.17783 0.601013 7.12494 0.601013C8.34129 0.601013 9.52959 0.767284 10.6898 1.09983C11.8501 1.43235 12.9535 1.92313 13.9999 2.57217C15.0464 1.92313 16.1498 1.43235 17.31 1.09983C18.4703 0.767284 19.6586 0.601013 20.8749 0.601013C21.822 0.601013 22.7543 0.699971 23.6718 0.897888C24.5892 1.0958 25.471 1.40069 26.3172 1.81254C26.5784 1.91671 26.7783 2.08698 26.917 2.32336C27.0556 2.55973 27.1249 2.81253 27.1249 3.08176V16.6538C27.1249 17.149 26.9158 17.5276 26.4975 17.7896C26.0792 18.0516 25.6393 18.0801 25.1778 17.875C24.5031 17.5545 23.804 17.3117 23.0804 17.1466C22.3569 16.9815 21.6217 16.899 20.8749 16.899C19.8894 16.899 18.9266 17.0228 17.9867 17.2704C17.0468 17.518 16.1466 17.8854 15.286 18.3726C15.0969 18.4735 14.8961 18.5545 14.6838 18.6154C14.4715 18.6763 14.2435 18.7067 13.9999 18.7067Z" fill="black"/>
</svg>
