<svg width="22" height="15" viewBox="0 0 22 15" fill="none" xmlns="http://www.w3.org/2000/svg">
<path d="M12.9423 4.86146C12.9423 4.74993 12.982 4.63583 13.0615 4.51916C13.141 4.4025 13.2313 4.32237 13.3326 4.27879C13.8288 4.08005 14.3394 3.92941 14.8644 3.82686C15.3894 3.7243 15.9346 3.67301 16.4999 3.67301C16.8269 3.67301 17.1432 3.69224 17.449 3.73069C17.7547 3.76915 18.0628 3.82172 18.373 3.88839C18.491 3.9153 18.5929 3.9794 18.6788 4.08069C18.7647 4.18197 18.8076 4.29992 18.8076 4.43454C18.8076 4.66017 18.7368 4.82523 18.5951 4.92971C18.4535 5.0342 18.2698 5.05951 18.0442 5.00566C17.8044 4.95566 17.5554 4.91977 17.2971 4.89799C17.0387 4.87619 16.773 4.86529 16.4999 4.86529C16.0153 4.86529 15.5407 4.91176 15.0759 5.00471C14.6111 5.09766 14.1679 5.22362 13.7461 5.38259C13.5102 5.47362 13.3173 5.4685 13.1673 5.36721C13.0173 5.26593 12.9423 5.09735 12.9423 4.86146ZM12.9423 10.323C12.9423 10.2115 12.982 10.0958 13.0615 9.97589C13.141 9.85602 13.2313 9.77429 13.3326 9.73069C13.816 9.53197 14.3265 9.38294 14.8644 9.28359C15.4022 9.18422 15.9474 9.13454 16.4999 9.13454C16.8269 9.13454 17.1432 9.15377 17.449 9.19224C17.7547 9.23069 18.0628 9.28325 18.373 9.34991C18.491 9.37685 18.5929 9.44096 18.6788 9.54224C18.7647 9.64351 18.8076 9.76145 18.8076 9.89606C18.8076 10.1217 18.7368 10.2868 18.5951 10.3912C18.4535 10.4957 18.2698 10.521 18.0442 10.4672C17.8044 10.4172 17.5554 10.3813 17.2971 10.3595C17.0387 10.3377 16.773 10.3268 16.4999 10.3268C16.0217 10.3268 15.5519 10.3723 15.0903 10.4634C14.6288 10.5544 14.1871 10.6826 13.7653 10.848C13.5294 10.9454 13.3333 10.9429 13.1769 10.8403C13.0205 10.7377 12.9423 10.5653 12.9423 10.323ZM12.9423 7.59224C12.9423 7.48069 12.982 7.36498 13.0615 7.24511C13.141 7.12525 13.2313 7.04352 13.3326 6.99994C13.8288 6.80122 14.3394 6.65218 14.8644 6.55281C15.3894 6.45345 15.9346 6.40376 16.4999 6.40376C16.8269 6.40376 17.1432 6.423 17.449 6.46146C17.7547 6.49993 18.0628 6.5525 18.373 6.61916C18.491 6.64608 18.5929 6.71018 18.6788 6.81146C18.7647 6.91275 18.8076 7.03069 18.8076 7.16529C18.8076 7.39094 18.7368 7.556 18.5951 7.66049C18.4535 7.76497 18.2698 7.79029 18.0442 7.73644C17.8044 7.68644 17.5554 7.65054 17.2971 7.62874C17.0387 7.60696 16.773 7.59606 16.4999 7.59606C16.0217 7.59606 15.5519 7.64414 15.0903 7.74029C14.6288 7.83644 14.1871 7.96721 13.7653 8.13259C13.5294 8.23004 13.3333 8.22491 13.1769 8.11721C13.0205 8.00953 12.9423 7.83454 12.9423 7.59224ZM5.49995 12.0191C6.32817 12.0191 7.13394 12.1131 7.91727 12.3009C8.70061 12.4887 9.47818 12.7833 10.25 13.1845V3.35376C9.54741 2.89608 8.78715 2.55281 7.9692 2.32396C7.15125 2.09511 6.32817 1.98069 5.49995 1.98069C4.89995 1.98069 4.33938 2.0278 3.81823 2.12201C3.29708 2.21625 2.7615 2.37041 2.2115 2.58451C2.13457 2.61016 2.08008 2.64703 2.04803 2.69511C2.01597 2.7432 1.99995 2.79608 1.99995 2.85376V12.3114C1.99995 12.4012 2.032 12.4669 2.0961 12.5086C2.16022 12.5502 2.23074 12.555 2.30768 12.523C2.78203 12.3615 3.28266 12.2371 3.80957 12.1499C4.33649 12.0627 4.89995 12.0191 5.49995 12.0191ZM11.7499 13.1845C12.5217 12.7833 13.2993 12.4887 14.0826 12.3009C14.866 12.1131 15.6717 12.0191 16.4999 12.0191C17.0999 12.0191 17.6634 12.0627 18.1903 12.1499C18.7172 12.2371 19.2179 12.3615 19.6922 12.523C19.7692 12.555 19.8397 12.5502 19.9038 12.5086C19.9679 12.4669 20 12.4012 20 12.3114V2.85376C20 2.79608 19.9839 2.7448 19.9519 2.69991C19.9198 2.65503 19.8653 2.61656 19.7884 2.58451C19.2384 2.37041 18.7028 2.21625 18.1817 2.12201C17.6605 2.0278 17.0999 1.98069 16.4999 1.98069C15.6717 1.98069 14.8486 2.09511 14.0307 2.32396C13.2127 2.55281 12.4525 2.89608 11.7499 3.35376V13.1845ZM10.9999 14.9653C10.8051 14.9653 10.6227 14.9409 10.4529 14.8922C10.283 14.8435 10.1224 14.7787 9.97112 14.698C9.28266 14.3082 8.56246 14.0143 7.81053 13.8162C7.05861 13.6181 6.28842 13.5191 5.49995 13.5191C4.8897 13.5191 4.29035 13.5867 3.7019 13.722C3.11343 13.8572 2.54613 14.0563 1.99998 14.3191C1.64358 14.4832 1.30447 14.4572 0.982675 14.2412C0.660892 14.0252 0.5 13.7191 0.5 13.3229V2.46531C0.5 2.24993 0.555442 2.04769 0.666325 1.85859C0.777225 1.66949 0.937167 1.53327 1.14615 1.44994C1.82307 1.12045 2.52851 0.876546 3.26248 0.718213C3.99644 0.55988 4.74227 0.480713 5.49995 0.480713C6.47303 0.480713 7.42368 0.61373 8.35188 0.879763C9.28008 1.14578 10.1628 1.5384 10.9999 2.05764C11.8371 1.5384 12.7198 1.14578 13.648 0.879763C14.5762 0.61373 15.5269 0.480713 16.4999 0.480713C17.2576 0.480713 18.0035 0.55988 18.7374 0.718213C19.4714 0.876546 20.1768 1.12045 20.8538 1.44994C21.0627 1.53327 21.2227 1.66949 21.3336 1.85859C21.4445 2.04769 21.4999 2.24993 21.4999 2.46531V13.3229C21.4999 13.7191 21.3326 14.022 20.998 14.2316C20.6634 14.4412 20.3115 14.464 19.9422 14.2999C19.4025 14.0435 18.8432 13.8492 18.2643 13.7172C17.6855 13.5851 17.0974 13.5191 16.4999 13.5191C15.7115 13.5191 14.9413 13.6181 14.1894 13.8162C13.4374 14.0143 12.7172 14.3082 12.0288 14.698C11.8775 14.7787 11.7169 14.8435 11.5471 14.8922C11.3772 14.9409 11.1948 14.9653 10.9999 14.9653Z" fill="#337363"/>
</svg>
