<svg width="24" height="24" viewBox="0 0 24 24" fill="none" xmlns="http://www.w3.org/2000/svg">
<mask id="mask0_1624_1053" style="mask-type:alpha" maskUnits="userSpaceOnUse" x="0" y="0" width="24" height="24">
<rect width="24" height="24" fill="#D9D9D9"/>
</mask>
<g mask="url(#mask0_1624_1053)">
<path d="M12 11.6923C11.0375 11.6923 10.2135 11.3496 9.52812 10.6642C8.8427 9.97878 8.49999 9.15483 8.49999 8.19235C8.49999 7.22985 8.8427 6.4059 9.52812 5.72051C10.2135 5.03509 11.0375 4.69238 12 4.69238C12.9624 4.69238 13.7864 5.03509 14.4718 5.72051C15.1572 6.4059 15.4999 7.22985 15.4999 8.19235C15.4999 9.15483 15.1572 9.97878 14.4718 10.6642C13.7864 11.3496 12.9624 11.6923 12 11.6923ZM4.5 19.3077V17.0846C4.5 16.5949 4.63302 16.1414 4.89905 15.7241C5.16507 15.3068 5.52051 14.9859 5.96537 14.7616C6.95384 14.2769 7.95095 13.9135 8.95672 13.6712C9.96248 13.4289 10.9769 13.3077 12 13.3077C13.023 13.3077 14.0374 13.4289 15.0432 13.6712C16.049 13.9135 17.0461 14.2769 18.0345 14.7616C18.4794 14.9859 18.8349 15.3068 19.1009 15.7241C19.3669 16.1414 19.4999 16.5949 19.4999 17.0846V19.3077H4.5ZM5.99997 17.8077H17.9999V17.0846C17.9999 16.882 17.9413 16.6945 17.824 16.5221C17.7067 16.3497 17.5474 16.209 17.3461 16.1C16.4846 15.6756 15.6061 15.3542 14.7107 15.1356C13.8152 14.917 12.9117 14.8077 12 14.8077C11.0883 14.8077 10.1847 14.917 9.28926 15.1356C8.39383 15.3542 7.51535 15.6756 6.65382 16.1C6.45254 16.209 6.29325 16.3497 6.17595 16.5221C6.05863 16.6945 5.99997 16.882 5.99997 17.0846V17.8077ZM12 10.1923C12.55 10.1923 13.0208 9.99651 13.4125 9.60485C13.8041 9.21318 14 8.74235 14 8.19235C14 7.64235 13.8041 7.17152 13.4125 6.77985C13.0208 6.38819 12.55 6.19235 12 6.19235C11.45 6.19235 10.9791 6.38819 10.5875 6.77985C10.1958 7.17152 9.99996 7.64235 9.99996 8.19235C9.99996 8.74235 10.1958 9.21318 10.5875 9.60485C10.9791 9.99651 11.45 10.1923 12 10.1923Z" fill="#337363"/>
</g>
</svg>
