<svg width="24" height="28" viewBox="0 0 24 28" fill="none" xmlns="http://www.w3.org/2000/svg">
<circle cx="12" cy="12" r="12" fill="white"/>
<g filter="url(#filter0_d_1822_9567)">
<mask id="mask0_1822_9567" style="mask-type:alpha" maskUnits="userSpaceOnUse" x="1" y="1" width="22" height="22">
<rect x="1.7168" y="1.71484" width="20.5714" height="20.5714" fill="#D9D9D9"/>
</mask>
<g mask="url(#mask0_1822_9567)">
<path d="M9.85826 15.8573L15.8583 12.0001L9.85826 8.143V15.8573ZM12.0011 20.5716C10.8154 20.5716 9.70112 20.3464 8.65826 19.8961C7.6154 19.4464 6.70826 18.8359 5.93683 18.0644C5.1654 17.293 4.55483 16.3859 4.10512 15.343C3.65483 14.3001 3.42969 13.1859 3.42969 12.0001C3.42969 10.8144 3.65483 9.70014 4.10512 8.65728C4.55483 7.61443 5.1654 6.70728 5.93683 5.93585C6.70826 5.16443 7.6154 4.55357 8.65826 4.10328C9.70112 3.65357 10.8154 3.42871 12.0011 3.42871C13.1868 3.42871 14.3011 3.65357 15.344 4.10328C16.3868 4.55357 17.294 5.16443 18.0654 5.93585C18.8368 6.70728 19.4474 7.61443 19.8971 8.65728C20.3474 9.70014 20.5725 10.8144 20.5725 12.0001C20.5725 13.1859 20.3474 14.3001 19.8971 15.343C19.4474 16.3859 18.8368 17.293 18.0654 18.0644C17.294 18.8359 16.3868 19.4464 15.344 19.8961C14.3011 20.3464 13.1868 20.5716 12.0011 20.5716ZM12.0011 18.8573C13.9154 18.8573 15.5368 18.193 16.8654 16.8644C18.194 15.5359 18.8583 13.9144 18.8583 12.0001C18.8583 10.0859 18.194 8.46442 16.8654 7.13585C15.5368 5.80728 13.9154 5.143 12.0011 5.143C10.0868 5.143 8.4654 5.80728 7.13683 7.13585C5.80826 8.46442 5.14397 10.0859 5.14397 12.0001C5.14397 13.9144 5.80826 15.5359 7.13683 16.8644C8.4654 18.193 10.0868 18.8573 12.0011 18.8573Z" fill="#44A08D"/>
</g>
</g>
<defs>
<filter id="filter0_d_1822_9567" x="0.0011158" y="3.42871" width="23.9997" height="24.0002" filterUnits="userSpaceOnUse" color-interpolation-filters="sRGB">
<feFlood flood-opacity="0" result="BackgroundImageFix"/>
<feColorMatrix in="SourceAlpha" type="matrix" values="0 0 0 0 0 0 0 0 0 0 0 0 0 0 0 0 0 0 127 0" result="hardAlpha"/>
<feOffset dy="3.42857"/>
<feGaussianBlur stdDeviation="1.71429"/>
<feComposite in2="hardAlpha" operator="out"/>
<feColorMatrix type="matrix" values="0 0 0 0 0 0 0 0 0 0 0 0 0 0 0 0 0 0 0.25 0"/>
<feBlend mode="normal" in2="BackgroundImageFix" result="effect1_dropShadow_1822_9567"/>
<feBlend mode="normal" in="SourceGraphic" in2="effect1_dropShadow_1822_9567" result="shape"/>
</filter>
</defs>
</svg>
