<svg width="36" height="36" viewBox="0 0 36 36" fill="none" xmlns="http://www.w3.org/2000/svg">
<g filter="url(#filter0_d_1551_9375)">
<circle cx="18" cy="14" r="14" fill="white"/>
</g>
<g filter="url(#filter1_d_1551_9375)">
<mask id="mask0_1551_9375" style="mask-type:alpha" maskUnits="userSpaceOnUse" x="6" y="2" width="24" height="24">
<rect x="6" y="2" width="24" height="24" fill="#D9D9D9"/>
</mask>
<g mask="url(#mask0_1551_9375)">
<path d="M15.5 18.5L22.5 14L15.5 9.5V18.5ZM18 24C16.6167 24 15.3167 23.7373 14.1 23.212C12.8833 22.6873 11.825 21.975 10.925 21.075C10.025 20.175 9.31267 19.1167 8.788 17.9C8.26267 16.6833 8 15.3833 8 14C8 12.6167 8.26267 11.3167 8.788 10.1C9.31267 8.88333 10.025 7.825 10.925 6.925C11.825 6.025 12.8833 5.31233 14.1 4.787C15.3167 4.26233 16.6167 4 18 4C19.3833 4 20.6833 4.26233 21.9 4.787C23.1167 5.31233 24.175 6.025 25.075 6.925C25.975 7.825 26.6873 8.88333 27.212 10.1C27.7373 11.3167 28 12.6167 28 14C28 15.3833 27.7373 16.6833 27.212 17.9C26.6873 19.1167 25.975 20.175 25.075 21.075C24.175 21.975 23.1167 22.6873 21.9 23.212C20.6833 23.7373 19.3833 24 18 24ZM18 22C20.2333 22 22.125 21.225 23.675 19.675C25.225 18.125 26 16.2333 26 14C26 11.7667 25.225 9.875 23.675 8.325C22.125 6.775 20.2333 6 18 6C15.7667 6 13.875 6.775 12.325 8.325C10.775 9.875 10 11.7667 10 14C10 16.2333 10.775 18.125 12.325 19.675C13.875 21.225 15.7667 22 18 22Z" fill="#1C1B1F" fill-opacity="0.5"/>
</g>
</g>
<defs>
<filter id="filter0_d_1551_9375" x="0" y="0" width="36" height="36" filterUnits="userSpaceOnUse" color-interpolation-filters="sRGB">
<feFlood flood-opacity="0" result="BackgroundImageFix"/>
<feColorMatrix in="SourceAlpha" type="matrix" values="0 0 0 0 0 0 0 0 0 0 0 0 0 0 0 0 0 0 127 0" result="hardAlpha"/>
<feOffset dy="4"/>
<feGaussianBlur stdDeviation="2"/>
<feComposite in2="hardAlpha" operator="out"/>
<feColorMatrix type="matrix" values="0 0 0 0 0 0 0 0 0 0 0 0 0 0 0 0 0 0 0.25 0"/>
<feBlend mode="normal" in2="BackgroundImageFix" result="effect1_dropShadow_1551_9375"/>
<feBlend mode="normal" in="SourceGraphic" in2="effect1_dropShadow_1551_9375" result="shape"/>
</filter>
<filter id="filter1_d_1551_9375" x="4" y="4" width="28" height="28" filterUnits="userSpaceOnUse" color-interpolation-filters="sRGB">
<feFlood flood-opacity="0" result="BackgroundImageFix"/>
<feColorMatrix in="SourceAlpha" type="matrix" values="0 0 0 0 0 0 0 0 0 0 0 0 0 0 0 0 0 0 127 0" result="hardAlpha"/>
<feOffset dy="4"/>
<feGaussianBlur stdDeviation="2"/>
<feComposite in2="hardAlpha" operator="out"/>
<feColorMatrix type="matrix" values="0 0 0 0 0 0 0 0 0 0 0 0 0 0 0 0 0 0 0.25 0"/>
<feBlend mode="normal" in2="BackgroundImageFix" result="effect1_dropShadow_1551_9375"/>
<feBlend mode="normal" in="SourceGraphic" in2="effect1_dropShadow_1551_9375" result="shape"/>
</filter>
</defs>
</svg>
