<svg width="24" height="24" viewBox="0 0 24 24" fill="none" xmlns="http://www.w3.org/2000/svg">
<mask id="mask0_1624_1087" style="mask-type:alpha" maskUnits="userSpaceOnUse" x="0" y="-1" width="24" height="25">
<rect y="-0.000244141" width="24" height="24" fill="#D9D9D9"/>
</mask>
<g mask="url(#mask0_1624_1087)">
<path d="M12.0003 12.2112C12.2129 12.2112 12.391 12.1393 12.5346 11.9956C12.6781 11.8518 12.7499 11.6737 12.7499 11.4612V8.13428C12.7499 7.92179 12.678 7.74366 12.5342 7.59991C12.3904 7.45618 12.2122 7.38431 11.9996 7.38431C11.787 7.38431 11.6089 7.45618 11.4654 7.59991C11.3218 7.74366 11.25 7.92179 11.25 8.13428V11.4612C11.25 11.6737 11.3219 11.8518 11.4657 11.9956C11.6095 12.1393 11.7877 12.2112 12.0003 12.2112ZM12 15.615C12.2288 15.615 12.4206 15.5376 12.5754 15.3828C12.7302 15.228 12.8076 15.0362 12.8076 14.8073C12.8076 14.5785 12.7302 14.3867 12.5754 14.2318C12.4206 14.077 12.2288 13.9996 12 13.9996C11.7711 13.9996 11.5793 14.077 11.4245 14.2318C11.2697 14.3867 11.1923 14.5785 11.1923 14.8073C11.1923 15.0362 11.2697 15.228 11.4245 15.3828C11.5793 15.5376 11.7711 15.615 12 15.615ZM12 21.4054H11.7637C11.6895 21.4054 11.6228 21.3887 11.5634 21.3554C9.52114 20.6784 7.83333 19.3852 6.5 17.4756C5.16667 15.566 4.5 13.4423 4.5 11.1045V6.59584C4.5 6.21599 4.60922 5.87412 4.82765 5.57024C5.04608 5.26636 5.32853 5.04605 5.675 4.90932L11.3673 2.78432C11.5814 2.7074 11.7923 2.66895 12 2.66895C12.2076 2.66895 12.4185 2.7074 12.6326 2.78432L18.3249 4.90932C18.6714 5.04605 18.9538 5.26636 19.1723 5.57024C19.3907 5.87412 19.4999 6.21599 19.4999 6.59584V11.1045C19.4999 13.4423 18.8333 15.566 17.4999 17.4756C16.1666 19.3852 14.4793 20.6786 12.438 21.3558C12.3601 21.3888 12.2141 21.4054 12 21.4054ZM12 19.8996C13.7333 19.3496 15.1666 18.2496 16.3 16.5996C17.4333 14.9496 17.9999 13.1163 17.9999 11.0997V6.52851C17.9999 6.47723 17.9871 6.43235 17.9615 6.39389C17.9358 6.35542 17.9006 6.32978 17.8557 6.31696L12.1442 4.19199C12.0929 4.17276 12.0448 4.16314 12 4.16314C11.9551 4.16314 11.907 4.17276 11.8557 4.19199L6.14422 6.31696C6.09934 6.32978 6.06408 6.35542 6.03845 6.39389C6.0128 6.43235 5.99997 6.47723 5.99997 6.52851V11.0997C5.99997 13.1163 6.56664 14.9496 7.69997 16.5996C8.8333 18.2496 10.2666 19.3496 12 19.8996Z" fill="#337363"/>
</g>
</svg>
