<svg width="16" height="16" viewBox="0 0 16 16" fill="none" xmlns="http://www.w3.org/2000/svg">
<path d="M7.99996 7.69229C7.03748 7.69229 6.21353 7.34959 5.52812 6.6642C4.8427 5.97878 4.49999 5.15483 4.49999 4.19235C4.49999 3.22985 4.8427 2.4059 5.52812 1.72051C6.21353 1.03509 7.03748 0.692383 7.99996 0.692383C8.96244 0.692383 9.78639 1.03509 10.4718 1.72051C11.1572 2.4059 11.4999 3.22985 11.4999 4.19235C11.4999 5.15483 11.1572 5.97878 10.4718 6.6642C9.78639 7.34959 8.96244 7.69229 7.99996 7.69229ZM0.5 15.3077V13.0846C0.5 12.5949 0.633016 12.1414 0.899049 11.7241C1.16507 11.3068 1.52051 10.9859 1.96537 10.7616C2.95384 10.2769 3.95095 9.91349 4.95672 9.67119C5.96248 9.42889 6.97689 9.30774 7.99996 9.30774C9.02302 9.30774 10.0374 9.42889 11.0432 9.67119C12.049 9.91349 13.0461 10.2769 14.0345 10.7616C14.4794 10.9859 14.8349 11.3068 15.1009 11.7241C15.3669 12.1414 15.4999 12.5949 15.4999 13.0846V15.3077H0.5ZM1.99997 13.8077H13.9999V13.0846C13.9999 12.882 13.9413 12.6945 13.824 12.5221C13.7067 12.3497 13.5474 12.209 13.3461 12.1C12.4846 11.6756 11.6061 11.3542 10.7107 11.1356C9.81522 10.917 8.91166 10.8077 7.99996 10.8077C7.08826 10.8077 6.1847 10.917 5.28927 11.1356C4.39383 11.3542 3.51535 11.6756 2.65382 12.1C2.45254 12.209 2.29325 12.3497 2.17595 12.5221C2.05863 12.6945 1.99997 12.882 1.99997 13.0846V13.8077ZM7.99996 6.19235C8.54996 6.19235 9.02079 5.99651 9.41246 5.60485C9.80412 5.21318 9.99996 4.74235 9.99996 4.19235C9.99996 3.64235 9.80412 3.17152 9.41246 2.77985C9.02079 2.38819 8.54996 2.19235 7.99996 2.19235C7.44996 2.19235 6.97913 2.38819 6.58746 2.77985C6.1958 3.17152 5.99996 3.64235 5.99996 4.19235C5.99996 4.74235 6.1958 5.21318 6.58746 5.60485C6.97913 5.99651 7.44996 6.19235 7.99996 6.19235Z" fill="#337363"/>
</svg>
