<svg width="30" height="30" viewBox="0 0 30 30" fill="none" xmlns="http://www.w3.org/2000/svg">
<mask id="mask0_929_3211" style="mask-type:alpha" maskUnits="userSpaceOnUse" x="0" y="0" width="30" height="30">
<rect width="30" height="30" fill="#D9D9D9"/>
</mask>
<g mask="url(#mask0_929_3211)">
<path d="M15 14.6154C13.7969 14.6154 12.767 14.187 11.9102 13.3303C11.0534 12.4735 10.625 11.4436 10.625 10.2404C10.625 9.03732 11.0534 8.00738 11.9102 7.15063C12.767 6.29386 13.7969 5.86548 15 5.86548C16.2031 5.86548 17.233 6.29386 18.0898 7.15063C18.9466 8.00738 19.375 9.03732 19.375 10.2404C19.375 11.4436 18.9466 12.4735 18.0898 13.3303C17.233 14.187 16.2031 14.6154 15 14.6154ZM5.62503 24.1346V21.3558C5.62503 20.7436 5.7913 20.1767 6.12384 19.6551C6.45636 19.1335 6.90067 18.7324 7.45675 18.452C8.69233 17.8462 9.93873 17.3919 11.1959 17.089C12.4531 16.7861 13.7212 16.6347 15 16.6347C16.2788 16.6347 17.5469 16.7861 18.8041 17.089C20.0613 17.3919 21.3077 17.8462 22.5432 18.452C23.0993 18.7324 23.5436 19.1335 23.8762 19.6551C24.2087 20.1767 24.375 20.7436 24.375 21.3558V24.1346H5.62503ZM7.5 22.2596H22.5V21.3558C22.5 21.1026 22.4267 20.8682 22.28 20.6527C22.1334 20.4371 21.9343 20.2612 21.6827 20.125C20.6058 19.5946 19.5077 19.1927 18.3884 18.9195C17.2691 18.6462 16.1396 18.5096 15 18.5096C13.8604 18.5096 12.7309 18.6462 11.6116 18.9195C10.4923 19.1927 9.39423 19.5946 8.31731 20.125C8.06571 20.2612 7.86659 20.4371 7.71997 20.6527C7.57332 20.8682 7.5 21.1026 7.5 21.3558V22.2596ZM15 12.7404C15.6875 12.7404 16.276 12.4957 16.7656 12.0061C17.2552 11.5165 17.5 10.9279 17.5 10.2404C17.5 9.55295 17.2552 8.96441 16.7656 8.47482C16.276 7.98524 15.6875 7.74045 15 7.74045C14.3125 7.74045 13.724 7.98524 13.2344 8.47482C12.7448 8.96441 12.5 9.55295 12.5 10.2404C12.5 10.9279 12.7448 11.5165 13.2344 12.0061C13.724 12.4957 14.3125 12.7404 15 12.7404Z" fill="#49454F"/>
</g>
</svg>
