<svg width="18" height="18" viewBox="0 0 18 18" fill="none" xmlns="http://www.w3.org/2000/svg">
<path d="M1.99997 7.99998C1.59101 7.99998 1.23877 7.85223 0.943275 7.55673C0.647758 7.26121 0.5 6.90897 0.5 6.5V1.99997C0.5 1.59101 0.647758 1.23877 0.943275 0.943275C1.23877 0.647758 1.59101 0.5 1.99997 0.5H6.5C6.90897 0.5 7.26121 0.647758 7.55673 0.943275C7.85222 1.23877 7.99998 1.59101 7.99998 1.99997V6.5C7.99998 6.90897 7.85222 7.26121 7.55673 7.55673C7.26121 7.85223 6.90897 7.99998 6.5 7.99998H1.99997ZM1.99997 6.5H6.5V1.99997H1.99997V6.5ZM1.99997 17.5C1.59101 17.5 1.23877 17.3522 0.943275 17.0567C0.647758 16.7612 0.5 16.4089 0.5 16V11.5C0.5 11.091 0.647758 10.7387 0.943275 10.4432C1.23877 10.1477 1.59101 9.99998 1.99997 9.99998H6.5C6.90897 9.99998 7.26121 10.1477 7.55673 10.4432C7.85222 10.7387 7.99998 11.091 7.99998 11.5V16C7.99998 16.4089 7.85222 16.7612 7.55673 17.0567C7.26121 17.3522 6.90897 17.5 6.5 17.5H1.99997ZM1.99997 16H6.5V11.5H1.99997V16ZM11.5 7.99998C11.091 7.99998 10.7387 7.85223 10.4432 7.55673C10.1477 7.26121 9.99998 6.90897 9.99998 6.5V1.99997C9.99998 1.59101 10.1477 1.23877 10.4432 0.943275C10.7387 0.647758 11.091 0.5 11.5 0.5H16C16.4089 0.5 16.7612 0.647758 17.0567 0.943275C17.3522 1.23877 17.5 1.59101 17.5 1.99997V6.5C17.5 6.90897 17.3522 7.26121 17.0567 7.55673C16.7612 7.85223 16.4089 7.99998 16 7.99998H11.5ZM11.5 6.5H16V1.99997H11.5V6.5ZM16.0865 17.5C15.9596 17.5 15.8509 17.4548 15.7605 17.3644C15.6701 17.274 15.625 17.1653 15.625 17.0384V16.0865C15.625 15.9596 15.6701 15.8509 15.7605 15.7605C15.8509 15.6701 15.9596 15.625 16.0865 15.625H17.0384C17.1653 15.625 17.274 15.6701 17.3644 15.7605C17.4548 15.8509 17.5 15.9596 17.5 16.0865V17.0384C17.5 17.1653 17.4548 17.274 17.3644 17.3644C17.274 17.4548 17.1653 17.5 17.0384 17.5H16.0865ZM10.4615 11.875C10.3346 11.875 10.2259 11.8298 10.1356 11.7394C10.0452 11.649 9.99998 11.5404 9.99998 11.4134V10.4615C9.99998 10.3346 10.0452 10.2259 10.1356 10.1356C10.2259 10.0452 10.3346 9.99998 10.4615 9.99998H11.4134C11.5404 9.99998 11.649 10.0452 11.7394 10.1356C11.8298 10.2259 11.875 10.3346 11.875 10.4615V11.4134C11.875 11.5404 11.8298 11.649 11.7394 11.7394C11.649 11.8298 11.5404 11.875 11.4134 11.875H10.4615ZM12.3365 13.75C12.2096 13.75 12.1009 13.7048 12.0106 13.6144C11.9202 13.524 11.875 13.4153 11.875 13.2884V12.3365C11.875 12.2096 11.9202 12.1009 12.0106 12.0106C12.1009 11.9202 12.2096 11.875 12.3365 11.875H13.2884C13.4153 11.875 13.524 11.9202 13.6144 12.0106C13.7048 12.1009 13.75 12.2096 13.75 12.3365V13.2884C13.75 13.4153 13.7048 13.524 13.6144 13.6144C13.524 13.7048 13.4153 13.75 13.2884 13.75H12.3365ZM10.4615 15.625C10.3346 15.625 10.2259 15.5798 10.1356 15.4894C10.0452 15.399 9.99998 15.2903 9.99998 15.1634V14.2115C9.99998 14.0846 10.0452 13.9759 10.1356 13.8855C10.2259 13.7951 10.3346 13.75 10.4615 13.75H11.4134C11.5404 13.75 11.649 13.7951 11.7394 13.8855C11.8298 13.9759 11.875 14.0846 11.875 14.2115V15.1634C11.875 15.2903 11.8298 15.399 11.7394 15.4894C11.649 15.5798 11.5404 15.625 11.4134 15.625H10.4615ZM12.3365 17.5C12.2096 17.5 12.1009 17.4548 12.0106 17.3644C11.9202 17.274 11.875 17.1653 11.875 17.0384V16.0865C11.875 15.9596 11.9202 15.8509 12.0106 15.7605C12.1009 15.6701 12.2096 15.625 12.3365 15.625H13.2884C13.4153 15.625 13.524 15.6701 13.6144 15.7605C13.7048 15.8509 13.75 15.9596 13.75 16.0865V17.0384C13.75 17.1653 13.7048 17.274 13.6144 17.3644C13.524 17.4548 13.4153 17.5 13.2884 17.5H12.3365ZM14.2115 15.625C14.0846 15.625 13.9759 15.5798 13.8855 15.4894C13.7951 15.399 13.75 15.2903 13.75 15.1634V14.2115C13.75 14.0846 13.7951 13.9759 13.8855 13.8855C13.9759 13.7951 14.0846 13.75 14.2115 13.75H15.1634C15.2903 13.75 15.399 13.7951 15.4894 13.8855C15.5798 13.9759 15.625 14.0846 15.625 14.2115V15.1634C15.625 15.2903 15.5798 15.399 15.4894 15.4894C15.399 15.5798 15.2903 15.625 15.1634 15.625H14.2115ZM14.2115 11.875C14.0846 11.875 13.9759 11.8298 13.8855 11.7394C13.7951 11.649 13.75 11.5404 13.75 11.4134V10.4615C13.75 10.3346 13.7951 10.2259 13.8855 10.1356C13.9759 10.0452 14.0846 9.99998 14.2115 9.99998H15.1634C15.2903 9.99998 15.399 10.0452 15.4894 10.1356C15.5798 10.2259 15.625 10.3346 15.625 10.4615V11.4134C15.625 11.5404 15.5798 11.649 15.4894 11.7394C15.399 11.8298 15.2903 11.875 15.1634 11.875H14.2115ZM16.0865 13.75C15.9596 13.75 15.8509 13.7048 15.7605 13.6144C15.6701 13.524 15.625 13.4153 15.625 13.2884V12.3365C15.625 12.2096 15.6701 12.1009 15.7605 12.0106C15.8509 11.9202 15.9596 11.875 16.0865 11.875H17.0384C17.1653 11.875 17.274 11.9202 17.3644 12.0106C17.4548 12.1009 17.5 12.2096 17.5 12.3365V13.2884C17.5 13.4153 17.4548 13.524 17.3644 13.6144C17.274 13.7048 17.1653 13.75 17.0384 13.75H16.0865Z" fill="#337363"/>
</svg>
