<svg width="30" height="30" viewBox="0 0 30 30" fill="none" xmlns="http://www.w3.org/2000/svg">
<mask id="mask0_929_3202" style="mask-type:alpha" maskUnits="userSpaceOnUse" x="0" y="0" width="30" height="30">
<rect width="30" height="30" fill="#D9D9D9"/>
</mask>
<g mask="url(#mask0_929_3202)">
<path d="M6.25 13.75C5.73879 13.75 5.2985 13.5653 4.92912 13.1959C4.55973 12.8265 4.37503 12.3862 4.37503 11.875V6.24997C4.37503 5.73876 4.55973 5.29847 4.92912 4.92909C5.2985 4.5597 5.73879 4.375 6.25 4.375H11.875C12.3862 4.375 12.8265 4.5597 13.1959 4.92909C13.5653 5.29847 13.75 5.73876 13.75 6.24997V11.875C13.75 12.3862 13.5653 12.8265 13.1959 13.1959C12.8265 13.5653 12.3862 13.75 11.875 13.75H6.25ZM6.25 11.875H11.875V6.24997H6.25V11.875ZM6.25 25.6249C5.73879 25.6249 5.2985 25.4402 4.92912 25.0708C4.55973 24.7015 4.37503 24.2612 4.37503 23.75V18.1249C4.37503 17.6137 4.55973 17.1734 4.92912 16.804C5.2985 16.4347 5.73879 16.25 6.25 16.25H11.875C12.3862 16.25 12.8265 16.4347 13.1959 16.804C13.5653 17.1734 13.75 17.6137 13.75 18.1249V23.75C13.75 24.2612 13.5653 24.7015 13.1959 25.0708C12.8265 25.4402 12.3862 25.6249 11.875 25.6249H6.25ZM6.25 23.75H11.875V18.1249H6.25V23.75ZM18.125 13.75C17.6138 13.75 17.1735 13.5653 16.8041 13.1959C16.4347 12.8265 16.25 12.3862 16.25 11.875V6.24997C16.25 5.73876 16.4347 5.29847 16.8041 4.92909C17.1735 4.5597 17.6138 4.375 18.125 4.375H23.75C24.2612 4.375 24.7015 4.5597 25.0709 4.92909C25.4403 5.29847 25.625 5.73876 25.625 6.24997V11.875C25.625 12.3862 25.4403 12.8265 25.0709 13.1959C24.7015 13.5653 24.2612 13.75 23.75 13.75H18.125ZM18.125 11.875H23.75V6.24997H18.125V11.875ZM23.8581 25.6249C23.6995 25.6249 23.5637 25.5684 23.4507 25.4555C23.3377 25.3425 23.2812 25.2066 23.2812 25.048V23.8581C23.2812 23.6994 23.3377 23.5636 23.4507 23.4507C23.5637 23.3377 23.6995 23.2812 23.8581 23.2812H25.048C25.2067 23.2812 25.3425 23.3377 25.4555 23.4507C25.5685 23.5636 25.625 23.6994 25.625 23.8581V25.048C25.625 25.2066 25.5685 25.3425 25.4555 25.4555C25.3425 25.5684 25.2067 25.6249 25.048 25.6249H23.8581ZM16.8269 18.5937C16.6683 18.5937 16.5324 18.5372 16.4195 18.4243C16.3065 18.3113 16.25 18.1754 16.25 18.0168V16.8269C16.25 16.6682 16.3065 16.5324 16.4195 16.4194C16.5324 16.3065 16.6683 16.25 16.8269 16.25H18.0168C18.1755 16.25 18.3113 16.3065 18.4243 16.4194C18.5373 16.5324 18.5938 16.6682 18.5938 16.8269V18.0168C18.5938 18.1754 18.5373 18.3113 18.4243 18.4243C18.3113 18.5372 18.1755 18.5937 18.0168 18.5937H16.8269ZM19.1707 20.9374C19.012 20.9374 18.8762 20.8809 18.7632 20.768C18.6502 20.655 18.5938 20.5192 18.5938 20.3605V19.1706C18.5938 19.012 18.6502 18.8762 18.7632 18.7632C18.8762 18.6502 19.012 18.5937 19.1707 18.5937H20.3606C20.5192 18.5937 20.655 18.6502 20.768 18.7632C20.881 18.8762 20.9375 19.012 20.9375 19.1706V20.3605C20.9375 20.5192 20.881 20.655 20.768 20.768C20.655 20.8809 20.5192 20.9374 20.3606 20.9374H19.1707ZM16.8269 23.2812C16.6683 23.2812 16.5324 23.2247 16.4195 23.1117C16.3065 22.9987 16.25 22.8629 16.25 22.7043V21.5144C16.25 21.3557 16.3065 21.2199 16.4195 21.1069C16.5324 20.9939 16.6683 20.9374 16.8269 20.9374H18.0168C18.1755 20.9374 18.3113 20.9939 18.4243 21.1069C18.5373 21.2199 18.5938 21.3557 18.5938 21.5144V22.7043C18.5938 22.8629 18.5373 22.9987 18.4243 23.1117C18.3113 23.2247 18.1755 23.2812 18.0168 23.2812H16.8269ZM19.1707 25.6249C19.012 25.6249 18.8762 25.5684 18.7632 25.4555C18.6502 25.3425 18.5938 25.2066 18.5938 25.048V23.8581C18.5938 23.6994 18.6502 23.5636 18.7632 23.4507C18.8762 23.3377 19.012 23.2812 19.1707 23.2812H20.3606C20.5192 23.2812 20.655 23.3377 20.768 23.4507C20.881 23.5636 20.9375 23.6994 20.9375 23.8581V25.048C20.9375 25.2066 20.881 25.3425 20.768 25.4555C20.655 25.5684 20.5192 25.6249 20.3606 25.6249H19.1707ZM21.5144 23.2812C21.3557 23.2812 21.2199 23.2247 21.1069 23.1117C20.994 22.9987 20.9375 22.8629 20.9375 22.7043V21.5144C20.9375 21.3557 20.994 21.2199 21.1069 21.1069C21.2199 20.9939 21.3557 20.9374 21.5144 20.9374H22.7043C22.863 20.9374 22.9988 20.9939 23.1118 21.1069C23.2247 21.2199 23.2812 21.3557 23.2812 21.5144V22.7043C23.2812 22.8629 23.2247 22.9987 23.1118 23.1117C22.9988 23.2247 22.863 23.2812 22.7043 23.2812H21.5144ZM21.5144 18.5937C21.3557 18.5937 21.2199 18.5372 21.1069 18.4243C20.994 18.3113 20.9375 18.1754 20.9375 18.0168V16.8269C20.9375 16.6682 20.994 16.5324 21.1069 16.4194C21.2199 16.3065 21.3557 16.25 21.5144 16.25H22.7043C22.863 16.25 22.9988 16.3065 23.1118 16.4194C23.2247 16.5324 23.2812 16.6682 23.2812 16.8269V18.0168C23.2812 18.1754 23.2247 18.3113 23.1118 18.4243C22.9988 18.5372 22.863 18.5937 22.7043 18.5937H21.5144ZM23.8581 20.9374C23.6995 20.9374 23.5637 20.8809 23.4507 20.768C23.3377 20.655 23.2812 20.5192 23.2812 20.3605V19.1706C23.2812 19.012 23.3377 18.8762 23.4507 18.7632C23.5637 18.6502 23.6995 18.5937 23.8581 18.5937H25.048C25.2067 18.5937 25.3425 18.6502 25.4555 18.7632C25.5685 18.8762 25.625 19.012 25.625 19.1706V20.3605C25.625 20.5192 25.5685 20.655 25.4555 20.768C25.3425 20.8809 25.2067 20.9374 25.048 20.9374H23.8581Z" fill="#49454F"/>
</g>
</svg>
