<svg width="30" height="30" viewBox="0 0 30 30" fill="none" xmlns="http://www.w3.org/2000/svg">
<mask id="mask0_929_3217" style="mask-type:alpha" maskUnits="userSpaceOnUse" x="0" y="0" width="30" height="30">
<rect width="30" height="30" fill="#D9D9D9"/>
</mask>
<g mask="url(#mask0_929_3217)">
<path d="M16.8872 26.8749H13.1012C12.8208 26.8749 12.578 26.7808 12.3728 26.5925C12.1677 26.4042 12.0443 26.1698 12.0026 25.8893L11.6397 23.0673C11.3047 22.9551 10.9614 22.798 10.6096 22.5961C10.2578 22.3942 9.94333 22.1778 9.66608 21.947L7.05552 23.048C6.7879 23.1522 6.52227 23.1626 6.25865 23.0793C5.99502 22.9959 5.78789 22.8309 5.63724 22.5841L3.75749 19.3101C3.60684 19.0633 3.56077 18.7997 3.61927 18.5192C3.67775 18.2388 3.81997 18.0128 4.04593 17.8413L6.30555 16.1322C6.2767 15.9463 6.25626 15.7596 6.24424 15.5721C6.23222 15.3846 6.22621 15.1979 6.22621 15.012C6.22621 14.8341 6.23222 14.6534 6.24424 14.4699C6.25626 14.2864 6.2767 14.0857 6.30555 13.8678L4.04593 12.1586C3.81997 11.9871 3.67775 11.7612 3.61927 11.4807C3.56077 11.2003 3.60684 10.9367 3.75749 10.6899L5.63724 7.43994C5.77507 7.18031 5.977 7.01204 6.24302 6.93512C6.50904 6.85821 6.77586 6.87183 7.04349 6.976L9.65405 8.06494C9.95534 7.82615 10.2771 7.60779 10.6192 7.40988C10.9614 7.21194 11.2975 7.05287 11.6276 6.93269L12.0026 4.11059C12.0443 3.83014 12.1677 3.59576 12.3728 3.40747C12.578 3.21916 12.8208 3.125 13.1012 3.125H16.8872C17.1676 3.125 17.4124 3.21916 17.6216 3.40747C17.8307 3.59576 17.9561 3.83014 17.9978 4.11059L18.3607 6.94472C18.7357 7.08093 19.0751 7.23998 19.3788 7.42188C19.6825 7.60377 19.989 7.81813 20.2983 8.06494L22.9569 6.976C23.2246 6.87183 23.4882 6.85941 23.7478 6.93872C24.0074 7.01805 24.2125 7.18111 24.3632 7.42791L26.2429 10.6899C26.3936 10.9367 26.4396 11.2003 26.3811 11.4807C26.3227 11.7612 26.1804 11.9871 25.9545 12.1586L23.6468 13.9038C23.6917 14.1057 23.7161 14.2944 23.7201 14.4699C23.7241 14.6454 23.7261 14.8221 23.7261 15C23.7261 15.1698 23.7221 15.3425 23.7141 15.518C23.7061 15.6935 23.6772 15.8942 23.6276 16.1202L25.9112 17.8413C26.1452 18.0048 26.2894 18.2288 26.3439 18.5132C26.3984 18.7976 26.3503 19.0633 26.1997 19.3101L24.3199 22.5648C24.1692 22.8116 23.9589 22.9779 23.6889 23.0636C23.4189 23.1494 23.15 23.1401 22.8824 23.036L20.2983 21.935C19.989 22.1818 19.6733 22.4002 19.3511 22.5901C19.029 22.78 18.6989 22.935 18.3607 23.0552L17.9978 25.8893C17.9561 26.1698 17.8307 26.4042 17.6216 26.5925C17.4124 26.7808 17.1676 26.8749 16.8872 26.8749ZM15.0146 18.7499C16.0547 18.7499 16.9397 18.385 17.6696 17.655C18.3996 16.925 18.7646 16.04 18.7646 15C18.7646 13.9599 18.3996 13.0749 17.6696 12.3449C16.9397 11.615 16.0547 11.25 15.0146 11.25C13.9618 11.25 13.0736 11.615 12.35 12.3449C11.6264 13.0749 11.2647 13.9599 11.2647 15C11.2647 16.04 11.6264 16.925 12.35 17.655C13.0736 18.385 13.9618 18.7499 15.0146 18.7499ZM15.0146 16.875C14.4938 16.875 14.0511 16.6927 13.6865 16.3281C13.3219 15.9635 13.1396 15.5208 13.1396 15C13.1396 14.4791 13.3219 14.0364 13.6865 13.6718C14.0511 13.3073 14.4938 13.125 15.0146 13.125C15.5354 13.125 15.9782 13.3073 16.3427 13.6718C16.7073 14.0364 16.8896 14.4791 16.8896 15C16.8896 15.5208 16.7073 15.9635 16.3427 16.3281C15.9782 16.6927 15.5354 16.875 15.0146 16.875ZM13.7502 25H16.2069L16.6565 21.6514C17.2943 21.4847 17.8772 21.248 18.4052 20.9411C18.9333 20.6342 19.4425 20.2396 19.9329 19.7572L23.0387 21.0625L24.2694 18.9375L21.5579 16.8942C21.6621 16.5705 21.733 16.2532 21.7706 15.9423C21.8083 15.6314 21.8271 15.3173 21.8271 15C21.8271 14.6747 21.8083 14.3606 21.7706 14.0577C21.733 13.7548 21.6621 13.4455 21.5579 13.1298L24.2935 11.0625L23.0627 8.93747L19.9209 10.262C19.5026 9.81488 19.0014 9.41984 18.4173 9.07691C17.8331 8.73395 17.2422 8.49116 16.6444 8.34853L16.2502 4.99997H13.7694L13.356 8.3365C12.7182 8.48715 12.1292 8.71792 11.5891 9.02881C11.0491 9.33971 10.5339 9.74035 10.0435 10.2308L6.93771 8.93747L5.70693 11.0625L8.40646 13.0745C8.30229 13.371 8.22938 13.6794 8.18771 14C8.14604 14.3205 8.12521 14.6578 8.12521 15.012C8.12521 15.3373 8.14604 15.6562 8.18771 15.9687C8.22938 16.2812 8.29828 16.5897 8.39443 16.8942L5.70693 18.9375L6.93771 21.0625L10.0315 19.75C10.5058 20.2372 11.013 20.6362 11.5531 20.9471C12.0931 21.258 12.6901 21.4968 13.344 21.6634L13.7502 25Z" fill="#49454F"/>
</g>
</svg>
