<svg width="20" height="18" viewBox="0 0 20 18" fill="none" xmlns="http://www.w3.org/2000/svg">
<path d="M6.025 17.5C5.70833 17.5 5.43767 17.3877 5.213 17.163C4.98767 16.9377 4.875 16.675 4.875 16.375C4.875 16.225 4.91267 16.0583 4.988 15.875C5.06267 15.6917 5.15 15.55 5.25 15.45L6.2 14.5H2.3C1.8 14.5 1.375 14.325 1.025 13.975C0.675 13.625 0.5 13.2 0.5 12.7V2.3C0.5 1.8 0.675 1.375 1.025 1.025C1.375 0.675 1.8 0.5 2.3 0.5H9.475C9.69167 0.5 9.871 0.570667 10.013 0.712C10.1543 0.854 10.225 1.03333 10.225 1.25C10.225 1.46667 10.1543 1.64567 10.013 1.787C9.871 1.929 9.69167 2 9.475 2H2.3C2.21667 2 2.146 2.02933 2.088 2.088C2.02933 2.146 2 2.21667 2 2.3V12.7C2 12.7833 2.02933 12.854 2.088 12.912C2.146 12.9707 2.21667 13 2.3 13H17.7C17.7833 13 17.8543 12.9707 17.913 12.912C17.971 12.854 18 12.7833 18 12.7V10.75C18 10.5333 18.0707 10.354 18.212 10.212C18.354 10.0707 18.5333 10 18.75 10C18.9667 10 19.146 10.0707 19.288 10.212C19.4293 10.354 19.5 10.5333 19.5 10.75V12.7C19.5 13.2 19.325 13.625 18.975 13.975C18.625 14.325 18.2 14.5 17.7 14.5H13.8L14.75 15.45C14.85 15.55 14.9377 15.6877 15.013 15.863C15.0877 16.0377 15.125 16.2083 15.125 16.375C15.125 16.675 15.0127 16.9377 14.788 17.163C14.5627 17.3877 14.2917 17.5 13.975 17.5H6.025ZM13.35 11.275C13.2333 11.275 13.125 11.254 13.025 11.212C12.925 11.1707 12.825 11.1 12.725 11L9.25 7.525C9.1 7.39167 9.025 7.22067 9.025 7.012C9.025 6.804 9.1 6.625 9.25 6.475C9.38333 6.325 9.55433 6.25 9.763 6.25C9.971 6.25 10.15 6.325 10.3 6.475L12.6 8.8V1.25C12.6 1.03333 12.6707 0.854 12.812 0.712C12.954 0.570667 13.1333 0.5 13.35 0.5C13.5667 0.5 13.746 0.570667 13.888 0.712C14.0293 0.854 14.1 1.03333 14.1 1.25V8.8L16.425 6.475C16.5583 6.325 16.7293 6.25 16.938 6.25C17.146 6.25 17.325 6.325 17.475 6.475C17.625 6.625 17.7 6.8 17.7 7C17.7 7.2 17.625 7.375 17.475 7.525L14 11C13.9 11.1 13.796 11.1707 13.688 11.212C13.5793 11.254 13.4667 11.275 13.35 11.275Z" fill="#44A08D"/>
</svg>
