<svg width="24" height="24" viewBox="0 0 24 24" fill="none" xmlns="http://www.w3.org/2000/svg">
<mask id="mask0_1624_1082" style="mask-type:alpha" maskUnits="userSpaceOnUse" x="0" y="0" width="24" height="24">
<rect width="24" height="24" fill="#D9D9D9"/>
</mask>
<g mask="url(#mask0_1624_1082)">
<path d="M8.99997 17.7499H15C15.2125 17.7499 15.3906 17.678 15.5343 17.5342C15.6781 17.3904 15.7499 17.2122 15.7499 16.9996C15.7499 16.787 15.6781 16.6089 15.5343 16.4653C15.3906 16.3218 15.2125 16.25 15 16.25H8.99997C8.78747 16.25 8.60935 16.3219 8.46562 16.4657C8.32187 16.6095 8.24999 16.7877 8.24999 17.0003C8.24999 17.2129 8.32187 17.391 8.46562 17.5345C8.60935 17.6781 8.78747 17.7499 8.99997 17.7499ZM8.99997 13.7499H15C15.2125 13.7499 15.3906 13.678 15.5343 13.5342C15.6781 13.3904 15.7499 13.2122 15.7499 12.9996C15.7499 12.787 15.6781 12.6089 15.5343 12.4654C15.3906 12.3218 15.2125 12.25 15 12.25H8.99997C8.78747 12.25 8.60935 12.3219 8.46562 12.4657C8.32187 12.6095 8.24999 12.7877 8.24999 13.0003C8.24999 13.2129 8.32187 13.391 8.46562 13.5346C8.60935 13.6781 8.78747 13.7499 8.99997 13.7499ZM6.3077 21.4999C5.80256 21.4999 5.375 21.3249 5.025 20.9749C4.675 20.6249 4.5 20.1973 4.5 19.6922V4.3077C4.5 3.80256 4.675 3.375 5.025 3.025C5.375 2.675 5.80256 2.5 6.3077 2.5H13.5019C13.7458 2.5 13.9782 2.5468 14.1992 2.6404C14.4202 2.73398 14.6128 2.86282 14.7769 3.02692L18.973 7.22302C19.1371 7.38713 19.2659 7.57969 19.3595 7.80069C19.4531 8.02171 19.4999 8.25415 19.4999 8.49801V19.6922C19.4999 20.1973 19.3249 20.6249 18.9749 20.9749C18.6249 21.3249 18.1974 21.4999 17.6922 21.4999H6.3077ZM13.5 7.59994V3.99997H6.3077C6.23076 3.99997 6.16024 4.03202 6.09612 4.09612C6.03202 4.16024 5.99997 4.23076 5.99997 4.3077V19.6922C5.99997 19.7691 6.03202 19.8397 6.09612 19.9038C6.16024 19.9679 6.23076 19.9999 6.3077 19.9999H17.6922C17.7692 19.9999 17.8397 19.9679 17.9038 19.9038C17.9679 19.8397 17.9999 19.7691 17.9999 19.6922V8.49994H14.3998C14.1448 8.49994 13.9311 8.41369 13.7587 8.24119C13.5862 8.06869 13.5 7.85494 13.5 7.59994Z" fill="#337363"/>
</g>
</svg>
