<svg width="30" height="30" viewBox="0 0 30 30" fill="none" xmlns="http://www.w3.org/2000/svg">
<mask id="mask0_650_321" style="mask-type:alpha" maskUnits="userSpaceOnUse" x="0" y="0" width="30" height="30">
<rect width="30" height="30" fill="#D9D9D9"/>
</mask>
<g mask="url(#mask0_650_321)">
<path d="M11.25 22.1874H18.75C19.0156 22.1874 19.2383 22.0976 19.4179 21.9178C19.5976 21.738 19.6874 21.5153 19.6874 21.2496C19.6874 20.9838 19.5976 20.7612 19.4179 20.5817C19.2383 20.4022 19.0156 20.3125 18.75 20.3125H11.25C10.9843 20.3125 10.7617 20.4024 10.582 20.5821C10.4023 20.7619 10.3125 20.9846 10.3125 21.2504C10.3125 21.5161 10.4023 21.7387 10.582 21.9182C10.7617 22.0977 10.9843 22.1874 11.25 22.1874ZM11.25 17.1874H18.75C19.0156 17.1874 19.2383 17.0976 19.4179 16.9178C19.5976 16.738 19.6874 16.5153 19.6874 16.2496C19.6874 15.9838 19.5976 15.7612 19.4179 15.5817C19.2383 15.4022 19.0156 15.3125 18.75 15.3125H11.25C10.9843 15.3125 10.7617 15.4024 10.582 15.5821C10.4023 15.7619 10.3125 15.9846 10.3125 16.2504C10.3125 16.5161 10.4023 16.7387 10.582 16.9182C10.7617 17.0977 10.9843 17.1874 11.25 17.1874ZM7.88462 26.8749C7.25321 26.8749 6.71875 26.6562 6.28125 26.2187C5.84375 25.7812 5.625 25.2467 5.625 24.6153V5.38462C5.625 4.75321 5.84375 4.21875 6.28125 3.78125C6.71875 3.34375 7.25321 3.125 7.88462 3.125H16.8774C17.1822 3.125 17.4728 3.1835 17.7491 3.3005C18.0253 3.41748 18.266 3.57853 18.4712 3.78366L23.7163 9.02878C23.9214 9.23393 24.0825 9.47463 24.1994 9.75088C24.3164 10.0271 24.3749 10.3177 24.3749 10.6225V24.6153C24.3749 25.2467 24.1562 25.7812 23.7187 26.2187C23.2812 26.6562 22.7467 26.8749 22.1153 26.8749H7.88462ZM16.875 9.49994V4.99997H7.88462C7.78846 4.99997 7.7003 5.04003 7.62016 5.12016C7.54003 5.2003 7.49997 5.28846 7.49997 5.38462V24.6153C7.49997 24.7115 7.54003 24.7996 7.62016 24.8798C7.7003 24.9599 7.78846 25 7.88462 25H22.1153C22.2115 25 22.2996 24.9599 22.3798 24.8798C22.4599 24.7996 22.5 24.7115 22.5 24.6153V10.6249H17.9998C17.681 10.6249 17.4139 10.5171 17.1983 10.3015C16.9828 10.0859 16.875 9.81869 16.875 9.49994Z" fill="#49454F"/>
</g>
</svg>
