<svg width="20" height="18" viewBox="0 0 20 18" fill="none" xmlns="http://www.w3.org/2000/svg">
<path d="M14.4746 9.12502C14.3246 8.97503 14.2496 8.80002 14.2496 8.60002C14.2496 8.40002 14.3163 8.22502 14.4496 8.07502L16.7746 5.75002H1.99961C1.78294 5.75002 1.60394 5.67902 1.46261 5.53702C1.32061 5.39569 1.24961 5.21669 1.24961 5.00002C1.24961 4.78336 1.32061 4.60436 1.46261 4.46302C1.60394 4.32102 1.78294 4.25002 1.99961 4.25002H16.7746L14.4496 1.92502C14.3163 1.77502 14.2496 1.60002 14.2496 1.40002C14.2496 1.20002 14.3246 1.02502 14.4746 0.875024C14.6246 0.725024 14.7996 0.650024 14.9996 0.650024C15.1996 0.650024 15.3746 0.725024 15.5246 0.875024L19.0246 4.37502C19.1079 4.45836 19.1706 4.55402 19.2126 4.66202C19.2539 4.77069 19.2746 4.88336 19.2746 5.00002C19.2746 5.11669 19.2539 5.22902 19.2126 5.33702C19.1706 5.44569 19.1079 5.54169 19.0246 5.62502L15.5246 9.12502C15.3746 9.27502 15.1996 9.35003 14.9996 9.35003C14.7996 9.35003 14.6246 9.27502 14.4746 9.12502ZM4.47461 17.125L0.974609 13.625C0.891276 13.5417 0.828943 13.4457 0.78761 13.337C0.74561 13.229 0.724609 13.1167 0.724609 13C0.724609 12.8834 0.74561 12.7707 0.78761 12.662C0.828943 12.554 0.891276 12.4584 0.974609 12.375L4.47461 8.87502C4.62461 8.72503 4.79961 8.65002 4.99961 8.65002C5.19961 8.65002 5.37461 8.72503 5.52461 8.87502C5.67461 9.02502 5.75394 9.20002 5.76261 9.40002C5.77061 9.60002 5.69961 9.77502 5.54961 9.92502L3.22461 12.25H17.9996C18.2163 12.25 18.3956 12.3207 18.5376 12.462C18.6789 12.604 18.7496 12.7834 18.7496 13C18.7496 13.2167 18.6789 13.396 18.5376 13.538C18.3956 13.6794 18.2163 13.75 17.9996 13.75H3.22461L5.54961 16.075C5.68294 16.225 5.75394 16.4 5.76261 16.6C5.77061 16.8 5.69961 16.975 5.54961 17.125C5.39961 17.275 5.22061 17.35 5.01261 17.35C4.80394 17.35 4.62461 17.275 4.47461 17.125Z" fill="#44A08D"/>
</svg>
