<svg width="455" height="455" viewBox="0 0 455 455" fill="none" xmlns="http://www.w3.org/2000/svg">
<g opacity="0.99">
<path d="M454.296 227.648C454.296 287.593 430.547 345.098 388.249 387.574C345.95 430.051 288.546 454.041 228.601 454.293C168.656 454.546 111.053 431.039 68.398 388.92C25.7435 346.8 1.51232 289.498 1.00803 229.554C0.503748 169.611 23.7674 111.909 65.7073 69.0777C107.647 26.2464 164.847 1.77449 224.788 1.01807C284.729 0.261649 342.528 23.2824 385.535 65.0417C428.543 106.801 453.255 163.897 454.264 223.835" fill="#999999" fill-opacity="0.770642"/>
<path d="M454.296 227.648C454.296 287.593 430.547 345.098 388.249 387.574C345.95 430.051 288.546 454.041 228.601 454.293C168.656 454.546 111.053 431.039 68.398 388.92C25.7435 346.8 1.51232 289.498 1.00803 229.554C0.503748 169.611 23.7674 111.909 65.7073 69.0777C107.647 26.2464 164.847 1.77449 224.788 1.01807C284.729 0.261649 342.528 23.2824 385.535 65.0417C428.543 106.801 453.255 163.897 454.264 223.835" stroke="black" stroke-width="0.247468" stroke-linecap="round"/>
</g>
<path opacity="0.99" d="M226.338 71.0806C198.884 71.4273 172.686 82.6359 153.478 102.253C134.269 121.87 123.614 148.298 123.845 175.752C123.997 191.751 127.844 207.498 135.087 221.763C142.33 236.029 152.773 248.428 165.599 257.991C141.587 269.695 121.375 287.952 107.297 310.653C93.2187 333.355 85.8483 359.576 86.0367 386.288C86.1466 392.764 86.7006 399.225 87.6949 405.625C91.3252 408.54 95.0444 411.342 98.8473 414.028C96.7415 404.9 95.6122 395.574 95.4781 386.208C95.291 360.324 102.708 334.955 116.809 313.249C130.91 291.542 151.073 274.454 174.798 264.104C190.917 273.688 209.331 278.726 228.084 278.684C246.547 278.568 264.646 273.53 280.513 264.088C303.718 274.215 323.526 290.792 337.582 311.85C351.639 332.908 359.351 357.56 359.802 382.874L359.822 385.096C359.788 394.733 358.701 404.337 356.58 413.737C360.339 411.216 364.021 408.582 367.623 405.84C368.678 398.975 369.226 392.042 369.263 385.096L369.244 382.713C368.803 356.606 361.153 331.128 347.139 309.096C333.124 287.064 313.291 269.335 289.832 257.87C289.745 257.928 289.659 257.987 289.572 258.045C302.547 248.402 313.09 235.861 320.362 221.422C327.633 206.983 331.432 191.046 331.455 174.879L331.441 173.131C330.979 145.68 319.66 119.529 299.962 100.403C280.264 81.2771 253.791 70.7338 226.338 71.0806V71.0806ZM226.457 80.5161C251.414 80.2013 275.48 89.7867 293.387 107.174C311.294 124.562 321.584 148.335 322.004 173.291L322.017 174.879C322.017 199.839 312.129 223.782 294.517 241.468C276.905 259.155 253.004 269.143 228.045 269.249C203.085 269.354 179.1 259.566 161.34 242.028C143.58 224.491 133.491 200.631 133.281 175.672C133.071 150.714 142.757 126.688 160.22 108.854C177.682 91.0205 201.499 80.8311 226.457 80.5161V80.5161Z" fill="#E6E6E6" stroke="black" stroke-width="0.259847" stroke-linecap="round"/>
</svg>
