<svg width="20" height="20" viewBox="0 0 20 20" fill="none" xmlns="http://www.w3.org/2000/svg">
<path d="M10.0003 14.7499C10.2129 14.7499 10.391 14.6781 10.5346 14.5343C10.6781 14.3906 10.7499 14.2124 10.7499 13.9999V9.72493C10.7499 9.51853 10.678 9.3461 10.5342 9.20763C10.3904 9.06918 10.2122 8.99996 9.99963 8.99996C9.78703 8.99996 9.60894 9.07183 9.46536 9.21558C9.32177 9.35933 9.24998 9.53745 9.24998 9.74993V14.0249C9.24998 14.2313 9.32188 14.4038 9.46568 14.5422C9.6095 14.6807 9.7877 14.7499 10.0003 14.7499ZM9.99996 7.28844C10.2288 7.28844 10.4206 7.21104 10.5754 7.05624C10.7302 6.90144 10.8076 6.70961 10.8076 6.48076C10.8076 6.25193 10.7302 6.06011 10.5754 5.90529C10.4206 5.75049 10.2288 5.67309 9.99996 5.67309C9.77111 5.67309 9.57928 5.75049 9.42448 5.90529C9.26968 6.06011 9.19228 6.25193 9.19228 6.48076C9.19228 6.70961 9.26968 6.90144 9.42448 7.05624C9.57928 7.21104 9.77111 7.28844 9.99996 7.28844ZM9.99996 19.4999C8.68073 19.4999 7.44324 19.2518 6.28749 18.7557C5.13172 18.2595 4.12628 17.5839 3.27114 16.7288C2.41603 15.8736 1.7404 14.8682 1.24425 13.7124C0.748083 12.5567 0.5 11.3192 0.5 9.99996C0.5 8.68073 0.748083 7.44324 1.24425 6.28749C1.7404 5.13172 2.41603 4.12628 3.27114 3.27114C4.12628 2.41603 5.13172 1.7404 6.28749 1.24425C7.44324 0.748083 8.68073 0.5 9.99996 0.5C11.3192 0.5 12.5567 0.748083 13.7124 1.24425C14.8682 1.7404 15.8736 2.41603 16.7288 3.27114C17.5839 4.12628 18.2595 5.13172 18.7557 6.28749C19.2518 7.44324 19.4999 8.68073 19.4999 9.99996C19.4999 11.3192 19.2518 12.5567 18.7557 13.7124C18.2595 14.8682 17.5839 15.8736 16.7288 16.7288C15.8736 17.5839 14.8682 18.2595 13.7124 18.7557C12.5567 19.2518 11.3192 19.4999 9.99996 19.4999ZM9.99996 17.9999C12.2166 17.9999 14.1041 17.2208 15.6624 15.6624C17.2208 14.1041 17.9999 12.2166 17.9999 9.99996C17.9999 7.78329 17.2208 5.8958 15.6624 4.33747C14.1041 2.77914 12.2166 1.99997 9.99996 1.99997C7.78329 1.99997 5.8958 2.77914 4.33747 4.33747C2.77914 5.8958 1.99997 7.78329 1.99997 9.99996C1.99997 12.2166 2.77914 14.1041 4.33747 15.6624C5.8958 17.2208 7.78329 17.9999 9.99996 17.9999Z" fill="#337363"/>
</svg>
