<svg width="24" height="24" viewBox="0 0 24 24" fill="none" xmlns="http://www.w3.org/2000/svg">
<mask id="mask0_1624_1072" style="mask-type:alpha" maskUnits="userSpaceOnUse" x="0" y="0" width="24" height="24">
<rect width="24" height="24" fill="#D9D9D9"/>
</mask>
<g mask="url(#mask0_1624_1072)">
<path d="M12.0003 16.7499C12.2129 16.7499 12.391 16.6781 12.5346 16.5343C12.6781 16.3906 12.7499 16.2124 12.7499 15.9999V11.7249C12.7499 11.5185 12.678 11.3461 12.5342 11.2076C12.3904 11.0692 12.2122 11 11.9996 11C11.787 11 11.6089 11.0718 11.4654 11.2156C11.3218 11.3593 11.25 11.5374 11.25 11.7499V16.0249C11.25 16.2313 11.3219 16.4038 11.4657 16.5422C11.6095 16.6807 11.7877 16.7499 12.0003 16.7499ZM12 9.28844C12.2288 9.28844 12.4206 9.21104 12.5754 9.05624C12.7302 8.90144 12.8076 8.70961 12.8076 8.48076C12.8076 8.25193 12.7302 8.06011 12.5754 7.90529C12.4206 7.75049 12.2288 7.67309 12 7.67309C11.7711 7.67309 11.5793 7.75049 11.4245 7.90529C11.2697 8.06011 11.1923 8.25193 11.1923 8.48076C11.1923 8.70961 11.2697 8.90144 11.4245 9.05624C11.5793 9.21104 11.7711 9.28844 12 9.28844ZM12 21.4999C10.6807 21.4999 9.44324 21.2518 8.28749 20.7557C7.13172 20.2595 6.12628 19.5839 5.27114 18.7288C4.41603 17.8736 3.7404 16.8682 3.24425 15.7124C2.74808 14.5567 2.5 13.3192 2.5 12C2.5 10.6807 2.74808 9.44324 3.24425 8.28749C3.7404 7.13172 4.41603 6.12628 5.27114 5.27114C6.12628 4.41603 7.13172 3.7404 8.28749 3.24425C9.44324 2.74808 10.6807 2.5 12 2.5C13.3192 2.5 14.5567 2.74808 15.7124 3.24425C16.8682 3.7404 17.8736 4.41603 18.7288 5.27114C19.5839 6.12628 20.2595 7.13172 20.7557 8.28749C21.2518 9.44324 21.4999 10.6807 21.4999 12C21.4999 13.3192 21.2518 14.5567 20.7557 15.7124C20.2595 16.8682 19.5839 17.8736 18.7288 18.7288C17.8736 19.5839 16.8682 20.2595 15.7124 20.7557C14.5567 21.2518 13.3192 21.4999 12 21.4999ZM12 19.9999C14.2166 19.9999 16.1041 19.2208 17.6624 17.6624C19.2208 16.1041 19.9999 14.2166 19.9999 12C19.9999 9.78329 19.2208 7.8958 17.6624 6.33747C16.1041 4.77914 14.2166 3.99997 12 3.99997C9.78329 3.99997 7.8958 4.77914 6.33747 6.33747C4.77914 7.8958 3.99997 9.78329 3.99997 12C3.99997 14.2166 4.77914 16.1041 6.33747 17.6624C7.8958 19.2208 9.78329 19.9999 12 19.9999Z" fill="#337363"/>
</g>
</svg>
