<svg width="24" height="24" viewBox="0 0 24 24" fill="none" xmlns="http://www.w3.org/2000/svg">
<mask id="mask0_846_3036" style="mask-type:alpha" maskUnits="userSpaceOnUse" x="0" y="0" width="24" height="24">
<rect width="24" height="24" fill="#D9D9D9"/>
</mask>
<g mask="url(#mask0_846_3036)">
<path d="M11.9993 18.5C11.8575 18.5 11.7388 18.4521 11.6433 18.3562C11.5478 18.2604 11.5 18.1417 11.5 18V12.5H6C5.85833 12.5 5.73958 12.452 5.64375 12.3561C5.54792 12.2601 5.5 12.1412 5.5 11.9993C5.5 11.8575 5.54792 11.7388 5.64375 11.6433C5.73958 11.5478 5.85833 11.5 6 11.5H11.5V6C11.5 5.85833 11.548 5.73958 11.6439 5.64375C11.7399 5.54792 11.8588 5.5 12.0007 5.5C12.1425 5.5 12.2612 5.54792 12.3567 5.64375C12.4522 5.73958 12.5 5.85833 12.5 6V11.5H18C18.1417 11.5 18.2604 11.548 18.3562 11.6439C18.4521 11.7399 18.5 11.8588 18.5 12.0007C18.5 12.1425 18.4521 12.2612 18.3562 12.3567C18.2604 12.4522 18.1417 12.5 18 12.5H12.5V18C12.5 18.1417 12.452 18.2604 12.3561 18.3562C12.2601 18.4521 12.1412 18.5 11.9993 18.5Z" fill="#49454F"/>
</g>
</svg>
