<svg width="40" height="40" viewBox="0 0 40 40" fill="none" xmlns="http://www.w3.org/2000/svg">
<rect width="40" height="40" fill="#44A08D"/>
<mask id="mask0_1645_1832" style="mask-type:alpha" maskUnits="userSpaceOnUse" x="8" y="8" width="24" height="24">
<rect x="8" y="8" width="24" height="24" fill="#D9D9D9"/>
</mask>
<g mask="url(#mask0_1645_1832)">
<path d="M19.9993 26.5C19.8575 26.5 19.7388 26.4521 19.6433 26.3562C19.5478 26.2604 19.5 26.1417 19.5 26V20.5H14C13.8583 20.5 13.7396 20.452 13.6437 20.3561C13.5479 20.2601 13.5 20.1412 13.5 19.9993C13.5 19.8575 13.5479 19.7388 13.6437 19.6433C13.7396 19.5478 13.8583 19.5 14 19.5H19.5V14C19.5 13.8583 19.548 13.7396 19.6439 13.6437C19.7399 13.5479 19.8588 13.5 20.0007 13.5C20.1425 13.5 20.2612 13.5479 20.3567 13.6437C20.4522 13.7396 20.5 13.8583 20.5 14V19.5H26C26.1417 19.5 26.2604 19.548 26.3562 19.6439C26.4521 19.7399 26.5 19.8588 26.5 20.0007C26.5 20.1425 26.4521 20.2612 26.3562 20.3567C26.2604 20.4522 26.1417 20.5 26 20.5H20.5V26C20.5 26.1417 20.452 26.2604 20.3561 26.3562C20.2601 26.4521 20.1412 26.5 19.9993 26.5Z" fill="white"/>
</g>
</svg>
