<svg width="20" height="18" viewBox="0 0 20 18" fill="none" xmlns="http://www.w3.org/2000/svg">
<path d="M1.86518 17.5769C1.45622 17.5769 1.10398 17.4291 0.808484 17.1336C0.512984 16.8381 0.365234 16.4859 0.365234 16.0769V1.57688C0.365234 1.16791 0.512984 0.815671 0.808484 0.520155C1.10398 0.224655 1.45622 0.0769043 1.86518 0.0769043H8.36521C8.77418 0.0769043 9.12642 0.224655 9.42194 0.520155C9.71743 0.815671 9.86518 1.16791 9.86518 1.57688V4.0769H18.1344C18.5434 4.0769 18.8956 4.22465 19.1911 4.52015C19.4867 4.81567 19.6344 5.16791 19.6344 5.57688V16.0769C19.6344 16.4859 19.4867 16.8381 19.1911 17.1336C18.8956 17.4291 18.5434 17.5769 18.1344 17.5769H1.86518ZM1.86518 16.0769H8.36521V13.5769H1.86518V16.0769ZM1.86518 12.0769H8.36521V9.57688H1.86518V12.0769ZM1.86518 8.07691H8.36521V5.57688H1.86518V8.07691ZM1.86518 4.0769H8.36521V1.57688H1.86518V4.0769ZM9.86518 16.0769H18.1344V5.57688H9.86518V16.0769ZM12.0575 9.57688V8.07691H15.7498V9.57688H12.0575ZM12.0575 13.5769V12.0769H15.7498V13.5769H12.0575Z" fill="#337363"/>
</svg>
