<svg width="30" height="30" viewBox="0 0 30 30" fill="none" xmlns="http://www.w3.org/2000/svg">
<mask id="mask0_933_3226" style="mask-type:alpha" maskUnits="userSpaceOnUse" x="0" y="0" width="30" height="30">
<rect width="30" height="30" fill="#D9D9D9"/>
</mask>
<g mask="url(#mask0_933_3226)">
<path d="M4.83197 25.7212C4.32076 25.7212 3.88047 25.5365 3.51109 25.1671C3.14172 24.7977 2.95703 24.3574 2.95703 23.8462V5.72116C2.95703 5.20995 3.14172 4.76965 3.51109 4.40025C3.88047 4.03088 4.32076 3.84619 4.83197 3.84619H12.957C13.4682 3.84619 13.9085 4.03088 14.2779 4.40025C14.6473 4.76965 14.832 5.20995 14.832 5.72116V8.84619H25.1685C25.6797 8.84619 26.12 9.03088 26.4894 9.40025C26.8588 9.76965 27.0435 10.21 27.0435 10.7212V23.8462C27.0435 24.3574 26.8588 24.7977 26.4894 25.1671C26.12 25.5365 25.6797 25.7212 25.1685 25.7212H4.83197ZM4.83197 23.8462H12.957V20.7212H4.83197V23.8462ZM4.83197 18.8462H12.957V15.7212H4.83197V18.8462ZM4.83197 13.8462H12.957V10.7212H4.83197V13.8462ZM4.83197 8.84619H12.957V5.72116H4.83197V8.84619ZM14.832 23.8462H25.1685V10.7212H14.832V23.8462ZM17.5724 15.7212V13.8462H22.1877V15.7212H17.5724ZM17.5724 20.7212V18.8462H22.1877V20.7212H17.5724Z" fill="#49454F"/>
</g>
</svg>
