<svg width="40" height="40" viewBox="0 0 40 40" fill="none" xmlns="http://www.w3.org/2000/svg">
<rect x="0.5" y="0.5" width="39" height="39" fill="white"/>
<mask id="mask0_120_1813" style="mask-type:alpha" maskUnits="userSpaceOnUse" x="8" y="8" width="24" height="24">
<rect x="8" y="8" width="24" height="24" fill="#D9D9D9"/>
</mask>
<g mask="url(#mask0_120_1813)">
<path d="M19.9616 29C18.7359 29 17.5788 28.7631 16.4904 28.2894C15.4019 27.8157 14.4516 27.1728 13.6394 26.3606C12.8272 25.5484 12.1843 24.5949 11.7106 23.5C11.2369 22.4051 11 21.2385 11 20C11 18.7449 11.242 17.5699 11.7259 16.475C12.2099 15.3801 12.8696 14.4276 13.7048 13.6173C14.5401 12.807 15.5199 12.1683 16.6442 11.7009C17.7686 11.2336 18.9667 11 20.2385 11C21.4051 11 22.516 11.1971 23.5712 11.5914C24.6263 11.9856 25.5548 12.5324 26.3567 13.2317C27.1587 13.9311 27.7997 14.7644 28.2798 15.7317C28.7599 16.699 29 17.7538 29 18.8962C29 20.441 28.5545 21.6779 27.6635 22.6067C26.7724 23.5356 25.5513 24 24 24H22.2269C21.8077 24 21.4567 24.1442 21.174 24.4327C20.8913 24.7212 20.75 25.0692 20.75 25.4769C20.75 25.8949 20.875 26.2497 21.125 26.5414C21.375 26.833 21.5 27.1692 21.5 27.55C21.5 28.0372 21.3638 28.4007 21.0913 28.6404C20.8189 28.8801 20.4423 29 19.9616 29ZM14.5 20.5C14.7795 20.5 15.016 20.4032 15.2096 20.2096C15.4032 20.016 15.5 19.7795 15.5 19.5C15.5 19.2205 15.4032 18.984 15.2096 18.7904C15.016 18.5968 14.7795 18.5 14.5 18.5C14.2205 18.5 13.984 18.5968 13.7904 18.7904C13.5968 18.984 13.5 19.2205 13.5 19.5C13.5 19.7795 13.5968 20.016 13.7904 20.2096C13.984 20.4032 14.2205 20.5 14.5 20.5ZM17.5 16.5C17.7795 16.5 18.016 16.4032 18.2096 16.2096C18.4032 16.016 18.5 15.7795 18.5 15.5C18.5 15.2205 18.4032 14.984 18.2096 14.7904C18.016 14.5968 17.7795 14.5 17.5 14.5C17.2205 14.5 16.984 14.5968 16.7904 14.7904C16.5968 14.984 16.5 15.2205 16.5 15.5C16.5 15.7795 16.5968 16.016 16.7904 16.2096C16.984 16.4032 17.2205 16.5 17.5 16.5ZM22.5 16.5C22.7795 16.5 23.016 16.4032 23.2096 16.2096C23.4032 16.016 23.5 15.7795 23.5 15.5C23.5 15.2205 23.4032 14.984 23.2096 14.7904C23.016 14.5968 22.7795 14.5 22.5 14.5C22.2205 14.5 21.984 14.5968 21.7904 14.7904C21.5968 14.984 21.5 15.2205 21.5 15.5C21.5 15.7795 21.5968 16.016 21.7904 16.2096C21.984 16.4032 22.2205 16.5 22.5 16.5ZM25.5 20.5C25.7795 20.5 26.016 20.4032 26.2096 20.2096C26.4032 20.016 26.5 19.7795 26.5 19.5C26.5 19.2205 26.4032 18.984 26.2096 18.7904C26.016 18.5968 25.7795 18.5 25.5 18.5C25.2205 18.5 24.984 18.5968 24.7904 18.7904C24.5968 18.984 24.5 19.2205 24.5 19.5C24.5 19.7795 24.5968 20.016 24.7904 20.2096C24.984 20.4032 25.2205 20.5 25.5 20.5ZM19.9616 28C20.1372 28 20.2708 27.9615 20.3625 27.8846C20.4542 27.8077 20.5 27.6962 20.5 27.55C20.5 27.3167 20.375 27.0673 20.125 26.8019C19.875 26.5365 19.75 26.1 19.75 25.4923C19.75 24.7667 19.9917 24.1699 20.475 23.7019C20.9583 23.234 21.55 23 22.25 23H24C25.2538 23 26.234 22.6311 26.9404 21.8933C27.6468 21.1555 28 20.1564 28 18.8962C28 16.8667 27.2196 15.2099 25.6587 13.9259C24.0978 12.642 22.291 12 20.2385 12C17.9333 12 15.984 12.775 14.3904 14.325C12.7968 15.875 12 17.7667 12 20C12 22.2167 12.7792 24.1042 14.3375 25.6625C15.8958 27.2208 17.7705 28 19.9616 28Z" fill="#1C1B1F"/>
</g>
<rect x="0.5" y="0.5" width="39" height="39" stroke="black"/>
</svg>
