<svg width="40" height="40" viewBox="0 0 40 40" fill="none" xmlns="http://www.w3.org/2000/svg">
<rect width="40" height="40" fill="#44A08D"/>
<mask id="mask0_1645_1837" style="mask-type:alpha" maskUnits="userSpaceOnUse" x="8" y="8" width="24" height="24">
<rect x="8" y="8" width="24" height="24" fill="#D9D9D9"/>
</mask>
<g mask="url(#mask0_1645_1837)">
<path d="M15.6154 27.9997C15.1551 27.9997 14.7708 27.8456 14.4625 27.5372C14.1542 27.2289 14 26.8446 14 26.3843V13.9997H13.5C13.3577 13.9997 13.2388 13.952 13.1433 13.8564C13.0478 13.7609 13 13.642 13 13.4997C13 13.3574 13.0478 13.2385 13.1433 13.143C13.2388 13.0475 13.3577 12.9997 13.5 12.9997H17C17 12.7805 17.0798 12.5975 17.2394 12.4507C17.399 12.3039 17.5885 12.2305 17.8077 12.2305H22.1923C22.4115 12.2305 22.601 12.3039 22.7606 12.4507C22.9202 12.5975 23 12.7805 23 12.9997H26.5C26.6423 12.9997 26.7612 13.0475 26.8567 13.143C26.9522 13.2385 27 13.3574 27 13.4997C27 13.642 26.9522 13.7609 26.8567 13.8564C26.7612 13.952 26.6423 13.9997 26.5 13.9997H26V26.3843C26 26.8446 25.8458 27.2289 25.5375 27.5372C25.2292 27.8456 24.8449 27.9997 24.3846 27.9997H15.6154ZM15 13.9997V26.3843C15 26.5638 15.0577 26.7113 15.1731 26.8266C15.2885 26.942 15.4359 26.9997 15.6154 26.9997H24.3846C24.5641 26.9997 24.7115 26.942 24.8269 26.8266C24.9423 26.7113 25 26.5638 25 26.3843V13.9997H15ZM17.8077 24.4997C17.8077 24.642 17.8554 24.7609 17.951 24.8564C18.0465 24.952 18.1654 24.9997 18.3077 24.9997C18.45 24.9997 18.5689 24.952 18.6644 24.8564C18.7599 24.7609 18.8077 24.642 18.8077 24.4997V16.4997C18.8077 16.3574 18.7599 16.2385 18.6644 16.143C18.5689 16.0475 18.45 15.9997 18.3077 15.9997C18.1654 15.9997 18.0465 16.0475 17.951 16.143C17.8554 16.2385 17.8077 16.3574 17.8077 16.4997V24.4997ZM21.1923 24.4997C21.1923 24.642 21.2401 24.7609 21.3356 24.8564C21.4311 24.952 21.55 24.9997 21.6923 24.9997C21.8346 24.9997 21.9535 24.952 22.049 24.8564C22.1446 24.7609 22.1923 24.642 22.1923 24.4997V16.4997C22.1923 16.3574 22.1446 16.2385 22.049 16.143C21.9535 16.0475 21.8346 15.9997 21.6923 15.9997C21.55 15.9997 21.4311 16.0475 21.3356 16.143C21.2401 16.2385 21.1923 16.3574 21.1923 16.4997V24.4997ZM15 13.9997V26.3843C15 26.5638 15.0577 26.7113 15.1731 26.8266C15.2885 26.942 15.4359 26.9997 15.6154 26.9997H15V13.9997Z" fill="white"/>
</g>
</svg>
