<svg width="14" height="16" viewBox="0 0 14 16" fill="none" xmlns="http://www.w3.org/2000/svg">
<path d="M2.61537 16C2.15512 16 1.77083 15.8458 1.4625 15.5375C1.15417 15.2291 1 14.8448 1 14.3846V1.99996H0.5C0.357683 1.99996 0.238775 1.9522 0.143275 1.85669C0.0477584 1.76117 0 1.64226 0 1.49996C0 1.35765 0.0477584 1.23874 0.143275 1.14324C0.238775 1.04772 0.357683 0.999963 0.5 0.999963H4C4 0.780729 4.07981 0.597712 4.23943 0.450912C4.39904 0.304112 4.58847 0.230713 4.8077 0.230713H9.1923C9.41153 0.230713 9.60096 0.304112 9.76057 0.450912C9.92019 0.597712 10 0.780729 10 0.999963H13.5C13.6423 0.999963 13.7612 1.04772 13.8567 1.14324C13.9522 1.23874 14 1.35765 14 1.49996C14 1.64226 13.9522 1.76117 13.8567 1.85669C13.7612 1.9522 13.6423 1.99996 13.5 1.99996H13V14.3846C13 14.8448 12.8458 15.2291 12.5375 15.5375C12.2292 15.8458 11.8449 16 11.3846 16H2.61537ZM2 1.99996V14.3846C2 14.5641 2.05769 14.7115 2.17308 14.8269C2.28846 14.9423 2.43589 15 2.61537 15H11.3846C11.5641 15 11.7115 14.9423 11.8269 14.8269C11.9423 14.7115 12 14.5641 12 14.3846V1.99996H2ZM4.80768 12.5C4.80768 12.6423 4.85543 12.7612 4.95095 12.8567C5.04647 12.9522 5.16538 13 5.3077 13C5.45 13 5.56891 12.9522 5.66442 12.8567C5.75994 12.7612 5.8077 12.6423 5.8077 12.5V4.49996C5.8077 4.35766 5.75994 4.23875 5.66442 4.14324C5.56891 4.04772 5.45 3.99996 5.3077 3.99996C5.16538 3.99996 5.04647 4.04772 4.95095 4.14324C4.85543 4.23875 4.80768 4.35766 4.80768 4.49996V12.5ZM8.1923 12.5C8.1923 12.6423 8.24006 12.7612 8.33557 12.8567C8.43109 12.9522 8.55 13 8.6923 13C8.83462 13 8.95353 12.9522 9.04905 12.8567C9.14457 12.7612 9.19232 12.6423 9.19232 12.5V4.49996C9.19232 4.35766 9.14457 4.23875 9.04905 4.14324C8.95353 4.04772 8.83462 3.99996 8.6923 3.99996C8.55 3.99996 8.43109 4.04772 8.33557 4.14324C8.24006 4.23875 8.1923 4.35766 8.1923 4.49996V12.5ZM2 1.99996V14.3846C2 14.5641 2.05769 14.7115 2.17308 14.8269C2.28846 14.9423 2.43589 15 2.61537 15H2V1.99996Z" fill="black"/>
</svg>
