<svg width="24" height="24" viewBox="0 0 24 24" fill="none" xmlns="http://www.w3.org/2000/svg">
<mask id="mask0_846_3039" style="mask-type:alpha" maskUnits="userSpaceOnUse" x="0" y="0" width="24" height="24">
<rect width="24" height="24" fill="#D9D9D9"/>
</mask>
<g mask="url(#mask0_846_3039)">
<path d="M7.61537 20C7.15512 20 6.77083 19.8458 6.4625 19.5375C6.15417 19.2291 6 18.8448 6 18.3846V5.99996H5.5C5.35768 5.99996 5.23878 5.9522 5.14328 5.85669C5.04776 5.76117 5 5.64226 5 5.49996C5 5.35765 5.04776 5.23874 5.14328 5.14324C5.23878 5.04772 5.35768 4.99996 5.5 4.99996H9C9 4.78073 9.07981 4.59771 9.23943 4.45091C9.39904 4.30411 9.58847 4.23071 9.8077 4.23071H14.1923C14.4115 4.23071 14.601 4.30411 14.7606 4.45091C14.9202 4.59771 15 4.78073 15 4.99996H18.5C18.6423 4.99996 18.7612 5.04772 18.8567 5.14324C18.9522 5.23874 19 5.35765 19 5.49996C19 5.64226 18.9522 5.76117 18.8567 5.85669C18.7612 5.9522 18.6423 5.99996 18.5 5.99996H18V18.3846C18 18.8448 17.8458 19.2291 17.5375 19.5375C17.2292 19.8458 16.8449 20 16.3846 20H7.61537ZM7 5.99996V18.3846C7 18.5641 7.05769 18.7115 7.17308 18.8269C7.28846 18.9423 7.43589 19 7.61537 19H16.3846C16.5641 19 16.7115 18.9423 16.8269 18.8269C16.9423 18.7115 17 18.5641 17 18.3846V5.99996H7ZM9.80768 16.5C9.80768 16.6423 9.85543 16.7612 9.95095 16.8567C10.0465 16.9522 10.1654 17 10.3077 17C10.45 17 10.5689 16.9522 10.6644 16.8567C10.7599 16.7612 10.8077 16.6423 10.8077 16.5V8.49996C10.8077 8.35766 10.7599 8.23875 10.6644 8.14324C10.5689 8.04772 10.45 7.99996 10.3077 7.99996C10.1654 7.99996 10.0465 8.04772 9.95095 8.14324C9.85543 8.23875 9.80768 8.35766 9.80768 8.49996V16.5ZM13.1923 16.5C13.1923 16.6423 13.2401 16.7612 13.3356 16.8567C13.4311 16.9522 13.55 17 13.6923 17C13.8346 17 13.9535 16.9522 14.049 16.8567C14.1446 16.7612 14.1923 16.6423 14.1923 16.5V8.49996C14.1923 8.35766 14.1446 8.23875 14.049 8.14324C13.9535 8.04772 13.8346 7.99996 13.6923 7.99996C13.55 7.99996 13.4311 8.04772 13.3356 8.14324C13.2401 8.23875 13.1923 8.35766 13.1923 8.49996V16.5ZM7 5.99996V18.3846C7 18.5641 7.05769 18.7115 7.17308 18.8269C7.28846 18.9423 7.43589 19 7.61537 19H7V5.99996Z" fill="#49454F"/>
</g>
</svg>
