<svg width="24" height="24" viewBox="0 0 24 24" fill="none" xmlns="http://www.w3.org/2000/svg">
<mask id="mask0_1441_17132" style="mask-type:alpha" maskUnits="userSpaceOnUse" x="0" y="0" width="24" height="24">
<rect width="24" height="24" fill="#D9D9D9"/>
</mask>
<g mask="url(#mask0_1441_17132)">
<path d="M7.61537 19.9997C7.15512 19.9997 6.77083 19.8456 6.4625 19.5372C6.15417 19.2289 6 18.8446 6 18.3843V5.99972H5.5C5.35768 5.99972 5.23878 5.95196 5.14328 5.85644C5.04776 5.76093 5 5.64202 5 5.49972C5 5.3574 5.04776 5.23849 5.14328 5.14299C5.23878 5.04748 5.35768 4.99972 5.5 4.99972H9C9 4.78049 9.07981 4.59747 9.23943 4.45067C9.39904 4.30387 9.58847 4.23047 9.8077 4.23047H14.1923C14.4115 4.23047 14.601 4.30387 14.7606 4.45067C14.9202 4.59747 15 4.78049 15 4.99972H18.5C18.6423 4.99972 18.7612 5.04748 18.8567 5.14299C18.9522 5.23849 19 5.3574 19 5.49972C19 5.64202 18.9522 5.76093 18.8567 5.85644C18.7612 5.95196 18.6423 5.99972 18.5 5.99972H18V18.3843C18 18.8446 17.8458 19.2289 17.5375 19.5372C17.2292 19.8456 16.8449 19.9997 16.3846 19.9997H7.61537ZM7 5.99972V18.3843C7 18.5638 7.05769 18.7113 7.17308 18.8266C7.28846 18.942 7.43589 18.9997 7.61537 18.9997H16.3846C16.5641 18.9997 16.7115 18.942 16.8269 18.8266C16.9423 18.7113 17 18.5638 17 18.3843V5.99972H7ZM9.80768 16.4997C9.80768 16.642 9.85543 16.7609 9.95095 16.8564C10.0465 16.952 10.1654 16.9997 10.3077 16.9997C10.45 16.9997 10.5689 16.952 10.6644 16.8564C10.7599 16.7609 10.8077 16.642 10.8077 16.4997V8.49972C10.8077 8.35742 10.7599 8.23851 10.6644 8.14299C10.5689 8.04748 10.45 7.99972 10.3077 7.99972C10.1654 7.99972 10.0465 8.04748 9.95095 8.14299C9.85543 8.23851 9.80768 8.35742 9.80768 8.49972V16.4997ZM13.1923 16.4997C13.1923 16.642 13.2401 16.7609 13.3356 16.8564C13.4311 16.952 13.55 16.9997 13.6923 16.9997C13.8346 16.9997 13.9535 16.952 14.049 16.8564C14.1446 16.7609 14.1923 16.642 14.1923 16.4997V8.49972C14.1923 8.35742 14.1446 8.23851 14.049 8.14299C13.9535 8.04748 13.8346 7.99972 13.6923 7.99972C13.55 7.99972 13.4311 8.04748 13.3356 8.14299C13.2401 8.23851 13.1923 8.35742 13.1923 8.49972V16.4997ZM7 5.99972V18.3843C7 18.5638 7.05769 18.7113 7.17308 18.8266C7.28846 18.942 7.43589 18.9997 7.61537 18.9997H7V5.99972Z" fill="#44A08D"/>
</g>
</svg>
