<svg width="31" height="30" viewBox="0 0 31 30" fill="none" xmlns="http://www.w3.org/2000/svg">
<mask id="mask0_1839_11038" style="mask-type:alpha" maskUnits="userSpaceOnUse" x="0" y="0" width="31" height="30">
<rect x="0.5" width="30" height="30" fill="#D9D9D9"/>
</mask>
<g mask="url(#mask0_1839_11038)">
<mask id="mask1_1839_11038" style="mask-type:alpha" maskUnits="userSpaceOnUse" x="3" y="3" width="25" height="25">
<rect x="3.02051" y="3.49121" width="24" height="24" fill="#44A08D"/>
</mask>
<g mask="url(#mask1_1839_11038)">
<path d="M10.6359 23.4914C10.1884 23.4914 9.80736 23.3341 9.49261 23.0193C9.17787 22.7046 9.02051 22.3235 9.02051 21.876V9.49142H8.02051V8.49142H12.0205V7.72217H18.0205V8.49142H22.0205V9.49142H21.0205V21.876C21.0205 22.3363 20.8663 22.7206 20.558 23.0289C20.2497 23.3373 19.8654 23.4914 19.4051 23.4914H10.6359ZM20.0205 9.49142H10.0205V21.876C10.0205 22.0555 10.0782 22.203 10.1936 22.3183C10.309 22.4337 10.4564 22.4914 10.6359 22.4914H19.4051C19.559 22.4914 19.7 22.4273 19.8282 22.2991C19.9564 22.1709 20.0205 22.0299 20.0205 21.876V9.49142ZM12.8282 20.4914H13.8282V11.4914H12.8282V20.4914ZM16.2128 20.4914H17.2128V11.4914H16.2128V20.4914Z" fill="#44A08D"/>
</g>
</g>
</svg>
