<svg width="20" height="19" viewBox="0 0 20 19" fill="none" xmlns="http://www.w3.org/2000/svg">
<path d="M11.7499 9.76148C11.8948 9.76148 12.0303 9.70507 12.1566 9.59226C12.2829 9.47944 12.3595 9.33714 12.3864 9.16536C12.4198 8.92304 12.5005 8.71535 12.6288 8.54228C12.757 8.3692 12.9653 8.14483 13.2537 7.86918C13.7153 7.42689 14.0294 7.05317 14.196 6.74804C14.3627 6.44292 14.446 6.08844 14.446 5.68459C14.446 4.97306 14.1948 4.3862 13.6922 3.92402C13.1896 3.46184 12.5422 3.23074 11.7499 3.23074C11.2384 3.23074 10.773 3.3519 10.3538 3.59422C9.93454 3.83652 9.59801 4.16985 9.34416 4.59422C9.26339 4.72882 9.25089 4.87176 9.30666 5.02304C9.36242 5.17432 9.47107 5.28202 9.63261 5.34612C9.76722 5.39996 9.91017 5.40156 10.0615 5.35091C10.2127 5.30028 10.339 5.20253 10.4403 5.05767C10.6031 4.82562 10.7941 4.65157 11.0134 4.53554C11.2326 4.41951 11.4781 4.36149 11.7499 4.36149C12.1884 4.36149 12.5486 4.48842 12.8307 4.74227C13.1127 4.99612 13.2538 5.33073 13.2538 5.74611C13.2538 5.99868 13.1823 6.23555 13.0393 6.45671C12.8964 6.67786 12.6486 6.94998 12.2961 7.27306C11.8909 7.61793 11.6118 7.91503 11.4586 8.16438C11.3054 8.41375 11.2121 8.74741 11.1788 9.16536C11.1621 9.32047 11.2102 9.45861 11.323 9.57976C11.4358 9.70091 11.5781 9.76148 11.7499 9.76148ZM11.7499 12.7692C11.9948 12.7692 12.2086 12.6778 12.3913 12.4951C12.5739 12.3124 12.6653 12.0987 12.6653 11.8538C12.6653 11.6089 12.5739 11.3951 12.3913 11.2125C12.2086 11.0298 11.9948 10.9384 11.7499 10.9384C11.505 10.9384 11.2913 11.0298 11.1086 11.2125C10.9259 11.3951 10.8345 11.6089 10.8345 11.8538C10.8345 12.0987 10.9259 12.3124 11.1086 12.4951C11.2913 12.6778 11.505 12.7692 11.7499 12.7692ZM6.05764 15.4999C5.55251 15.4999 5.12495 15.3249 4.77497 14.9749C4.42497 14.6249 4.24997 14.1974 4.24997 13.6922V2.3077C4.24997 1.80256 4.42497 1.375 4.77497 1.025C5.12495 0.675 5.55251 0.5 6.05764 0.5H17.4422C17.9473 0.5 18.3749 0.675 18.7249 1.025C19.0749 1.375 19.2499 1.80256 19.2499 2.3077V13.6922C19.2499 14.1974 19.0749 14.6249 18.7249 14.9749C18.3749 15.3249 17.9473 15.4999 17.4422 15.4999H6.05764ZM6.05764 13.9999H17.4422C17.5319 13.9999 17.6057 13.9711 17.6633 13.9134C17.721 13.8557 17.7499 13.782 17.7499 13.6922V2.3077C17.7499 2.21795 17.721 2.14422 17.6633 2.08652C17.6057 2.02882 17.5319 1.99997 17.4422 1.99997H6.05764C5.96789 1.99997 5.89416 2.02882 5.83646 2.08652C5.77876 2.14422 5.74991 2.21795 5.74991 2.3077V13.6922C5.74991 13.782 5.77876 13.8557 5.83646 13.9134C5.89416 13.9711 5.96789 13.9999 6.05764 13.9999ZM2.55767 18.9999C2.05256 18.9999 1.625 18.8249 1.275 18.4749C0.925 18.1249 0.75 17.6973 0.75 17.1922V5.05767C0.75 4.84485 0.821791 4.66665 0.965374 4.52307C1.10897 4.37948 1.28717 4.30769 1.49997 4.30769C1.71279 4.30769 1.891 4.37948 2.0346 4.52307C2.17818 4.66665 2.24997 4.84485 2.24997 5.05767V17.1922C2.24997 17.2819 2.27882 17.3557 2.33652 17.4134C2.3942 17.4711 2.46792 17.4999 2.55767 17.4999H14.6922C14.905 17.4999 15.0832 17.5717 15.2268 17.7153C15.3704 17.8589 15.4422 18.0371 15.4422 18.2499C15.4422 18.4627 15.3704 18.6409 15.2268 18.7845C15.0832 18.9281 14.905 18.9999 14.6922 18.9999H2.55767Z" fill="#337363"/>
</svg>
