<svg width="20" height="19" viewBox="0 0 20 19" fill="none" xmlns="http://www.w3.org/2000/svg">
<path d="M6.05 15.5C5.55 15.5 5.125 15.325 4.775 14.975C4.425 14.625 4.25 14.2 4.25 13.7V2.3C4.25 1.8 4.425 1.375 4.775 1.025C5.125 0.675 5.55 0.5 6.05 0.5H17.45C17.95 0.5 18.375 0.675 18.725 1.025C19.075 1.375 19.25 1.8 19.25 2.3V13.7C19.25 14.2 19.075 14.625 18.725 14.975C18.375 15.325 17.95 15.5 17.45 15.5H6.05ZM6.05 14H17.45C17.5167 14 17.5833 13.9667 17.65 13.9C17.7167 13.8333 17.75 13.7667 17.75 13.7V5.525H12.05C11.7833 5.525 11.5623 5.43733 11.387 5.262C11.2123 5.08733 11.125 4.875 11.125 4.625V2H6.05C5.98333 2 5.91667 2.03333 5.85 2.1C5.78333 2.16667 5.75 2.23333 5.75 2.3V13.7C5.75 13.7667 5.78333 13.8333 5.85 13.9C5.91667 13.9667 5.98333 14 6.05 14ZM2.55 19C2.05 19 1.625 18.825 1.275 18.475C0.925 18.125 0.75 17.7 0.75 17.2V5.05C0.75 4.85 0.821 4.675 0.963 4.525C1.10433 4.375 1.28333 4.3 1.5 4.3C1.71667 4.3 1.89567 4.375 2.037 4.525C2.179 4.675 2.25 4.85 2.25 5.05V17.2C2.25 17.2667 2.28333 17.3333 2.35 17.4C2.41667 17.4667 2.48333 17.5 2.55 17.5H14.7C14.9 17.5 15.075 17.5707 15.225 17.712C15.375 17.854 15.45 18.0333 15.45 18.25C15.45 18.4667 15.375 18.646 15.225 18.788C15.075 18.9293 14.9 19 14.7 19H2.55Z" fill="#337363"/>
</svg>
