<svg width="30" height="30" viewBox="0 0 30 30" fill="none" xmlns="http://www.w3.org/2000/svg">
<mask id="mask0_933_3223" style="mask-type:alpha" maskUnits="userSpaceOnUse" x="0" y="0" width="30" height="30">
<rect width="30" height="30" fill="#D9D9D9"/>
</mask>
<g mask="url(#mask0_933_3223)">
<path d="M15.0004 20.9374C15.2661 20.9374 15.4887 20.8476 15.6682 20.6679C15.8477 20.4883 15.9374 20.2656 15.9374 20V14.6562C15.9374 14.3982 15.8476 14.1826 15.6678 14.0096C15.488 13.8365 15.2653 13.75 14.9996 13.75C14.7338 13.75 14.5112 13.8398 14.3317 14.0195C14.1522 14.1992 14.0625 14.4218 14.0625 14.6874V20.0312C14.0625 20.2892 14.1524 20.5048 14.3321 20.6778C14.5119 20.8509 14.7346 20.9374 15.0004 20.9374ZM15 11.6106C15.286 11.6106 15.5258 11.5138 15.7193 11.3203C15.9128 11.1268 16.0096 10.887 16.0096 10.601C16.0096 10.3149 15.9128 10.0751 15.7193 9.88163C15.5258 9.68813 15.286 9.59137 15 9.59137C14.7139 9.59137 14.4741 9.68813 14.2806 9.88163C14.0871 10.0751 13.9904 10.3149 13.9904 10.601C13.9904 10.887 14.0871 11.1268 14.2806 11.3203C14.4741 11.5138 14.7139 11.6106 15 11.6106ZM15 26.8749C13.3509 26.8749 11.8041 26.5648 10.3594 25.9446C8.91467 25.3244 7.65785 24.4799 6.58894 23.411C5.52004 22.3421 4.6755 21.0853 4.05531 19.6406C3.4351 18.1959 3.125 16.649 3.125 15C3.125 13.3509 3.4351 11.8041 4.05531 10.3594C4.6755 8.91467 5.52004 7.65785 6.58894 6.58894C7.65785 5.52004 8.91467 4.6755 10.3594 4.05531C11.8041 3.4351 13.3509 3.125 15 3.125C16.649 3.125 18.1959 3.4351 19.6406 4.05531C21.0853 4.6755 22.3421 5.52004 23.411 6.58894C24.4799 7.65785 25.3244 8.91467 25.9446 10.3594C26.5648 11.8041 26.8749 13.3509 26.8749 15C26.8749 16.649 26.5648 18.1959 25.9446 19.6406C25.3244 21.0853 24.4799 22.3421 23.411 23.411C22.3421 24.4799 21.0853 25.3244 19.6406 25.9446C18.1959 26.5648 16.649 26.8749 15 26.8749ZM15 25C17.7708 25 20.1302 24.026 22.0781 22.0781C24.026 20.1302 25 17.7708 25 15C25 12.2291 24.026 9.86976 22.0781 7.92184C20.1302 5.97393 17.7708 4.99997 15 4.99997C12.2291 4.99997 9.86976 5.97393 7.92184 7.92184C5.97393 9.86976 4.99997 12.2291 4.99997 15C4.99997 17.7708 5.97393 20.1302 7.92184 22.0781C9.86976 24.026 12.2291 25 15 25Z" fill="#49454F"/>
</g>
</svg>
