<svg width="24" height="24" viewBox="0 0 24 24" fill="none" xmlns="http://www.w3.org/2000/svg">
<g clip-path="url(#clip0_455_2123)">
<path d="M12.006 0.182373C7.07127 0.182373 5.62804 0.187464 5.34751 0.210736C4.33481 0.294915 3.70465 0.454365 3.01812 0.796173C2.48905 1.05889 2.07179 1.36343 1.65998 1.79033C0.910006 2.56885 0.455474 3.52664 0.290934 4.66515C0.210936 5.21786 0.187664 5.33058 0.182937 8.15377C0.181119 9.09484 0.182937 10.3333 0.182937 11.9946C0.182937 16.9253 0.188391 18.3671 0.212027 18.6471C0.293843 19.6325 0.448383 20.2525 0.775646 20.9307C1.40108 22.2288 2.59559 23.2033 4.00282 23.567C4.49008 23.6924 5.02824 23.7615 5.71913 23.7942C6.01185 23.8069 8.9954 23.816 11.9808 23.816C14.9661 23.816 17.9515 23.8124 18.2369 23.7979C19.0369 23.7602 19.5014 23.6979 20.0151 23.5651C21.4314 23.1997 22.6041 22.2397 23.2422 20.9234C23.5631 20.2616 23.7259 19.618 23.7995 18.684C23.8155 18.4804 23.8222 15.2337 23.8222 11.9915C23.8222 8.74866 23.815 5.50803 23.799 5.3044C23.7244 4.35534 23.5617 3.71718 23.2304 3.04265C22.9586 2.49049 22.6568 2.07814 22.2186 1.65651C21.4367 0.909624 20.4803 0.455092 19.3407 0.290733C18.7886 0.210918 18.6786 0.187282 15.8532 0.182373H12.006Z" fill="url(#paint0_radial_455_2123)"/>
<path d="M12.006 0.182373C7.07127 0.182373 5.62804 0.187464 5.34751 0.210736C4.33481 0.294915 3.70465 0.454365 3.01812 0.796173C2.48905 1.05889 2.07179 1.36343 1.65998 1.79033C0.910006 2.56885 0.455474 3.52664 0.290934 4.66515C0.210936 5.21786 0.187664 5.33058 0.182937 8.15377C0.181119 9.09484 0.182937 10.3333 0.182937 11.9946C0.182937 16.9253 0.188391 18.3671 0.212027 18.6471C0.293843 19.6325 0.448383 20.2525 0.775646 20.9307C1.40108 22.2288 2.59559 23.2033 4.00282 23.567C4.49008 23.6924 5.02824 23.7615 5.71913 23.7942C6.01185 23.8069 8.9954 23.816 11.9808 23.816C14.9661 23.816 17.9515 23.8124 18.2369 23.7979C19.0369 23.7602 19.5014 23.6979 20.0151 23.5651C21.4314 23.1997 22.6041 22.2397 23.2422 20.9234C23.5631 20.2616 23.7259 19.618 23.7995 18.684C23.8155 18.4804 23.8222 15.2337 23.8222 11.9915C23.8222 8.74866 23.815 5.50803 23.799 5.3044C23.7244 4.35534 23.5617 3.71718 23.2304 3.04265C22.9586 2.49049 22.6568 2.07814 22.2186 1.65651C21.4367 0.909624 20.4803 0.455092 19.3407 0.290733C18.7886 0.210918 18.6786 0.187282 15.8532 0.182373H12.006Z" fill="url(#paint1_radial_455_2123)"/>
<path d="M12.0002 3.27319C9.63009 3.27319 9.33264 3.28356 8.40176 3.32592C7.4727 3.36846 6.83853 3.51555 6.28364 3.73136C5.70966 3.95426 5.22277 4.25244 4.73769 4.7377C4.25225 5.22277 3.95408 5.70967 3.73045 6.28347C3.51409 6.83854 3.36682 7.47289 3.325 8.40159C3.28337 9.33247 3.27246 9.6301 3.27246 12.0002C3.27246 14.3703 3.28301 14.6669 3.32519 15.5977C3.36791 16.5268 3.515 17.161 3.73063 17.7159C3.95371 18.2898 4.25189 18.7767 4.73714 19.2618C5.22204 19.7473 5.70893 20.0462 6.28255 20.2691C6.83781 20.4849 7.47215 20.632 8.40103 20.6745C9.33191 20.7169 9.62918 20.7272 11.9991 20.7272C14.3694 20.7272 14.6659 20.7169 15.5968 20.6745C16.5259 20.632 17.1608 20.4849 17.716 20.2691C18.2898 20.0462 18.776 19.7473 19.2609 19.2618C19.7463 18.7767 20.0445 18.2898 20.2681 17.716C20.4827 17.161 20.6299 16.5266 20.6736 15.5979C20.7154 14.667 20.7263 14.3703 20.7263 12.0002C20.7263 9.6301 20.7154 9.33265 20.6736 8.40177C20.6299 7.47271 20.4827 6.83854 20.2681 6.28365C20.0445 5.70967 19.7463 5.22277 19.2609 4.7377C18.7754 4.25226 18.29 3.95408 17.7155 3.73136C17.1591 3.51555 16.5246 3.36846 15.5955 3.32592C14.6647 3.28356 14.3683 3.27319 11.9975 3.27319H12.0002ZM11.2173 4.84587C11.4497 4.84551 11.7089 4.84587 12.0002 4.84587C14.3303 4.84587 14.6065 4.85424 15.5266 4.89605C16.3775 4.93496 16.8393 5.07714 17.1469 5.19659C17.5542 5.35477 17.8446 5.54385 18.1498 5.8493C18.4553 6.15474 18.6444 6.44564 18.8029 6.85291C18.9223 7.16017 19.0647 7.62197 19.1034 8.47286C19.1453 9.39283 19.1543 9.66919 19.1543 11.9982C19.1543 14.3272 19.1453 14.6036 19.1034 15.5236C19.0645 16.3744 18.9223 16.8362 18.8029 17.1435C18.6447 17.5508 18.4553 17.8408 18.1498 18.146C17.8444 18.4515 17.5544 18.6406 17.1469 18.7987C16.8397 18.9187 16.3775 19.0605 15.5266 19.0995C14.6067 19.1413 14.3303 19.1504 12.0002 19.1504C9.6699 19.1504 9.39373 19.1413 8.47376 19.0995C7.62287 19.0602 7.16107 18.918 6.85326 18.7986C6.446 18.6404 6.1551 18.4513 5.84966 18.1458C5.54421 17.8404 5.35513 17.5502 5.19658 17.1428C5.07713 16.8355 4.93477 16.3737 4.89605 15.5228C4.85423 14.6029 4.84587 14.3265 4.84587 11.996C4.84587 9.66555 4.85423 9.39065 4.89605 8.47068C4.93496 7.61979 5.07713 7.15799 5.19658 6.85036C5.35476 6.4431 5.54421 6.1522 5.84966 5.84675C6.1551 5.54131 6.446 5.35222 6.85326 5.19368C7.16089 5.07369 7.62287 4.93187 8.47376 4.89278C9.27882 4.85642 9.59082 4.84551 11.2173 4.84369V4.84587ZM16.6586 6.29492C16.0804 6.29492 15.6114 6.76345 15.6114 7.3418C15.6114 7.91996 16.0804 8.38904 16.6586 8.38904C17.2368 8.38904 17.7058 7.91996 17.7058 7.3418C17.7058 6.76364 17.2368 6.29456 16.6586 6.29456V6.29492ZM12.0002 7.51852C9.52518 7.51852 7.51851 9.52519 7.51851 12.0002C7.51851 14.4752 9.52518 16.481 12.0002 16.481C14.4752 16.481 16.4812 14.4752 16.4812 12.0002C16.4812 9.52519 14.4752 7.51852 12.0002 7.51852ZM12.0002 9.0912C13.6067 9.0912 14.9092 10.3935 14.9092 12.0002C14.9092 13.6067 13.6067 14.9092 12.0002 14.9092C10.3935 14.9092 9.09119 13.6067 9.09119 12.0002C9.09119 10.3935 10.3935 9.0912 12.0002 9.0912Z" fill="white"/>
</g>
<defs>
<radialGradient id="paint0_radial_455_2123" cx="0" cy="0" r="1" gradientUnits="userSpaceOnUse" gradientTransform="translate(6.46156 25.6363) rotate(-90) scale(23.4227 21.7909)">
<stop stop-color="#FFDD55"/>
<stop offset="0.1" stop-color="#FFDD55"/>
<stop offset="0.5" stop-color="#FF543E"/>
<stop offset="1" stop-color="#C837AB"/>
</radialGradient>
<radialGradient id="paint1_radial_455_2123" cx="0" cy="0" r="1" gradientUnits="userSpaceOnUse" gradientTransform="translate(-3.77771 1.8849) rotate(78.6776) scale(10.4702 43.1693)">
<stop stop-color="#3771C8"/>
<stop offset="0.128" stop-color="#3771C8"/>
<stop offset="1" stop-color="#6600FF" stop-opacity="0"/>
</radialGradient>
<clipPath id="clip0_455_2123">
<rect width="24" height="23.9993" fill="white" transform="translate(0 0.000244141)"/>
</clipPath>
</defs>
</svg>
