<svg width="19" height="19" viewBox="0 0 19 19" fill="none" xmlns="http://www.w3.org/2000/svg">
<path d="M5.8 7.62505C5.45 7.62505 5.18733 7.46671 5.012 7.15005C4.83733 6.83338 4.84167 6.52505 5.025 6.22505L8.225 1.00005C8.40833 0.700049 8.66667 0.550049 9 0.550049C9.33333 0.550049 9.59167 0.700049 9.775 1.00005L12.975 6.22505C13.1583 6.52505 13.1627 6.83338 12.988 7.15005C12.8127 7.46671 12.55 7.62505 12.2 7.62505H5.8ZM14.5 18.625C13.35 18.625 12.375 18.225 11.575 17.425C10.775 16.625 10.375 15.65 10.375 14.5C10.375 13.35 10.775 12.375 11.575 11.575C12.375 10.775 13.35 10.375 14.5 10.375C15.65 10.375 16.625 10.775 17.425 11.575C18.225 12.375 18.625 13.35 18.625 14.5C18.625 15.65 18.225 16.625 17.425 17.425C16.625 18.225 15.65 18.625 14.5 18.625ZM1.275 18.125C1.025 18.125 0.812667 18.0377 0.638 17.8631C0.462667 17.6877 0.375 17.4667 0.375 17.2001V11.775C0.375 11.525 0.462667 11.3124 0.638 11.137C0.812667 10.9624 1.03333 10.875 1.3 10.875H6.725C6.975 10.875 7.18767 10.9624 7.363 11.137C7.53767 11.3124 7.625 11.5334 7.625 11.8V17.225C7.625 17.475 7.53767 17.6877 7.363 17.8631C7.18767 18.0377 6.96667 18.125 6.7 18.125H1.275ZM14.5 17.125C15.2333 17.125 15.8543 16.871 16.363 16.363C16.871 15.8544 17.125 15.2334 17.125 14.5C17.125 13.7667 16.871 13.1457 16.363 12.637C15.8543 12.129 15.2333 11.875 14.5 11.875C13.7667 11.875 13.146 12.129 12.638 12.637C12.1293 13.1457 11.875 13.7667 11.875 14.5C11.875 15.2334 12.1293 15.8544 12.638 16.363C13.146 16.871 13.7667 17.125 14.5 17.125ZM1.875 16.625H6.125V12.375H1.875V16.625ZM6.85 6.12505H11.15L9 2.65005L6.85 6.12505Z" fill="#44A08D"/>
</svg>
