<svg width="24" height="24" viewBox="0 0 24 24" fill="none" xmlns="http://www.w3.org/2000/svg">
<path fill-rule="evenodd" clip-rule="evenodd" d="M20.3333 17.3333H16.7719V11.2674C16.7719 9.60425 16.1399 8.67484 14.8236 8.67484C13.3915 8.67484 12.6434 9.64204 12.6434 11.2674V17.3333H9.21111V5.77778H12.6434V7.33431C12.6434 7.33431 13.6753 5.42474 16.1275 5.42474C18.5786 5.42474 20.3333 6.92149 20.3333 10.0171V17.3333ZM5.11645 4.26467C3.94735 4.26467 3 3.30989 3 2.13234C3 0.954786 3.94735 0 5.11645 0C6.28555 0 7.23233 0.954786 7.23233 2.13234C7.23233 3.30989 6.28555 4.26467 5.11645 4.26467ZM3.34418 17.3333H6.92313V5.77778H3.34418V17.3333Z" fill="white"/>
</svg>
