<svg width="24" height="24" viewBox="0 0 24 24" fill="none" xmlns="http://www.w3.org/2000/svg">
<g clip-path="url(#clip0_455_2127)">
<path fill-rule="evenodd" clip-rule="evenodd" d="M2.66667 24H21.3333C22.8061 24 24 22.8061 24 21.3333V2.66667C24 1.19391 22.8061 0 21.3333 0H2.66667C1.19391 0 0 1.19391 0 2.66667V21.3333C0 22.8061 1.19391 24 2.66667 24Z" fill="#007EBB"/>
<path fill-rule="evenodd" clip-rule="evenodd" d="M20.6668 20.6666H17.1054V14.6006C17.1054 12.9375 16.4734 12.0081 15.1571 12.0081C13.725 12.0081 12.9769 12.9753 12.9769 14.6006V20.6666H9.54461V9.11103H12.9769V10.6676C12.9769 10.6676 14.0088 8.75799 16.461 8.75799C18.9121 8.75799 20.6668 10.2547 20.6668 13.3503V20.6666ZM5.44995 7.59792C4.28085 7.59792 3.3335 6.64314 3.3335 5.46559C3.3335 4.28804 4.28085 3.33325 5.44995 3.33325C6.61904 3.33325 7.56583 4.28804 7.56583 5.46559C7.56583 6.64314 6.61904 7.59792 5.44995 7.59792ZM3.67768 20.6666H7.25663V9.11103H3.67768V20.6666Z" fill="white"/>
</g>
<defs>
<clipPath id="clip0_455_2127">
<rect width="24" height="24" fill="white"/>
</clipPath>
</defs>
</svg>
