<svg width="24" height="24" viewBox="0 0 24 24" fill="none" xmlns="http://www.w3.org/2000/svg">
<mask id="mask0_1624_1032" style="mask-type:alpha" maskUnits="userSpaceOnUse" x="0" y="0" width="24" height="24">
<rect width="24" height="24" fill="#D9D9D9"/>
</mask>
<g mask="url(#mask0_1624_1032)">
<path d="M13.9423 8.86146C13.9423 8.74993 13.982 8.63583 14.0615 8.51916C14.141 8.4025 14.2313 8.32237 14.3326 8.27879C14.8288 8.08005 15.3394 7.92941 15.8644 7.82686C16.3894 7.7243 16.9346 7.67301 17.4999 7.67301C17.8269 7.67301 18.1432 7.69224 18.449 7.73069C18.7547 7.76915 19.0628 7.82172 19.373 7.88839C19.491 7.9153 19.5929 7.9794 19.6788 8.08069C19.7647 8.18197 19.8076 8.29992 19.8076 8.43454C19.8076 8.66017 19.7368 8.82523 19.5951 8.92971C19.4535 9.0342 19.2698 9.05951 19.0442 9.00566C18.8044 8.95566 18.5554 8.91977 18.2971 8.89799C18.0387 8.87619 17.773 8.86529 17.4999 8.86529C17.0153 8.86529 16.5407 8.91176 16.0759 9.00471C15.6112 9.09766 15.1679 9.22362 14.7461 9.38259C14.5102 9.47362 14.3173 9.4685 14.1673 9.36721C14.0173 9.26593 13.9423 9.09735 13.9423 8.86146ZM13.9423 14.323C13.9423 14.2115 13.982 14.0958 14.0615 13.9759C14.141 13.856 14.2313 13.7743 14.3326 13.7307C14.816 13.532 15.3265 13.3829 15.8644 13.2836C16.4022 13.1842 16.9474 13.1345 17.4999 13.1345C17.8269 13.1345 18.1432 13.1538 18.449 13.1922C18.7547 13.2307 19.0628 13.2832 19.373 13.3499C19.491 13.3768 19.5929 13.441 19.6788 13.5422C19.7647 13.6435 19.8076 13.7614 19.8076 13.8961C19.8076 14.1217 19.7368 14.2868 19.5951 14.3912C19.4535 14.4957 19.2698 14.521 19.0442 14.4672C18.8044 14.4172 18.5554 14.3813 18.2971 14.3595C18.0387 14.3377 17.773 14.3268 17.4999 14.3268C17.0217 14.3268 16.5519 14.3723 16.0903 14.4634C15.6288 14.5544 15.1871 14.6826 14.7653 14.848C14.5294 14.9454 14.3333 14.9429 14.1769 14.8403C14.0205 14.7377 13.9423 14.5653 13.9423 14.323ZM13.9423 11.5922C13.9423 11.4807 13.982 11.365 14.0615 11.2451C14.141 11.1252 14.2313 11.0435 14.3326 10.9999C14.8288 10.8012 15.3394 10.6522 15.8644 10.5528C16.3894 10.4534 16.9346 10.4038 17.4999 10.4038C17.8269 10.4038 18.1432 10.423 18.449 10.4615C18.7547 10.4999 19.0628 10.5525 19.373 10.6192C19.491 10.6461 19.5929 10.7102 19.6788 10.8115C19.7647 10.9127 19.8076 11.0307 19.8076 11.1653C19.8076 11.3909 19.7368 11.556 19.5951 11.6605C19.4535 11.765 19.2698 11.7903 19.0442 11.7364C18.8044 11.6864 18.5554 11.6505 18.2971 11.6287C18.0387 11.607 17.773 11.5961 17.4999 11.5961C17.0217 11.5961 16.5519 11.6441 16.0903 11.7403C15.6288 11.8364 15.1871 11.9672 14.7653 12.1326C14.5294 12.23 14.3333 12.2249 14.1769 12.1172C14.0205 12.0095 13.9423 11.8345 13.9423 11.5922ZM6.49995 16.0191C7.32817 16.0191 8.13394 16.1131 8.91727 16.3009C9.70061 16.4887 10.4782 16.7833 11.25 17.1845V7.35376C10.5474 6.89608 9.78715 6.55281 8.9692 6.32396C8.15125 6.09511 7.32817 5.98069 6.49995 5.98069C5.89995 5.98069 5.33938 6.0278 4.81823 6.12201C4.29708 6.21625 3.7615 6.37041 3.2115 6.58451C3.13457 6.61016 3.08008 6.64703 3.04803 6.69511C3.01598 6.7432 2.99995 6.79608 2.99995 6.85376V16.3114C2.99995 16.4012 3.032 16.4669 3.0961 16.5086C3.16022 16.5502 3.23074 16.555 3.30768 16.523C3.78203 16.3615 4.28266 16.2371 4.80957 16.1499C5.33649 16.0627 5.89995 16.0191 6.49995 16.0191ZM12.7499 17.1845C13.5217 16.7833 14.2993 16.4887 15.0826 16.3009C15.866 16.1131 16.6717 16.0191 17.4999 16.0191C18.0999 16.0191 18.6634 16.0627 19.1903 16.1499C19.7172 16.2371 20.2179 16.3615 20.6922 16.523C20.7692 16.555 20.8397 16.5502 20.9038 16.5086C20.9679 16.4669 21 16.4012 21 16.3114V6.85376C21 6.79608 20.9839 6.7448 20.9519 6.69991C20.9198 6.65503 20.8653 6.61656 20.7884 6.58451C20.2384 6.37041 19.7028 6.21625 19.1817 6.12201C18.6605 6.0278 18.0999 5.98069 17.4999 5.98069C16.6717 5.98069 15.8486 6.09511 15.0307 6.32396C14.2127 6.55281 13.4525 6.89608 12.7499 7.35376V17.1845ZM11.9999 18.9653C11.8051 18.9653 11.6227 18.9409 11.4529 18.8922C11.283 18.8435 11.1224 18.7787 10.9711 18.698C10.2827 18.3082 9.56246 18.0143 8.81053 17.8162C8.05861 17.6181 7.28842 17.5191 6.49995 17.5191C5.8897 17.5191 5.29035 17.5867 4.7019 17.722C4.11343 17.8572 3.54613 18.0563 2.99998 18.3191C2.64358 18.4832 2.30447 18.4572 1.98267 18.2412C1.66089 18.0252 1.5 17.7191 1.5 17.3229V6.46531C1.5 6.24993 1.55544 6.04769 1.66633 5.85859C1.77723 5.66949 1.93717 5.53327 2.14615 5.44994C2.82307 5.12045 3.52851 4.87655 4.26248 4.71821C4.99644 4.55988 5.74227 4.48071 6.49995 4.48071C7.47303 4.48071 8.42368 4.61373 9.35188 4.87976C10.2801 5.14578 11.1628 5.5384 11.9999 6.05764C12.8371 5.5384 13.7198 5.14578 14.648 4.87976C15.5762 4.61373 16.5269 4.48071 17.4999 4.48071C18.2576 4.48071 19.0035 4.55988 19.7374 4.71821C20.4714 4.87655 21.1768 5.12045 21.8538 5.44994C22.0627 5.53327 22.2227 5.66949 22.3336 5.85859C22.4445 6.04769 22.4999 6.24993 22.4999 6.46531V17.3229C22.4999 17.7191 22.3326 18.022 21.998 18.2316C21.6634 18.4412 21.3115 18.464 20.9422 18.2999C20.4025 18.0435 19.8432 17.8492 19.2643 17.7172C18.6855 17.5851 18.0974 17.5191 17.4999 17.5191C16.7115 17.5191 15.9413 17.6181 15.1894 17.8162C14.4374 18.0143 13.7172 18.3082 13.0288 18.698C12.8775 18.7787 12.7169 18.8435 12.5471 18.8922C12.3772 18.9409 12.1948 18.9653 11.9999 18.9653Z" fill="#337363"/>
</g>
</svg>
