<svg width="30" height="30" viewBox="0 0 30 30" fill="none" xmlns="http://www.w3.org/2000/svg">
<mask id="mask0_929_3205" style="mask-type:alpha" maskUnits="userSpaceOnUse" x="0" y="0" width="30" height="30">
<rect width="30" height="30" fill="#D9D9D9"/>
</mask>
<g mask="url(#mask0_929_3205)">
<path d="M17.4279 11.077C17.4279 10.9376 17.4776 10.795 17.5769 10.6491C17.6763 10.5033 17.7892 10.4031 17.9158 10.3487C18.536 10.1003 19.1743 9.91195 19.8305 9.78376C20.4868 9.65555 21.1683 9.59145 21.875 9.59145C22.2836 9.59145 22.6791 9.61548 23.0613 9.66354C23.4435 9.71163 23.8285 9.77733 24.2163 9.86067C24.3638 9.89431 24.4912 9.97444 24.5985 10.101C24.7059 10.2276 24.7596 10.3751 24.7596 10.5434C24.7596 10.8254 24.6711 11.0317 24.494 11.1623C24.3169 11.2929 24.0873 11.3246 23.8053 11.2573C23.5056 11.1948 23.1943 11.1499 22.8714 11.1227C22.5485 11.0954 22.2164 11.0818 21.875 11.0818C21.2692 11.0818 20.6759 11.1399 20.0949 11.2561C19.514 11.3723 18.9599 11.5297 18.4327 11.7284C18.1378 11.8422 17.8966 11.8358 17.7091 11.7092C17.5216 11.5826 17.4279 11.3719 17.4279 11.077ZM17.4279 17.9039C17.4279 17.7645 17.4776 17.6199 17.5769 17.47C17.6763 17.3202 17.7892 17.218 17.9158 17.1635C18.52 16.9151 19.1582 16.7289 19.8305 16.6047C20.5028 16.4805 21.1843 16.4184 21.875 16.4184C22.2836 16.4184 22.6791 16.4424 23.0613 16.4905C23.4435 16.5385 23.8285 16.6042 24.2163 16.6876C24.3638 16.7212 24.4912 16.8014 24.5985 16.928C24.7059 17.0546 24.7596 17.202 24.7596 17.3703C24.7596 17.6523 24.6711 17.8586 24.494 17.9892C24.3169 18.1198 24.0873 18.1515 23.8053 18.0842C23.5056 18.0217 23.1943 17.9768 22.8714 17.9496C22.5485 17.9223 22.2164 17.9087 21.875 17.9087C21.2772 17.9087 20.6899 17.9656 20.113 18.0794C19.536 18.1932 18.9839 18.3534 18.4567 18.5602C18.1618 18.682 17.9167 18.6788 17.7212 18.5505C17.5256 18.4223 17.4279 18.2068 17.4279 17.9039ZM17.4279 14.4905C17.4279 14.351 17.4776 14.2064 17.5769 14.0566C17.6763 13.9067 17.7892 13.8046 17.9158 13.7501C18.536 13.5017 19.1743 13.3154 19.8305 13.1912C20.4868 13.067 21.1683 13.0049 21.875 13.0049C22.2836 13.0049 22.6791 13.0289 23.0613 13.077C23.4435 13.1251 23.8285 13.1908 24.2163 13.2741C24.3638 13.3078 24.4912 13.3879 24.5985 13.5145C24.7059 13.6411 24.7596 13.7885 24.7596 13.9568C24.7596 14.2389 24.6711 14.4452 24.494 14.5758C24.3169 14.7064 24.0873 14.738 23.8053 14.6707C23.5056 14.6082 23.1943 14.5634 22.8714 14.5361C22.5485 14.5089 22.2164 14.4953 21.875 14.4953C21.2772 14.4953 20.6899 14.5554 20.113 14.6755C19.536 14.7957 18.9839 14.9592 18.4567 15.1659C18.1618 15.2877 17.9167 15.2813 17.7212 15.1467C17.5256 15.0121 17.4279 14.7934 17.4279 14.4905ZM8.125 20.0241C9.16027 20.0241 10.1675 20.1415 11.1467 20.3763C12.1258 20.6111 13.0978 20.9793 14.0625 21.4809V9.19239C13.1843 8.62028 12.234 8.1912 11.2116 7.90514C10.1891 7.61907 9.16027 7.47604 8.125 7.47604C7.375 7.47604 6.67428 7.53493 6.02284 7.6527C5.37141 7.77049 4.70194 7.9632 4.01444 8.23082C3.91827 8.26289 3.85016 8.30897 3.81009 8.36907C3.77003 8.42918 3.75 8.49528 3.75 8.56739V20.3895C3.75 20.5017 3.79006 20.5838 3.87019 20.6359C3.95033 20.688 4.03849 20.694 4.13466 20.6539C4.72759 20.452 5.35339 20.2966 6.01203 20.1876C6.67068 20.0786 7.375 20.0241 8.125 20.0241ZM15.9375 21.4809C16.9022 20.9793 17.8742 20.6111 18.8533 20.3763C19.8325 20.1415 20.8397 20.0241 21.875 20.0241C22.625 20.0241 23.3293 20.0786 23.988 20.1876C24.6466 20.2966 25.2724 20.452 25.8653 20.6539C25.9615 20.694 26.0497 20.688 26.1298 20.6359C26.2099 20.5838 26.25 20.5017 26.25 20.3895V8.56739C26.25 8.49528 26.23 8.43118 26.1899 8.37507C26.1498 8.31897 26.0817 8.27089 25.9856 8.23082C25.2981 7.9632 24.6286 7.77049 23.9772 7.6527C23.3257 7.53493 22.625 7.47604 21.875 7.47604C20.8397 7.47604 19.8109 7.61907 18.7884 7.90514C17.766 8.1912 16.8157 8.62028 15.9375 9.19239V21.4809ZM15 23.7068C14.7564 23.7068 14.5285 23.6763 14.3161 23.6154C14.1038 23.5545 13.9031 23.4736 13.714 23.3726C12.8534 22.8854 11.9531 22.5181 11.0132 22.2704C10.0733 22.0229 9.11058 21.8991 8.125 21.8991C7.36219 21.8991 6.613 21.9836 5.87744 22.1527C5.14185 22.3217 4.43272 22.5705 3.75003 22.899C3.30453 23.1042 2.88066 23.0717 2.47841 22.8017C2.07618 22.5317 1.87506 22.149 1.87506 21.6539V8.08182C1.87506 7.8126 1.94436 7.55979 2.08297 7.32342C2.22159 7.08704 2.42152 6.91677 2.68275 6.81261C3.5289 6.40075 4.4107 6.09587 5.32816 5.89795C6.24561 5.70003 7.1779 5.60107 8.125 5.60107C9.34135 5.60107 10.5297 5.76735 11.6899 6.09989C12.8502 6.43241 13.9535 6.92319 15 7.57223C16.0465 6.92319 17.1498 6.43241 18.3101 6.09989C19.4703 5.76735 20.6586 5.60107 21.875 5.60107C22.8221 5.60107 23.7544 5.70003 24.6718 5.89795C25.5893 6.09587 26.4711 6.40075 27.3173 6.81261C27.5785 6.91677 27.7784 7.08704 27.917 7.32342C28.0557 7.55979 28.125 7.8126 28.125 8.08182V21.6539C28.125 22.149 27.9158 22.5276 27.4976 22.7897C27.0793 23.0517 26.6394 23.0801 26.1778 22.875C25.5032 22.5545 24.804 22.3117 24.0805 22.1467C23.357 21.9816 22.6218 21.8991 21.875 21.8991C20.8894 21.8991 19.9267 22.0229 18.9868 22.2704C18.0469 22.5181 17.1466 22.8854 16.286 23.3726C16.0969 23.4736 15.8962 23.5545 15.6839 23.6154C15.4715 23.6763 15.2436 23.7068 15 23.7068Z" fill="#49454F"/>
</g>
</svg>
