<svg width="30" height="30" viewBox="0 0 30 30" fill="none" xmlns="http://www.w3.org/2000/svg">
<mask id="mask0_929_3214" style="mask-type:alpha" maskUnits="userSpaceOnUse" x="0" y="0" width="30" height="30">
<rect width="30" height="30" fill="#D9D9D9"/>
</mask>
<g mask="url(#mask0_929_3214)">
<path d="M12.5 12.5481L15 11.2981L17.5 12.5481V6.24997H12.5V12.5481ZM8.74997 20.9374V19.0625H15V20.9374H8.74997ZM6.63463 25.6249C6.00321 25.6249 5.46875 25.4062 5.03125 24.9687C4.59375 24.5312 4.375 23.9967 4.375 23.3653V6.63462C4.375 6.00321 4.59375 5.46875 5.03125 5.03125C5.46875 4.59375 6.00321 4.375 6.63463 4.375H23.3653C23.9967 4.375 24.5312 4.59375 24.9687 5.03125C25.4062 5.46875 25.6249 6.00321 25.6249 6.63462V23.3653C25.6249 23.9967 25.4062 24.5312 24.9687 24.9687C24.5312 25.4062 23.9967 25.6249 23.3653 25.6249H6.63463ZM6.63463 23.75H23.3653C23.4615 23.75 23.5496 23.7099 23.6298 23.6298C23.7099 23.5496 23.75 23.4615 23.75 23.3653V6.63462C23.75 6.53846 23.7099 6.4503 23.6298 6.37016C23.5496 6.29003 23.4615 6.24997 23.3653 6.24997H19.3749V15.6009L15 13.4134L10.625 15.6009V6.24997H6.63463C6.53846 6.24997 6.4503 6.29003 6.37016 6.37016C6.29003 6.4503 6.24997 6.53846 6.24997 6.63462V23.3653C6.24997 23.4615 6.29003 23.5496 6.37016 23.6298C6.4503 23.7099 6.53846 23.75 6.63463 23.75Z" fill="#49454F"/>
</g>
</svg>
