<svg width="20" height="20" viewBox="0 0 20 20" fill="none" xmlns="http://www.w3.org/2000/svg">
<path d="M9.99997 9.61532C8.79686 9.61532 7.76693 9.18695 6.91016 8.3302C6.05339 7.47343 5.625 6.44349 5.625 5.24039C5.625 4.03726 6.05339 3.00732 6.91016 2.15057C7.76693 1.2938 8.79686 0.865417 9.99997 0.865417C11.2031 0.865417 12.233 1.2938 13.0898 2.15057C13.9466 3.00732 14.3749 4.03726 14.3749 5.24039C14.3749 6.44349 13.9466 7.47343 13.0898 8.3302C12.233 9.18695 11.2031 9.61532 9.99997 9.61532ZM17.4759 19.1345H2.524C1.99677 19.1345 1.54847 18.9498 1.17909 18.5804C0.809698 18.2111 0.625 17.7628 0.625 17.2355V16.3557C0.625 15.7436 0.791271 15.1767 1.12381 14.655C1.45633 14.1334 1.90064 13.7324 2.45672 13.4519C3.6923 12.8461 4.9387 12.3918 6.19591 12.0889C7.45311 11.7861 8.72114 11.6346 9.99997 11.6346C11.2788 11.6346 12.5468 11.7861 13.804 12.0889C15.0612 12.3918 16.3076 12.8461 17.5432 13.4519C18.0993 13.7324 18.5436 14.1334 18.8761 14.655C19.2087 15.1767 19.3749 15.7436 19.3749 16.3557V17.2355C19.3749 17.7628 19.1902 18.2111 18.8208 18.5804C18.4515 18.9498 18.0032 19.1345 17.4759 19.1345ZM2.49997 17.2596H17.5V16.3557C17.5 16.1025 17.4266 15.8681 17.28 15.6526C17.1334 15.4371 16.9343 15.2612 16.6827 15.125C15.6057 14.5945 14.5076 14.1927 13.3883 13.9194C12.2691 13.6462 11.1396 13.5096 9.99997 13.5096C8.86034 13.5096 7.73089 13.6462 6.61159 13.9194C5.4923 14.1927 4.3942 14.5945 3.31728 15.125C3.06568 15.2612 2.86656 15.4371 2.71994 15.6526C2.57329 15.8681 2.49997 16.1025 2.49997 16.3557V17.2596ZM9.99997 7.74039C10.6875 7.74039 11.276 7.49559 11.7656 7.00601C12.2552 6.51643 12.5 5.92789 12.5 5.24039C12.5 4.55289 12.2552 3.96434 11.7656 3.47476C11.276 2.98518 10.6875 2.74039 9.99997 2.74039C9.31247 2.74039 8.72393 2.98518 8.23434 3.47476C7.74476 3.96434 7.49997 4.55289 7.49997 5.24039C7.49997 5.92789 7.74476 6.51643 8.23434 7.00601C8.72393 7.49559 9.31247 7.74039 9.99997 7.74039Z" fill="#49454F"/>
</svg>
