<svg width="30" height="30" viewBox="0 0 30 30" fill="none" xmlns="http://www.w3.org/2000/svg">
<mask id="mask0_650_326" style="mask-type:alpha" maskUnits="userSpaceOnUse" x="0" y="0" width="30" height="30">
<rect width="30" height="30" fill="#D9D9D9"/>
</mask>
<g mask="url(#mask0_650_326)">
<path d="M15.0004 15.2645C15.2661 15.2645 15.4887 15.1747 15.6682 14.995C15.8477 14.8153 15.9374 14.5927 15.9374 14.327V10.1684C15.9374 9.90273 15.8476 9.68008 15.6678 9.50039C15.488 9.32072 15.2653 9.23089 14.9996 9.23089C14.7338 9.23089 14.5112 9.32072 14.3317 9.50039C14.1522 9.68008 14.0625 9.90273 14.0625 10.1684V14.327C14.0625 14.5927 14.1524 14.8153 14.3321 14.995C14.5119 15.1747 14.7346 15.2645 15.0004 15.2645ZM15 19.5193C15.286 19.5193 15.5258 19.4225 15.7193 19.229C15.9128 19.0355 16.0096 18.7957 16.0096 18.5097C16.0096 18.2236 15.9128 17.9838 15.7193 17.7903C15.5258 17.5968 15.286 17.5001 15 17.5001C14.7139 17.5001 14.4741 17.5968 14.2806 17.7903C14.0871 17.9838 13.9904 18.2236 13.9904 18.5097C13.9904 18.7957 14.0871 19.0355 14.2806 19.229C14.4741 19.4225 14.7139 19.5193 15 19.5193ZM15 26.7572H14.7046C14.6119 26.7572 14.5285 26.7364 14.4543 26.6947C11.9014 25.8486 9.79167 24.232 8.125 21.845C6.45833 19.458 5.625 16.8033 5.625 13.8811V8.24529C5.625 7.77048 5.76152 7.34315 6.03456 6.9633C6.3076 6.58344 6.66067 6.30806 7.09375 6.13714L14.2091 3.48089C14.4767 3.38474 14.7404 3.33667 15 3.33667C15.2596 3.33667 15.5232 3.38474 15.7908 3.48089L22.9062 6.13714C23.3393 6.30806 23.6923 6.58344 23.9654 6.9633C24.2384 7.34315 24.3749 7.77048 24.3749 8.24529V13.8811C24.3749 16.8033 23.5416 19.458 21.8749 21.845C20.2083 24.232 18.0991 25.8488 15.5475 26.6953C15.4501 26.7366 15.2676 26.7572 15 26.7572ZM15 24.8751C17.1666 24.1876 18.9583 22.8126 20.375 20.7501C21.7916 18.6876 22.5 16.3959 22.5 13.8751V8.16114C22.5 8.09703 22.4839 8.04094 22.4519 7.99286C22.4198 7.94477 22.3758 7.91272 22.3197 7.8967L15.1803 5.24048C15.1162 5.21644 15.0561 5.20442 15 5.20442C14.9439 5.20442 14.8838 5.21644 14.8197 5.24048L7.68028 7.8967C7.62418 7.91272 7.5801 7.94477 7.54806 7.99286C7.516 8.04094 7.49997 8.09703 7.49997 8.16114V13.8751C7.49997 16.3959 8.2083 18.6876 9.62497 20.7501C11.0416 22.8126 12.8333 24.1876 15 24.8751Z" fill="#49454F"/>
</g>
</svg>
