<svg width="16" height="20" viewBox="0 0 16 20" fill="none" xmlns="http://www.w3.org/2000/svg">
<path d="M8.00028 10.2112C8.21288 10.2112 8.39098 10.1393 8.53456 9.99558C8.67814 9.85184 8.74993 9.67373 8.74993 9.46123V6.13428C8.74993 5.92179 8.67803 5.74366 8.53423 5.59991C8.39042 5.45618 8.21222 5.38431 7.99963 5.38431C7.78704 5.38431 7.60894 5.45618 7.46536 5.59991C7.32178 5.74366 7.24999 5.92179 7.24999 6.13428V9.46123C7.24999 9.67373 7.32189 9.85184 7.46569 9.99558C7.6095 10.1393 7.7877 10.2112 8.00028 10.2112ZM7.99996 13.615C8.22881 13.615 8.42063 13.5376 8.57543 13.3828C8.73023 13.228 8.80763 13.0362 8.80763 12.8073C8.80763 12.5785 8.73023 12.3867 8.57543 12.2318C8.42063 12.077 8.22881 11.9996 7.99996 11.9996C7.77111 11.9996 7.57929 12.077 7.42449 12.2318C7.26969 12.3867 7.19229 12.5785 7.19229 12.8073C7.19229 13.0362 7.26969 13.228 7.42449 13.3828C7.57929 13.5376 7.77111 13.615 7.99996 13.615ZM7.99996 19.4054H7.76369C7.68952 19.4054 7.62277 19.3887 7.56344 19.3554C5.52114 18.6784 3.83333 17.3852 2.5 15.4756C1.16667 13.566 0.5 11.4423 0.5 9.10445V4.59584C0.5 4.21599 0.609216 3.87412 0.827649 3.57024C1.04608 3.26636 1.32853 3.04605 1.675 2.90932L7.36729 0.78432C7.58139 0.707404 7.79228 0.668945 7.99996 0.668945C8.20764 0.668945 8.41853 0.707404 8.63263 0.78432L14.3249 2.90932C14.6714 3.04605 14.9538 3.26636 15.1723 3.57024C15.3907 3.87412 15.4999 4.21599 15.4999 4.59584V9.10445C15.4999 11.4423 14.8333 13.566 13.4999 15.4756C12.1666 17.3852 10.4793 18.6786 8.43798 19.3558C8.36007 19.3888 8.21406 19.4054 7.99996 19.4054ZM7.99996 17.8996C9.73329 17.3496 11.1666 16.2496 12.3 14.5996C13.4333 12.9496 13.9999 11.1163 13.9999 9.09965V4.52851C13.9999 4.47723 13.9871 4.43235 13.9615 4.39389C13.9358 4.35542 13.9006 4.32978 13.8557 4.31696L8.14421 2.19199C8.09293 2.17276 8.04484 2.16314 7.99996 2.16314C7.95508 2.16314 7.90699 2.17276 7.85571 2.19199L2.14422 4.31696C2.09934 4.32978 2.06408 4.35542 2.03845 4.39389C2.0128 4.43235 1.99997 4.47723 1.99997 4.52851V9.09965C1.99997 11.1163 2.56664 12.9496 3.69997 14.5996C4.8333 16.2496 6.26663 17.3496 7.99996 17.8996Z" fill="#337363"/>
</svg>
