<svg width="30" height="30" viewBox="0 0 30 30" fill="none" xmlns="http://www.w3.org/2000/svg">
<mask id="mask0_650_316" style="mask-type:alpha" maskUnits="userSpaceOnUse" x="0" y="0" width="30" height="30">
<rect width="30" height="30" fill="#D9D9D9"/>
</mask>
<g mask="url(#mask0_650_316)">
<path d="M17.1874 14.7019C17.3685 14.7019 17.538 14.6314 17.6958 14.4903C17.8537 14.3493 17.9494 14.1714 17.9831 13.9567C18.0247 13.6538 18.1257 13.3942 18.286 13.1779C18.4462 12.9615 18.7066 12.6811 19.0672 12.3365C19.6441 11.7836 20.0368 11.3165 20.2451 10.9351C20.4534 10.5537 20.5576 10.1106 20.5576 9.60575C20.5576 8.71633 20.2435 7.98276 19.6153 7.40503C18.9871 6.8273 18.1778 6.53844 17.1874 6.53844C16.548 6.53844 15.9663 6.68988 15.4422 6.99278C14.9182 7.29566 14.4975 7.71232 14.1802 8.24278C14.0793 8.41103 14.0636 8.58971 14.1333 8.77881C14.2031 8.96792 14.3389 9.10253 14.5408 9.18266C14.7091 9.24997 14.8877 9.25197 15.0768 9.18866C15.2659 9.12536 15.4238 9.00318 15.5504 8.82209C15.7539 8.53203 15.9927 8.31448 16.2667 8.16944C16.5408 8.0244 16.8477 7.95187 17.1874 7.95187C17.7355 7.95187 18.1858 8.11053 18.5384 8.42784C18.891 8.74516 19.0672 9.16343 19.0672 9.68266C19.0672 9.99836 18.9779 10.2944 18.7992 10.5709C18.6205 10.8473 18.3108 11.1875 17.8701 11.5913C17.3637 12.0224 17.0148 12.3938 16.8232 12.7055C16.6318 13.0172 16.5152 13.4343 16.4735 13.9567C16.4527 14.1506 16.5128 14.3233 16.6538 14.4747C16.7948 14.6262 16.9727 14.7019 17.1874 14.7019ZM17.1874 18.4615C17.4935 18.4615 17.7607 18.3473 17.9891 18.1189C18.2174 17.8906 18.3316 17.6234 18.3316 17.3173C18.3316 17.0112 18.2174 16.7439 17.9891 16.5156C17.7607 16.2872 17.4935 16.1731 17.1874 16.1731C16.8813 16.1731 16.6141 16.2872 16.3857 16.5156C16.1574 16.7439 16.0432 17.0112 16.0432 17.3173C16.0432 17.6234 16.1574 17.8906 16.3857 18.1189C16.6141 18.3473 16.8813 18.4615 17.1874 18.4615ZM10.0721 21.8749C9.44065 21.8749 8.9062 21.6562 8.46872 21.2187C8.03122 20.7812 7.81247 20.2467 7.81247 19.6153V5.38462C7.81247 4.75321 8.03122 4.21875 8.46872 3.78125C8.9062 3.34375 9.44065 3.125 10.0721 3.125H24.3028C24.9342 3.125 25.4686 3.34375 25.9061 3.78125C26.3436 4.21875 26.5624 4.75321 26.5624 5.38462V19.6153C26.5624 20.2467 26.3436 20.7812 25.9061 21.2187C25.4686 21.6562 24.9342 21.8749 24.3028 21.8749H10.0721ZM10.0721 20H24.3028C24.415 20 24.5071 19.9639 24.5792 19.8918C24.6513 19.8197 24.6874 19.7275 24.6874 19.6153V5.38462C24.6874 5.27244 24.6513 5.18028 24.5792 5.10816C24.5071 5.03603 24.415 4.99997 24.3028 4.99997H10.0721C9.95988 4.99997 9.86772 5.03603 9.79559 5.10816C9.72347 5.18028 9.68741 5.27244 9.68741 5.38462V19.6153C9.68741 19.7275 9.72347 19.8197 9.79559 19.8918C9.86772 19.9639 9.95988 20 10.0721 20ZM5.69709 26.2499C5.0657 26.2499 4.53125 26.0311 4.09375 25.5936C3.65625 25.1561 3.4375 24.6217 3.4375 23.9903V8.82209C3.4375 8.55607 3.52724 8.33332 3.70672 8.15384C3.88622 7.97436 4.10897 7.88462 4.37497 7.88462C4.64099 7.88462 4.86375 7.97436 5.04325 8.15384C5.22273 8.33332 5.31247 8.55607 5.31247 8.82209V23.9903C5.31247 24.1025 5.34853 24.1946 5.42066 24.2668C5.49276 24.3389 5.58491 24.3749 5.69709 24.3749H20.8653C21.1313 24.3749 21.3541 24.4647 21.5336 24.6442C21.713 24.8236 21.8028 25.0464 21.8028 25.3124C21.8028 25.5784 21.713 25.8012 21.5336 25.9807C21.3541 26.1601 21.1313 26.2499 20.8653 26.2499H5.69709Z" fill="#49454F"/>
</g>
</svg>
