<svg width="24" height="24" viewBox="0 0 24 24" fill="none" xmlns="http://www.w3.org/2000/svg">
<mask id="mask0_1624_1077" style="mask-type:alpha" maskUnits="userSpaceOnUse" x="0" y="0" width="24" height="24">
<rect width="24" height="24" fill="#D9D9D9"/>
</mask>
<g mask="url(#mask0_1624_1077)">
<path d="M13.7499 11.7615C13.8948 11.7615 14.0303 11.7051 14.1566 11.5923C14.2829 11.4794 14.3595 11.3371 14.3864 11.1654C14.4198 10.923 14.5005 10.7153 14.6288 10.5423C14.757 10.3692 14.9653 10.1448 15.2537 9.86918C15.7153 9.42689 16.0294 9.05317 16.196 8.74804C16.3627 8.44292 16.446 8.08844 16.446 7.68459C16.446 6.97306 16.1948 6.3862 15.6922 5.92402C15.1896 5.46184 14.5422 5.23074 13.7499 5.23074C13.2384 5.23074 12.773 5.3519 12.3538 5.59422C11.9345 5.83652 11.598 6.16985 11.3442 6.59422C11.2634 6.72882 11.2509 6.87176 11.3067 7.02304C11.3624 7.17432 11.4711 7.28202 11.6326 7.34612C11.7672 7.39996 11.9102 7.40156 12.0615 7.35091C12.2127 7.30028 12.339 7.20253 12.4403 7.05767C12.6031 6.82562 12.7941 6.65157 13.0134 6.53554C13.2326 6.41951 13.4781 6.36149 13.7499 6.36149C14.1884 6.36149 14.5486 6.48842 14.8307 6.74227C15.1127 6.99612 15.2538 7.33073 15.2538 7.74611C15.2538 7.99868 15.1823 8.23555 15.0393 8.45671C14.8964 8.67786 14.6486 8.94998 14.2961 9.27306C13.8909 9.61793 13.6118 9.91503 13.4586 10.1644C13.3054 10.4137 13.2121 10.7474 13.1788 11.1654C13.1621 11.3205 13.2102 11.4586 13.323 11.5798C13.4358 11.7009 13.5781 11.7615 13.7499 11.7615ZM13.7499 14.7692C13.9948 14.7692 14.2086 14.6778 14.3913 14.4951C14.5739 14.3124 14.6653 14.0987 14.6653 13.8538C14.6653 13.6089 14.5739 13.3951 14.3913 13.2125C14.2086 13.0298 13.9948 12.9384 13.7499 12.9384C13.505 12.9384 13.2913 13.0298 13.1086 13.2125C12.9259 13.3951 12.8345 13.6089 12.8345 13.8538C12.8345 14.0987 12.9259 14.3124 13.1086 14.4951C13.2913 14.6778 13.505 14.7692 13.7499 14.7692ZM8.05764 17.4999C7.55251 17.4999 7.12495 17.3249 6.77497 16.9749C6.42497 16.6249 6.24997 16.1974 6.24997 15.6922V4.3077C6.24997 3.80256 6.42497 3.375 6.77497 3.025C7.12495 2.675 7.55251 2.5 8.05764 2.5H19.4422C19.9473 2.5 20.3749 2.675 20.7249 3.025C21.0749 3.375 21.2499 3.80256 21.2499 4.3077V15.6922C21.2499 16.1974 21.0749 16.6249 20.7249 16.9749C20.3749 17.3249 19.9473 17.4999 19.4422 17.4999H8.05764ZM8.05764 15.9999H19.4422C19.5319 15.9999 19.6057 15.9711 19.6633 15.9134C19.721 15.8557 19.7499 15.782 19.7499 15.6922V4.3077C19.7499 4.21795 19.721 4.14422 19.6633 4.08652C19.6057 4.02882 19.5319 3.99997 19.4422 3.99997H8.05764C7.96789 3.99997 7.89416 4.02882 7.83646 4.08652C7.77876 4.14422 7.74991 4.21795 7.74991 4.3077V15.6922C7.74991 15.782 7.77876 15.8557 7.83646 15.9134C7.89416 15.9711 7.96789 15.9999 8.05764 15.9999ZM4.55767 20.9999C4.05256 20.9999 3.625 20.8249 3.275 20.4749C2.925 20.1249 2.75 19.6973 2.75 19.1922V7.05767C2.75 6.84485 2.82179 6.66665 2.96537 6.52307C3.10897 6.37948 3.28717 6.30769 3.49997 6.30769C3.71279 6.30769 3.891 6.37948 4.0346 6.52307C4.17818 6.66665 4.24997 6.84485 4.24997 7.05767V19.1922C4.24997 19.2819 4.27882 19.3557 4.33652 19.4134C4.3942 19.4711 4.46792 19.4999 4.55767 19.4999H16.6922C16.905 19.4999 17.0832 19.5717 17.2268 19.7153C17.3704 19.8589 17.4422 20.0371 17.4422 20.2499C17.4422 20.4627 17.3704 20.6409 17.2268 20.7845C17.0832 20.9281 16.905 20.9999 16.6922 20.9999H4.55767Z" fill="#337363"/>
</g>
</svg>
