<svg width="121" height="38" viewBox="0 0 121 38" fill="none" xmlns="http://www.w3.org/2000/svg">
<rect width="121" height="38" fill="black"/>
<path d="M21.1543 14.4688H23.9785C24.6191 14.4688 25.1602 14.5664 25.6016 14.7617C26.0469 14.957 26.3848 15.2461 26.6152 15.6289C26.8496 16.0078 26.9668 16.4746 26.9668 17.0293C26.9668 17.4199 26.8867 17.7773 26.7266 18.1016C26.5703 18.4219 26.3438 18.6953 26.0469 18.9219C25.7539 19.1445 25.4023 19.3105 24.9922 19.4199L24.6758 19.543H22.0215L22.0098 18.623H24.0137C24.4199 18.623 24.7578 18.5527 25.0273 18.4121C25.2969 18.2676 25.5 18.0742 25.6367 17.832C25.7734 17.5898 25.8418 17.3223 25.8418 17.0293C25.8418 16.7012 25.7773 16.4141 25.6484 16.168C25.5195 15.9219 25.3164 15.7324 25.0391 15.5996C24.7656 15.4629 24.4121 15.3945 23.9785 15.3945H22.2852V23H21.1543V14.4688ZM26.1406 23L24.0664 19.1328L25.2441 19.127L27.3477 22.9297V23H26.1406ZM31.0156 23.1172C30.5742 23.1172 30.1738 23.043 29.8145 22.8945C29.459 22.7422 29.1523 22.5293 28.8945 22.2559C28.6406 21.9824 28.4453 21.6582 28.3086 21.2832C28.1719 20.9082 28.1035 20.498 28.1035 20.0527V19.8066C28.1035 19.291 28.1797 18.832 28.332 18.4297C28.4844 18.0234 28.6914 17.6797 28.9531 17.3984C29.2148 17.1172 29.5117 16.9043 29.8438 16.7598C30.1758 16.6152 30.5195 16.543 30.875 16.543C31.3281 16.543 31.7188 16.6211 32.0469 16.7773C32.3789 16.9336 32.6504 17.1523 32.8613 17.4336C33.0723 17.7109 33.2285 18.0391 33.3301 18.418C33.4316 18.793 33.4824 19.2031 33.4824 19.6484V20.1348H28.748V19.25H32.3984V19.168C32.3828 18.8867 32.3242 18.6133 32.2227 18.3477C32.125 18.082 31.9688 17.8633 31.7539 17.6914C31.5391 17.5195 31.2461 17.4336 30.875 17.4336C30.6289 17.4336 30.4023 17.4863 30.1953 17.5918C29.9883 17.6934 29.8105 17.8457 29.6621 18.0488C29.5137 18.252 29.3984 18.5 29.3164 18.793C29.2344 19.0859 29.1934 19.4238 29.1934 19.8066V20.0527C29.1934 20.3535 29.2344 20.6367 29.3164 20.9023C29.4023 21.1641 29.5254 21.3945 29.6855 21.5938C29.8496 21.793 30.0469 21.9492 30.2773 22.0625C30.5117 22.1758 30.7773 22.2324 31.0742 22.2324C31.457 22.2324 31.7812 22.1543 32.0469 21.998C32.3125 21.8418 32.5449 21.6328 32.7441 21.3711L33.4004 21.8926C33.2637 22.0996 33.0898 22.2969 32.8789 22.4844C32.668 22.6719 32.4082 22.8242 32.0996 22.9414C31.7949 23.0586 31.4336 23.1172 31.0156 23.1172ZM37.2852 22.2266C37.543 22.2266 37.7812 22.1738 38 22.0684C38.2188 21.9629 38.3984 21.8184 38.5391 21.6348C38.6797 21.4473 38.7598 21.2344 38.7793 20.9961H39.8105C39.791 21.3711 39.6641 21.7207 39.4297 22.0449C39.1992 22.3652 38.8965 22.625 38.5215 22.8242C38.1465 23.0195 37.7344 23.1172 37.2852 23.1172C36.8086 23.1172 36.3926 23.0332 36.0371 22.8652C35.6855 22.6973 35.3926 22.4668 35.1582 22.1738C34.9277 21.8809 34.7539 21.5449 34.6367 21.166C34.5234 20.7832 34.4668 20.3789 34.4668 19.9531V19.707C34.4668 19.2812 34.5234 18.8789 34.6367 18.5C34.7539 18.1172 34.9277 17.7793 35.1582 17.4863C35.3926 17.1934 35.6855 16.9629 36.0371 16.7949C36.3926 16.627 36.8086 16.543 37.2852 16.543C37.7812 16.543 38.2148 16.6445 38.5859 16.8477C38.957 17.0469 39.248 17.3203 39.459 17.668C39.6738 18.0117 39.791 18.4023 39.8105 18.8398H38.7793C38.7598 18.5781 38.6855 18.3418 38.5566 18.1309C38.4316 17.9199 38.2598 17.752 38.041 17.627C37.8262 17.498 37.5742 17.4336 37.2852 17.4336C36.9531 17.4336 36.6738 17.5 36.4473 17.6328C36.2246 17.7617 36.0469 17.9375 35.9141 18.1602C35.7852 18.3789 35.6914 18.623 35.6328 18.8926C35.5781 19.1582 35.5508 19.4297 35.5508 19.707V19.9531C35.5508 20.2305 35.5781 20.5039 35.6328 20.7734C35.6875 21.043 35.7793 21.2871 35.9082 21.5059C36.041 21.7246 36.2188 21.9004 36.4414 22.0332C36.668 22.1621 36.9492 22.2266 37.2852 22.2266ZM40.7422 19.9004V19.7656C40.7422 19.3086 40.8086 18.8848 40.9414 18.4941C41.0742 18.0996 41.2656 17.7578 41.5156 17.4688C41.7656 17.1758 42.0684 16.9492 42.4238 16.7891C42.7793 16.625 43.1777 16.543 43.6191 16.543C44.0645 16.543 44.4648 16.625 44.8203 16.7891C45.1797 16.9492 45.4844 17.1758 45.7344 17.4688C45.9883 17.7578 46.1816 18.0996 46.3145 18.4941C46.4473 18.8848 46.5137 19.3086 46.5137 19.7656V19.9004C46.5137 20.3574 46.4473 20.7812 46.3145 21.1719C46.1816 21.5625 45.9883 21.9043 45.7344 22.1973C45.4844 22.4863 45.1816 22.7129 44.8262 22.877C44.4746 23.0371 44.0762 23.1172 43.6309 23.1172C43.1855 23.1172 42.7852 23.0371 42.4297 22.877C42.0742 22.7129 41.7695 22.4863 41.5156 22.1973C41.2656 21.9043 41.0742 21.5625 40.9414 21.1719C40.8086 20.7812 40.7422 20.3574 40.7422 19.9004ZM41.8262 19.7656V19.9004C41.8262 20.2168 41.8633 20.5156 41.9375 20.7969C42.0117 21.0742 42.123 21.3203 42.2715 21.5352C42.4238 21.75 42.6133 21.9199 42.8398 22.0449C43.0664 22.166 43.3301 22.2266 43.6309 22.2266C43.9277 22.2266 44.1875 22.166 44.4102 22.0449C44.6367 21.9199 44.8242 21.75 44.9727 21.5352C45.1211 21.3203 45.2324 21.0742 45.3066 20.7969C45.3848 20.5156 45.4238 20.2168 45.4238 19.9004V19.7656C45.4238 19.4531 45.3848 19.1582 45.3066 18.8809C45.2324 18.5996 45.1191 18.3516 44.9668 18.1367C44.8184 17.918 44.6309 17.7461 44.4043 17.6211C44.1816 17.4961 43.9199 17.4336 43.6191 17.4336C43.3223 17.4336 43.0605 17.4961 42.834 17.6211C42.6113 17.7461 42.4238 17.918 42.2715 18.1367C42.123 18.3516 42.0117 18.5996 41.9375 18.8809C41.8633 19.1582 41.8262 19.4531 41.8262 19.7656ZM48.9512 17.9199V23H47.8613V16.6602H48.8926L48.9512 17.9199ZM48.7285 19.5898L48.2246 19.5723C48.2285 19.1387 48.2852 18.7383 48.3945 18.3711C48.5039 18 48.666 17.6777 48.8809 17.4043C49.0957 17.1309 49.3633 16.9199 49.6836 16.7715C50.0039 16.6191 50.375 16.543 50.7969 16.543C51.0938 16.543 51.3672 16.5859 51.6172 16.6719C51.8672 16.7539 52.084 16.8848 52.2676 17.0645C52.4512 17.2441 52.5938 17.4746 52.6953 17.7559C52.7969 18.0371 52.8477 18.377 52.8477 18.7754V23H51.7637V18.8281C51.7637 18.4961 51.707 18.2305 51.5938 18.0312C51.4844 17.832 51.3281 17.6875 51.125 17.5977C50.9219 17.5039 50.6836 17.457 50.4102 17.457C50.0898 17.457 49.8223 17.5137 49.6074 17.627C49.3926 17.7402 49.2207 17.8965 49.0918 18.0957C48.9629 18.2949 48.8691 18.5234 48.8105 18.7812C48.7559 19.0352 48.7285 19.3047 48.7285 19.5898ZM52.8359 18.9922L52.1094 19.2148C52.1133 18.8672 52.1699 18.5332 52.2793 18.2129C52.3926 17.8926 52.5547 17.6074 52.7656 17.3574C52.9805 17.1074 53.2441 16.9102 53.5566 16.7656C53.8691 16.6172 54.2266 16.543 54.6289 16.543C54.9688 16.543 55.2695 16.5879 55.5312 16.6777C55.7969 16.7676 56.0195 16.9062 56.1992 17.0938C56.3828 17.2773 56.5215 17.5137 56.6152 17.8027C56.709 18.0918 56.7559 18.4355 56.7559 18.834V23H55.666V18.8223C55.666 18.4668 55.6094 18.1914 55.4961 17.9961C55.3867 17.7969 55.2305 17.6582 55.0273 17.5801C54.8281 17.498 54.5898 17.457 54.3125 17.457C54.0742 17.457 53.8633 17.498 53.6797 17.5801C53.4961 17.6621 53.3418 17.7754 53.2168 17.9199C53.0918 18.0605 52.9961 18.2227 52.9297 18.4062C52.8672 18.5898 52.8359 18.7852 52.8359 18.9922ZM59.4746 17.9199V23H58.3848V16.6602H59.416L59.4746 17.9199ZM59.252 19.5898L58.748 19.5723C58.752 19.1387 58.8086 18.7383 58.918 18.3711C59.0273 18 59.1895 17.6777 59.4043 17.4043C59.6191 17.1309 59.8867 16.9199 60.207 16.7715C60.5273 16.6191 60.8984 16.543 61.3203 16.543C61.6172 16.543 61.8906 16.5859 62.1406 16.6719C62.3906 16.7539 62.6074 16.8848 62.791 17.0645C62.9746 17.2441 63.1172 17.4746 63.2188 17.7559C63.3203 18.0371 63.3711 18.377 63.3711 18.7754V23H62.2871V18.8281C62.2871 18.4961 62.2305 18.2305 62.1172 18.0312C62.0078 17.832 61.8516 17.6875 61.6484 17.5977C61.4453 17.5039 61.207 17.457 60.9336 17.457C60.6133 17.457 60.3457 17.5137 60.1309 17.627C59.916 17.7402 59.7441 17.8965 59.6152 18.0957C59.4863 18.2949 59.3926 18.5234 59.334 18.7812C59.2793 19.0352 59.252 19.3047 59.252 19.5898ZM63.3594 18.9922L62.6328 19.2148C62.6367 18.8672 62.6934 18.5332 62.8027 18.2129C62.916 17.8926 63.0781 17.6074 63.2891 17.3574C63.5039 17.1074 63.7676 16.9102 64.0801 16.7656C64.3926 16.6172 64.75 16.543 65.1523 16.543C65.4922 16.543 65.793 16.5879 66.0547 16.6777C66.3203 16.7676 66.543 16.9062 66.7227 17.0938C66.9062 17.2773 67.0449 17.5137 67.1387 17.8027C67.2324 18.0918 67.2793 18.4355 67.2793 18.834V23H66.1895V18.8223C66.1895 18.4668 66.1328 18.1914 66.0195 17.9961C65.9102 17.7969 65.7539 17.6582 65.5508 17.5801C65.3516 17.498 65.1133 17.457 64.8359 17.457C64.5977 17.457 64.3867 17.498 64.2031 17.5801C64.0195 17.6621 63.8652 17.7754 63.7402 17.9199C63.6152 18.0605 63.5195 18.2227 63.4531 18.4062C63.3906 18.5898 63.3594 18.7852 63.3594 18.9922ZM71.5508 23.1172C71.1094 23.1172 70.709 23.043 70.3496 22.8945C69.9941 22.7422 69.6875 22.5293 69.4297 22.2559C69.1758 21.9824 68.9805 21.6582 68.8438 21.2832C68.707 20.9082 68.6387 20.498 68.6387 20.0527V19.8066C68.6387 19.291 68.7148 18.832 68.8672 18.4297C69.0195 18.0234 69.2266 17.6797 69.4883 17.3984C69.75 17.1172 70.0469 16.9043 70.3789 16.7598C70.7109 16.6152 71.0547 16.543 71.4102 16.543C71.8633 16.543 72.2539 16.6211 72.582 16.7773C72.9141 16.9336 73.1855 17.1523 73.3965 17.4336C73.6074 17.7109 73.7637 18.0391 73.8652 18.418C73.9668 18.793 74.0176 19.2031 74.0176 19.6484V20.1348H69.2832V19.25H72.9336V19.168C72.918 18.8867 72.8594 18.6133 72.7578 18.3477C72.6602 18.082 72.5039 17.8633 72.2891 17.6914C72.0742 17.5195 71.7812 17.4336 71.4102 17.4336C71.1641 17.4336 70.9375 17.4863 70.7305 17.5918C70.5234 17.6934 70.3457 17.8457 70.1973 18.0488C70.0488 18.252 69.9336 18.5 69.8516 18.793C69.7695 19.0859 69.7285 19.4238 69.7285 19.8066V20.0527C69.7285 20.3535 69.7695 20.6367 69.8516 20.9023C69.9375 21.1641 70.0605 21.3945 70.2207 21.5938C70.3848 21.793 70.582 21.9492 70.8125 22.0625C71.0469 22.1758 71.3125 22.2324 71.6094 22.2324C71.9922 22.2324 72.3164 22.1543 72.582 21.998C72.8477 21.8418 73.0801 21.6328 73.2793 21.3711L73.9355 21.8926C73.7988 22.0996 73.625 22.2969 73.4141 22.4844C73.2031 22.6719 72.9434 22.8242 72.6348 22.9414C72.3301 23.0586 71.9688 23.1172 71.5508 23.1172ZM76.3672 18.0137V23H75.2832V16.6602H76.3086L76.3672 18.0137ZM76.1094 19.5898L75.6582 19.5723C75.6621 19.1387 75.7266 18.7383 75.8516 18.3711C75.9766 18 76.1523 17.6777 76.3789 17.4043C76.6055 17.1309 76.875 16.9199 77.1875 16.7715C77.5039 16.6191 77.8535 16.543 78.2363 16.543C78.5488 16.543 78.8301 16.5859 79.0801 16.6719C79.3301 16.7539 79.543 16.8867 79.7188 17.0703C79.8984 17.2539 80.0352 17.4922 80.1289 17.7852C80.2227 18.0742 80.2695 18.4277 80.2695 18.8457V23H79.1797V18.834C79.1797 18.502 79.1309 18.2363 79.0332 18.0371C78.9355 17.834 78.793 17.6875 78.6055 17.5977C78.418 17.5039 78.1875 17.457 77.9141 17.457C77.6445 17.457 77.3984 17.5137 77.1758 17.627C76.957 17.7402 76.7676 17.8965 76.6074 18.0957C76.4512 18.2949 76.3281 18.5234 76.2383 18.7812C76.1523 19.0352 76.1094 19.3047 76.1094 19.5898ZM85.9121 21.7695V14H87.002V23H86.0059L85.9121 21.7695ZM81.6465 19.9004V19.7773C81.6465 19.293 81.7051 18.8535 81.8223 18.459C81.9434 18.0605 82.1133 17.7188 82.332 17.4336C82.5547 17.1484 82.8184 16.9297 83.123 16.7773C83.4316 16.6211 83.7754 16.543 84.1543 16.543C84.5527 16.543 84.9004 16.6133 85.1973 16.7539C85.498 16.8906 85.752 17.0918 85.959 17.3574C86.1699 17.6191 86.3359 17.9355 86.457 18.3066C86.5781 18.6777 86.6621 19.0977 86.709 19.5664V20.1055C86.666 20.5703 86.582 20.9883 86.457 21.3594C86.3359 21.7305 86.1699 22.0469 85.959 22.3086C85.752 22.5703 85.498 22.7715 85.1973 22.9121C84.8965 23.0488 84.5449 23.1172 84.1426 23.1172C83.7715 23.1172 83.4316 23.0371 83.123 22.877C82.8184 22.7168 82.5547 22.4922 82.332 22.2031C82.1133 21.9141 81.9434 21.5742 81.8223 21.1836C81.7051 20.7891 81.6465 20.3613 81.6465 19.9004ZM82.7363 19.7773V19.9004C82.7363 20.2168 82.7676 20.5137 82.8301 20.791C82.8965 21.0684 82.998 21.3125 83.1348 21.5234C83.2715 21.7344 83.4453 21.9004 83.6562 22.0215C83.8672 22.1387 84.1191 22.1973 84.4121 22.1973C84.7715 22.1973 85.0664 22.1211 85.2969 21.9688C85.5312 21.8164 85.7188 21.6152 85.8594 21.3652C86 21.1152 86.1094 20.8438 86.1875 20.5508V19.1387C86.1406 18.9238 86.0723 18.7168 85.9824 18.5176C85.8965 18.3145 85.7832 18.1348 85.6426 17.9785C85.5059 17.8184 85.3359 17.6914 85.1328 17.5977C84.9336 17.5039 84.6973 17.457 84.4238 17.457C84.127 17.457 83.8711 17.5195 83.6562 17.6445C83.4453 17.7656 83.2715 17.9336 83.1348 18.1484C82.998 18.3594 82.8965 18.6055 82.8301 18.8867C82.7676 19.1641 82.7363 19.4609 82.7363 19.7773ZM91.3203 23.1172C90.8789 23.1172 90.4785 23.043 90.1191 22.8945C89.7637 22.7422 89.457 22.5293 89.1992 22.2559C88.9453 21.9824 88.75 21.6582 88.6133 21.2832C88.4766 20.9082 88.4082 20.498 88.4082 20.0527V19.8066C88.4082 19.291 88.4844 18.832 88.6367 18.4297C88.7891 18.0234 88.9961 17.6797 89.2578 17.3984C89.5195 17.1172 89.8164 16.9043 90.1484 16.7598C90.4805 16.6152 90.8242 16.543 91.1797 16.543C91.6328 16.543 92.0234 16.6211 92.3516 16.7773C92.6836 16.9336 92.9551 17.1523 93.166 17.4336C93.377 17.7109 93.5332 18.0391 93.6348 18.418C93.7363 18.793 93.7871 19.2031 93.7871 19.6484V20.1348H89.0527V19.25H92.7031V19.168C92.6875 18.8867 92.6289 18.6133 92.5273 18.3477C92.4297 18.082 92.2734 17.8633 92.0586 17.6914C91.8438 17.5195 91.5508 17.4336 91.1797 17.4336C90.9336 17.4336 90.707 17.4863 90.5 17.5918C90.293 17.6934 90.1152 17.8457 89.9668 18.0488C89.8184 18.252 89.7031 18.5 89.6211 18.793C89.5391 19.0859 89.498 19.4238 89.498 19.8066V20.0527C89.498 20.3535 89.5391 20.6367 89.6211 20.9023C89.707 21.1641 89.8301 21.3945 89.9902 21.5938C90.1543 21.793 90.3516 21.9492 90.582 22.0625C90.8164 22.1758 91.082 22.2324 91.3789 22.2324C91.7617 22.2324 92.0859 22.1543 92.3516 21.998C92.6172 21.8418 92.8496 21.6328 93.0488 21.3711L93.7051 21.8926C93.5684 22.0996 93.3945 22.2969 93.1836 22.4844C92.9727 22.6719 92.7129 22.8242 92.4043 22.9414C92.0996 23.0586 91.7383 23.1172 91.3203 23.1172ZM99.0488 21.7695V14H100.139V23H99.1426L99.0488 21.7695ZM94.7832 19.9004V19.7773C94.7832 19.293 94.8418 18.8535 94.959 18.459C95.0801 18.0605 95.25 17.7188 95.4688 17.4336C95.6914 17.1484 95.9551 16.9297 96.2598 16.7773C96.5684 16.6211 96.9121 16.543 97.291 16.543C97.6895 16.543 98.0371 16.6133 98.334 16.7539C98.6348 16.8906 98.8887 17.0918 99.0957 17.3574C99.3066 17.6191 99.4727 17.9355 99.5938 18.3066C99.7148 18.6777 99.7988 19.0977 99.8457 19.5664V20.1055C99.8027 20.5703 99.7188 20.9883 99.5938 21.3594C99.4727 21.7305 99.3066 22.0469 99.0957 22.3086C98.8887 22.5703 98.6348 22.7715 98.334 22.9121C98.0332 23.0488 97.6816 23.1172 97.2793 23.1172C96.9082 23.1172 96.5684 23.0371 96.2598 22.877C95.9551 22.7168 95.6914 22.4922 95.4688 22.2031C95.25 21.9141 95.0801 21.5742 94.959 21.1836C94.8418 20.7891 94.7832 20.3613 94.7832 19.9004ZM95.873 19.7773V19.9004C95.873 20.2168 95.9043 20.5137 95.9668 20.791C96.0332 21.0684 96.1348 21.3125 96.2715 21.5234C96.4082 21.7344 96.582 21.9004 96.793 22.0215C97.0039 22.1387 97.2559 22.1973 97.5488 22.1973C97.9082 22.1973 98.2031 22.1211 98.4336 21.9688C98.668 21.8164 98.8555 21.6152 98.9961 21.3652C99.1367 21.1152 99.2461 20.8438 99.3242 20.5508V19.1387C99.2773 18.9238 99.209 18.7168 99.1191 18.5176C99.0332 18.3145 98.9199 18.1348 98.7793 17.9785C98.6426 17.8184 98.4727 17.6914 98.2695 17.5977C98.0703 17.5039 97.834 17.457 97.5605 17.457C97.2637 17.457 97.0078 17.5195 96.793 17.6445C96.582 17.7656 96.4082 17.9336 96.2715 18.1484C96.1348 18.3594 96.0332 18.6055 95.9668 18.8867C95.9043 19.1641 95.873 19.4609 95.873 19.7773Z" fill="white"/>
</svg>
