<svg width="16" height="16" viewBox="0 0 16 16" fill="none" xmlns="http://www.w3.org/2000/svg">
<path d="M1.61538 16C1.15513 16 0.770833 15.8458 0.4625 15.5375C0.154167 15.2292 0 14.8449 0 14.3846V1.61537C0 1.15512 0.154167 0.770833 0.4625 0.4625C0.770833 0.154167 1.15513 0 1.61538 0H11.9058C12.1212 0 12.3305 0.0435914 12.5337 0.130775C12.7369 0.217941 12.9109 0.333966 13.0558 0.47885L15.5212 2.94423C15.666 3.08909 15.7821 3.26313 15.8692 3.46635C15.9564 3.66955 16 3.87884 16 4.09423V14.3846C16 14.8449 15.8458 15.2292 15.5375 15.5375C15.2292 15.8458 14.8449 16 14.3846 16H1.61538ZM15 3.85L12.15 1H1.61538C1.43589 1 1.28846 1.05769 1.17308 1.17308C1.05769 1.28846 1 1.43589 1 1.61537V14.3846C1 14.5641 1.05769 14.7115 1.17308 14.8269C1.28846 14.9423 1.43589 15 1.61538 15H14.3846C14.5641 15 14.7115 14.9423 14.8269 14.8269C14.9423 14.7115 15 14.5641 15 14.3846V3.85ZM8 12.5385C8.55128 12.5385 9.02244 12.343 9.41348 11.9519C9.80449 11.5609 10 11.0898 10 10.5385C10 9.98719 9.80449 9.51603 9.41348 9.125C9.02244 8.73397 8.55128 8.53845 8 8.53845C7.44872 8.53845 6.97756 8.73397 6.58652 9.125C6.19551 9.51603 6 9.98719 6 10.5385C6 11.0898 6.19551 11.5609 6.58652 11.9519C6.97756 12.343 7.44872 12.5385 8 12.5385ZM3.57693 5.76923H9.38463C9.61668 5.76923 9.8093 5.69263 9.9625 5.53942C10.1157 5.38622 10.1923 5.1936 10.1923 4.96155V3.57693C10.1923 3.34488 10.1157 3.15224 9.9625 2.99903C9.8093 2.84583 9.61668 2.76923 9.38463 2.76923H3.57693C3.34488 2.76923 3.15224 2.84583 2.99903 2.99903C2.84583 3.15224 2.76923 3.34488 2.76923 3.57693V4.96155C2.76923 5.1936 2.84583 5.38622 2.99903 5.53942C3.15224 5.69263 3.34488 5.76923 3.57693 5.76923Z" fill="#49454F"/>
</svg>
