<svg width="20" height="20" viewBox="0 0 20 20" fill="none" xmlns="http://www.w3.org/2000/svg">
<path d="M11.5099 19.4999H8.48115C8.25678 19.4999 8.06255 19.4246 7.89845 19.2739C7.73435 19.1233 7.63563 18.9358 7.6023 18.7114L7.31192 16.4538C7.04398 16.364 6.76929 16.2384 6.48788 16.0768C6.20646 15.9153 5.95485 15.7422 5.73305 15.5576L3.64461 16.4384C3.43051 16.5217 3.21801 16.53 3.00711 16.4634C2.79621 16.3967 2.6305 16.2647 2.50998 16.0672L1.00619 13.448C0.885671 13.2506 0.848812 13.0397 0.895612 12.8154C0.942395 12.591 1.05617 12.4102 1.23694 12.2731L3.04463 10.9057C3.02155 10.757 3.0052 10.6077 2.99558 10.4577C2.98597 10.3077 2.98116 10.1583 2.98116 10.0096C2.98116 9.86726 2.98597 9.72271 2.99558 9.57591C3.0052 9.42911 3.02155 9.26853 3.04463 9.09418L1.23694 7.72686C1.05617 7.58969 0.942395 7.40893 0.895612 7.18456C0.848812 6.96021 0.885671 6.74932 1.00619 6.55189L2.50998 3.95194C2.62025 3.74424 2.78179 3.60963 2.99461 3.54809C3.20742 3.48656 3.42088 3.49746 3.63498 3.58079L5.72343 4.45194C5.96446 4.26091 6.22184 4.08623 6.49555 3.92789C6.76928 3.76954 7.0382 3.64229 7.3023 3.54614L7.6023 1.28847C7.63563 1.06411 7.73435 0.876607 7.89845 0.725974C8.06255 0.575325 8.25678 0.5 8.48115 0.5H11.5099C11.7343 0.5 11.9301 0.575325 12.0974 0.725974C12.2647 0.876607 12.3651 1.06411 12.3984 1.28847L12.6888 3.55577C12.9888 3.66474 13.2602 3.79198 13.5032 3.93749C13.7462 4.08301 13.9914 4.25449 14.2388 4.45194L16.3657 3.58079C16.5798 3.49746 16.7907 3.48752 16.9984 3.55097C17.2061 3.61444 17.3702 3.74489 17.4907 3.94232L18.9945 6.55189C19.115 6.74932 19.1519 6.96021 19.1051 7.18456C19.0583 7.40893 18.9445 7.58969 18.7638 7.72686L16.9176 9.12301C16.9535 9.28456 16.9731 9.43552 16.9763 9.57591C16.9795 9.71629 16.9811 9.85764 16.9811 9.99996C16.9811 10.1359 16.9779 10.274 16.9715 10.4144C16.965 10.5548 16.942 10.7153 16.9022 10.8961L18.7291 12.2731C18.9163 12.4038 19.0317 12.583 19.0753 12.8105C19.1189 13.0381 19.0804 13.2506 18.9599 13.448L17.4561 16.0518C17.3356 16.2493 17.1673 16.3823 16.9513 16.4509C16.7352 16.5195 16.5202 16.5121 16.3061 16.4287L14.2388 15.548C13.9914 15.7454 13.7388 15.9201 13.4811 16.072C13.2234 16.224 12.9593 16.348 12.6888 16.4441L12.3984 18.7114C12.3651 18.9358 12.2647 19.1233 12.0974 19.2739C11.9301 19.4246 11.7343 19.4999 11.5099 19.4999ZM10.0119 12.9999C10.8439 12.9999 11.5519 12.7079 12.1359 12.124C12.7199 11.54 13.0118 10.832 13.0118 9.99996C13.0118 9.16792 12.7199 8.45992 12.1359 7.87594C11.5519 7.29197 10.8439 6.99999 10.0119 6.99999C9.16959 6.99999 8.45902 7.29197 7.88017 7.87594C7.30134 8.45992 7.01193 9.16792 7.01193 9.99996C7.01193 10.832 7.30134 11.54 7.88017 12.124C8.45902 12.7079 9.16959 12.9999 10.0119 12.9999ZM10.0119 11.5C9.5952 11.5 9.24104 11.3541 8.94937 11.0625C8.65771 10.7708 8.51187 10.4166 8.51187 9.99996C8.51187 9.58329 8.65771 9.22912 8.94937 8.93746C9.24104 8.64579 9.5952 8.49996 10.0119 8.49996C10.4285 8.49996 10.7827 8.64579 11.0744 8.93746C11.366 9.22912 11.5119 9.58329 11.5119 9.99996C11.5119 10.4166 11.366 10.7708 11.0744 11.0625C10.7827 11.3541 10.4285 11.5 10.0119 11.5ZM9.00035 17.9999H10.9657L11.3253 15.3211C11.8356 15.1878 12.3019 14.9983 12.7244 14.7528C13.1468 14.5073 13.5542 14.1916 13.9465 13.8057L16.4311 14.8499L17.4157 13.15L15.2465 11.5153C15.3298 11.2564 15.3865 11.0025 15.4167 10.7538C15.4468 10.5051 15.4619 10.2538 15.4619 9.99996C15.4619 9.73971 15.4468 9.48842 15.4167 9.24611C15.3865 9.00381 15.3298 8.75638 15.2465 8.50381L17.435 6.84996L16.4503 5.14997L13.9369 6.20959C13.6023 5.85189 13.2013 5.53586 12.734 5.26152C12.2667 4.98715 11.7939 4.79292 11.3157 4.67882L11.0003 1.99997H9.01572L8.68497 4.66919C8.17471 4.78971 7.70355 4.97432 7.2715 5.22304C6.83945 5.47176 6.42728 5.79227 6.03498 6.18459L3.55036 5.14997L2.56573 6.84996L4.72535 8.45958C4.64202 8.69675 4.58369 8.94354 4.55035 9.19996C4.51702 9.45637 4.50036 9.72625 4.50036 10.0096C4.50036 10.2698 4.51702 10.525 4.55035 10.775C4.58369 11.025 4.63881 11.2717 4.71573 11.5153L2.56573 13.15L3.55036 14.8499L6.02535 13.7999C6.40483 14.1897 6.8106 14.5089 7.24265 14.7576C7.6747 15.0064 8.15227 15.1974 8.67535 15.3307L9.00035 17.9999Z" fill="#337363"/>
</svg>
