<svg width="24" height="24" viewBox="0 0 24 24" fill="none" xmlns="http://www.w3.org/2000/svg">
<mask id="mask0_1624_1063" style="mask-type:alpha" maskUnits="userSpaceOnUse" x="0" y="0" width="24" height="24">
<rect width="24" height="24" fill="#D9D9D9"/>
</mask>
<g mask="url(#mask0_1624_1063)">
<path d="M13.5099 21.4999H10.4811C10.2568 21.4999 10.0625 21.4246 9.89845 21.2739C9.73435 21.1233 9.63563 20.9358 9.6023 20.7114L9.31193 18.4538C9.04398 18.364 8.76929 18.2384 8.48788 18.0768C8.20646 17.9153 7.95485 17.7422 7.73305 17.5576L5.64461 18.4384C5.43051 18.5217 5.21801 18.53 5.00711 18.4634C4.79621 18.3967 4.6305 18.2647 4.50998 18.0672L3.00619 15.448C2.88567 15.2506 2.84881 15.0397 2.89561 14.8154C2.9424 14.591 3.05617 14.4102 3.23694 14.2731L5.04463 12.9057C5.02155 12.757 5.0052 12.6077 4.99558 12.4577C4.98597 12.3077 4.98116 12.1583 4.98116 12.0096C4.98116 11.8673 4.98597 11.7227 4.99558 11.5759C5.0052 11.4291 5.02155 11.2685 5.04463 11.0942L3.23694 9.72686C3.05617 9.58969 2.9424 9.40893 2.89561 9.18456C2.84881 8.96021 2.88567 8.74932 3.00619 8.55189L4.50998 5.95194C4.62025 5.74424 4.78179 5.60963 4.99461 5.54809C5.20742 5.48656 5.42088 5.49746 5.63498 5.58079L7.72343 6.45194C7.96446 6.26091 8.22184 6.08623 8.49555 5.92789C8.76928 5.76954 9.0382 5.64229 9.3023 5.54614L9.6023 3.28847C9.63563 3.06411 9.73435 2.87661 9.89845 2.72597C10.0625 2.57532 10.2568 2.5 10.4811 2.5H13.5099C13.7343 2.5 13.9301 2.57532 14.0974 2.72597C14.2647 2.87661 14.3651 3.06411 14.3984 3.28847L14.6888 5.55577C14.9888 5.66474 15.2602 5.79198 15.5032 5.93749C15.7462 6.08301 15.9914 6.25449 16.2388 6.45194L18.3657 5.58079C18.5798 5.49746 18.7907 5.48752 18.9984 5.55097C19.2061 5.61444 19.3702 5.74489 19.4907 5.94232L20.9945 8.55189C21.115 8.74932 21.1519 8.96021 21.1051 9.18456C21.0583 9.40893 20.9445 9.58969 20.7638 9.72686L18.9176 11.123C18.9535 11.2846 18.9731 11.4355 18.9763 11.5759C18.9795 11.7163 18.9811 11.8576 18.9811 12C18.9811 12.1359 18.9779 12.274 18.9715 12.4144C18.965 12.5548 18.942 12.7153 18.9022 12.8961L20.7291 14.2731C20.9163 14.4038 21.0317 14.583 21.0753 14.8105C21.1189 15.0381 21.0804 15.2506 20.9599 15.448L19.4561 18.0518C19.3356 18.2493 19.1673 18.3823 18.9513 18.4509C18.7352 18.5195 18.5202 18.5121 18.3061 18.4287L16.2388 17.548C15.9914 17.7454 15.7388 17.9201 15.4811 18.072C15.2234 18.224 14.9593 18.348 14.6888 18.4441L14.3984 20.7114C14.3651 20.9358 14.2647 21.1233 14.0974 21.2739C13.9301 21.4246 13.7343 21.4999 13.5099 21.4999ZM12.0119 14.9999C12.8439 14.9999 13.5519 14.7079 14.1359 14.124C14.7199 13.54 15.0118 12.832 15.0118 12C15.0118 11.1679 14.7199 10.4599 14.1359 9.87594C13.5519 9.29197 12.8439 8.99999 12.0119 8.99999C11.1696 8.99999 10.459 9.29197 9.88017 9.87594C9.30134 10.4599 9.01193 11.1679 9.01193 12C9.01193 12.832 9.30134 13.54 9.88017 14.124C10.459 14.7079 11.1696 14.9999 12.0119 14.9999ZM12.0119 13.5C11.5952 13.5 11.241 13.3541 10.9494 13.0625C10.6577 12.7708 10.5119 12.4166 10.5119 12C10.5119 11.5833 10.6577 11.2291 10.9494 10.9375C11.241 10.6458 11.5952 10.5 12.0119 10.5C12.4285 10.5 12.7827 10.6458 13.0744 10.9375C13.366 11.2291 13.5119 11.5833 13.5119 12C13.5119 12.4166 13.366 12.7708 13.0744 13.0625C12.7827 13.3541 12.4285 13.5 12.0119 13.5ZM11.0003 19.9999H12.9657L13.3253 17.3211C13.8356 17.1878 14.3019 16.9983 14.7244 16.7528C15.1468 16.5073 15.5542 16.1916 15.9465 15.8057L18.4311 16.8499L19.4157 15.15L17.2465 13.5153C17.3298 13.2564 17.3865 13.0025 17.4167 12.7538C17.4468 12.5051 17.4619 12.2538 17.4619 12C17.4619 11.7397 17.4468 11.4884 17.4167 11.2461C17.3865 11.0038 17.3298 10.7564 17.2465 10.5038L19.435 8.84996L18.4503 7.14997L15.9369 8.20959C15.6023 7.85189 15.2013 7.53586 14.734 7.26152C14.2667 6.98715 13.7939 6.79292 13.3157 6.67882L13.0003 3.99997H11.0157L10.685 6.66919C10.1747 6.78971 9.70355 6.97432 9.2715 7.22304C8.83945 7.47176 8.42728 7.79227 8.03498 8.18459L5.55036 7.14997L4.56573 8.84996L6.72535 10.4596C6.64202 10.6968 6.58369 10.9435 6.55035 11.2C6.51702 11.4564 6.50036 11.7262 6.50036 12.0096C6.50036 12.2698 6.51702 12.525 6.55035 12.775C6.58369 13.025 6.63881 13.2717 6.71573 13.5153L4.56573 15.15L5.55036 16.8499L8.02535 15.7999C8.40483 16.1897 8.8106 16.5089 9.24265 16.7576C9.6747 17.0064 10.1523 17.1974 10.6753 17.3307L11.0003 19.9999Z" fill="#337363"/>
</g>
</svg>
