<svg width="15" height="21" viewBox="0 0 15 21" fill="none" xmlns="http://www.w3.org/2000/svg">
<path d="M6.57689 0.5C7.95253 0.5 9.12976 0.984291 10.1086 1.95287C11.0874 2.92146 11.5768 4.09357 11.5768 5.4692C11.5768 6.33332 11.3592 7.14326 10.924 7.89903C10.4887 8.65479 9.88068 9.25831 9.09989 9.70957H8.57684V8.23655C9.02429 7.93527 9.38616 7.5468 9.66244 7.07115C9.93874 6.5955 10.0769 6.06152 10.0769 5.4692C10.0769 4.5192 9.73106 3.7035 9.03939 3.0221C8.34773 2.34068 7.52689 1.99997 6.57689 1.99997C5.60638 1.99997 4.78041 2.34068 4.09899 3.0221C3.41759 3.7035 3.07689 4.5192 3.07689 5.4692C3.07689 6.06793 3.21408 6.61442 3.48844 7.10865C3.76281 7.60288 4.12564 7.99231 4.57692 8.27693V10.0634C3.68975 9.68008 2.96796 9.08233 2.41154 8.27015C1.85513 7.45798 1.57692 6.52433 1.57692 5.4692C1.57692 4.09357 2.06378 2.92146 3.03749 1.95287C4.01121 0.984291 5.19101 0.5 6.57689 0.5ZM5.62689 20.5C5.41408 20.5 5.21312 20.4586 5.02402 20.3759C4.83492 20.2932 4.66794 20.1794 4.52307 20.0346L0.555768 16.0865C0.349368 15.8801 0.243601 15.6198 0.238468 15.3058C0.233335 14.9917 0.333968 14.6808 0.540368 14.3731C0.742935 14.0859 0.965693 13.8882 1.20864 13.7798C1.45158 13.6715 1.73202 13.6545 2.04997 13.7289L4.57692 14.2654V5.49998C4.57692 4.94101 4.77051 4.46794 5.15769 4.08078C5.54486 3.69359 6.01793 3.5 6.57689 3.5C7.13586 3.5 7.60893 3.69359 7.99609 4.08078C8.38326 4.46794 8.57684 4.94101 8.57684 5.49998V10.1846H9.38072C9.45763 10.1846 9.53038 10.1955 9.59897 10.2173C9.66757 10.2391 9.73199 10.2718 9.79224 10.3154L13.2422 12C13.6743 12.2026 13.9894 12.5305 14.1874 12.9837C14.3855 13.4369 14.4397 13.9026 14.3499 14.3808L13.5268 19.2731C13.4627 19.6346 13.2887 19.9295 13.0047 20.1577C12.7208 20.3859 12.3948 20.5 12.0269 20.5H5.62689ZM5.62689 19H12.0269L12.8807 14.1077C12.9064 13.9731 12.8984 13.8321 12.8567 13.6846C12.815 13.5372 12.7205 13.4282 12.573 13.3577L8.82689 11.5H7.07689V5.49998C7.07689 5.34998 7.03106 5.22914 6.93939 5.13748C6.84773 5.04581 6.72689 4.99998 6.57689 4.99998C6.42689 4.99998 6.30606 5.04581 6.21439 5.13748C6.12273 5.22914 6.07689 5.34998 6.07689 5.49998V16.1L1.82689 15.2192L5.62689 19Z" fill="#49454F"/>
</svg>
