<svg width="16" height="20" viewBox="0 0 16 20" fill="none" xmlns="http://www.w3.org/2000/svg">
<path d="M4.99997 15.7499H11C11.2125 15.7499 11.3906 15.678 11.5343 15.5342C11.6781 15.3904 11.7499 15.2122 11.7499 14.9996C11.7499 14.787 11.6781 14.6089 11.5343 14.4653C11.3906 14.3218 11.2125 14.25 11 14.25H4.99997C4.78747 14.25 4.60935 14.3219 4.46562 14.4657C4.32187 14.6095 4.24999 14.7877 4.24999 15.0003C4.24999 15.2129 4.32187 15.391 4.46562 15.5345C4.60935 15.6781 4.78747 15.7499 4.99997 15.7499ZM4.99997 11.7499H11C11.2125 11.7499 11.3906 11.678 11.5343 11.5342C11.6781 11.3904 11.7499 11.2122 11.7499 10.9996C11.7499 10.787 11.6781 10.6089 11.5343 10.4654C11.3906 10.3218 11.2125 10.25 11 10.25H4.99997C4.78747 10.25 4.60935 10.3219 4.46562 10.4657C4.32187 10.6095 4.24999 10.7877 4.24999 11.0003C4.24999 11.2129 4.32187 11.391 4.46562 11.5346C4.60935 11.6781 4.78747 11.7499 4.99997 11.7499ZM2.3077 19.4999C1.80256 19.4999 1.375 19.3249 1.025 18.9749C0.675 18.6249 0.5 18.1973 0.5 17.6922V2.3077C0.5 1.80256 0.675 1.375 1.025 1.025C1.375 0.675 1.80256 0.5 2.3077 0.5H9.50191C9.74577 0.5 9.97821 0.5468 10.1992 0.6404C10.4202 0.733983 10.6128 0.862824 10.7769 1.02692L14.973 5.22302C15.1371 5.38713 15.2659 5.57969 15.3595 5.80069C15.4531 6.02171 15.4999 6.25415 15.4999 6.49801V17.6922C15.4999 18.1973 15.3249 18.6249 14.9749 18.9749C14.6249 19.3249 14.1974 19.4999 13.6922 19.4999H2.3077ZM9.49998 5.59994V1.99997H2.3077C2.23076 1.99997 2.16024 2.03202 2.09612 2.09612C2.03202 2.16024 1.99997 2.23076 1.99997 2.3077V17.6922C1.99997 17.7691 2.03202 17.8397 2.09612 17.9038C2.16024 17.9679 2.23076 17.9999 2.3077 17.9999H13.6922C13.7692 17.9999 13.8397 17.9679 13.9038 17.9038C13.9679 17.8397 13.9999 17.7691 13.9999 17.6922V6.49994H10.3998C10.1448 6.49994 9.93109 6.41369 9.75866 6.24119C9.58621 6.06869 9.49998 5.85494 9.49998 5.59994Z" fill="#337363"/>
</svg>
