<svg width="24" height="24" viewBox="0 0 24 24" fill="none" xmlns="http://www.w3.org/2000/svg">
<mask id="mask0_1624_1009" style="mask-type:alpha" maskUnits="userSpaceOnUse" x="0" y="0" width="24" height="24">
<rect width="24" height="24" fill="#D9D9D9"/>
</mask>
<g mask="url(#mask0_1624_1009)">
<path d="M11.5769 1.5C12.9525 1.5 14.1298 1.98429 15.1086 2.95287C16.0874 3.92146 16.5768 5.09357 16.5768 6.4692C16.5768 7.33332 16.3592 8.14326 15.924 8.89903C15.4887 9.65479 14.8807 10.2583 14.0999 10.7096H13.5768V9.23655C14.0243 8.93527 14.3862 8.5468 14.6624 8.07115C14.9387 7.5955 15.0769 7.06152 15.0769 6.4692C15.0769 5.5192 14.7311 4.7035 14.0394 4.0221C13.3477 3.34068 12.5269 2.99997 11.5769 2.99997C10.6064 2.99997 9.78041 3.34068 9.09899 4.0221C8.41759 4.7035 8.07689 5.5192 8.07689 6.4692C8.07689 7.06793 8.21408 7.61442 8.48844 8.10865C8.76281 8.60288 9.12564 8.99231 9.57692 9.27693V11.0634C8.68975 10.6801 7.96796 10.0823 7.41154 9.27015C6.85513 8.45798 6.57692 7.52433 6.57692 6.4692C6.57692 5.09357 7.06378 3.92146 8.03749 2.95287C9.01121 1.98429 10.191 1.5 11.5769 1.5ZM10.6269 21.5C10.4141 21.5 10.2131 21.4586 10.024 21.3759C9.83492 21.2932 9.66794 21.1794 9.52307 21.0346L5.55577 17.0865C5.34937 16.8801 5.2436 16.6198 5.23847 16.3058C5.23333 15.9917 5.33397 15.6808 5.54037 15.3731C5.74293 15.0859 5.96569 14.8882 6.20864 14.7798C6.45158 14.6715 6.73202 14.6545 7.04997 14.7289L9.57692 15.2654V6.49998C9.57692 5.94101 9.77051 5.46794 10.1577 5.08078C10.5449 4.69359 11.0179 4.5 11.5769 4.5C12.1359 4.5 12.6089 4.69359 12.9961 5.08078C13.3833 5.46794 13.5768 5.94101 13.5768 6.49998V11.1846H14.3807C14.4576 11.1846 14.5304 11.1955 14.599 11.2173C14.6676 11.2391 14.732 11.2718 14.7922 11.3154L18.2422 13C18.6743 13.2026 18.9894 13.5304 19.1874 13.9837C19.3855 14.4369 19.4397 14.9026 19.3499 15.3808L18.5268 20.2731C18.4627 20.6346 18.2887 20.9295 18.0047 21.1577C17.7208 21.3859 17.3948 21.5 17.0269 21.5H10.6269ZM10.6269 20H17.0269L17.8807 15.1077C17.9064 14.9731 17.8984 14.8321 17.8567 14.6846C17.815 14.5372 17.7205 14.4282 17.573 14.3577L13.8269 12.5H12.0769V6.49998C12.0769 6.34998 12.0311 6.22914 11.9394 6.13748C11.8477 6.04581 11.7269 5.99998 11.5769 5.99998C11.4269 5.99998 11.3061 6.04581 11.2144 6.13748C11.1227 6.22914 11.0769 6.34998 11.0769 6.49998V17.1L6.82689 16.2192L10.6269 20Z" fill="#337363"/>
</g>
</svg>
